<?xml version="1.0" standalone="no"?>
<!DOCTYPE svg PUBLIC "-//W3C//DTD SVG 1.1//EN" "http://www.w3.org/Graphics/SVG/1.1/DTD/svg11.dtd" >
<svg>
<metadata>
Created by FontForge 20090914 at Sat Aug 14 14:05:43 2021
 By www-data
</metadata>
<defs>
<font id="BIP" horiz-adv-x="574" >
  <font-face 
    font-family="BIP"
    font-weight="400"
    font-stretch="normal"
    units-per-em="2048"
    panose-1="3 15 7 2 3 3 2 2 2 4"
    ascent="1638"
    descent="-410"
    x-height="996.998"
    cap-height="1595.5"
    bbox="-386.852 -655.713 2462.35 2289.5"
    underline-thickness="175"
    underline-position="-185"
    unicode-range="U+0020-U+F005"
  />
<missing-glyph horiz-adv-x="989" 
d="M341 1077l-27 -301.999c-32 -302.667 7.66699 -466.334 119 -491.001c213.333 -6 320.333 69.667 321 227l42 701c38.667 136.667 -56.333 199 -285 187c-98 8 -154.667 -99.333 -170 -322zM752 -10.999c-325.333 -11.333 -518.834 -10.332 -580.501 3.00098
s-102.5 173.333 -122.5 480c26.667 605.333 56.667 947.166 90 1025.5s100 117.333 200 117s222.333 -2 367 -5s219.5 -34.667 224.5 -95s4.83301 -196.333 -0.5 -408s-10.166 -444.167 -14.499 -697.5s-58.833 -393.333 -163.5 -420z" />
    <glyph glyph-name=".notdef" horiz-adv-x="989" 
d="M341 1077l-27 -301.999c-32 -302.667 7.66699 -466.334 119 -491.001c213.333 -6 320.333 69.667 321 227l42 701c38.667 136.667 -56.333 199 -285 187c-98 8 -154.667 -99.333 -170 -322zM752 -10.999c-325.333 -11.333 -518.834 -10.332 -580.501 3.00098
s-102.5 173.333 -122.5 480c26.667 605.333 56.667 947.166 90 1025.5s100 117.333 200 117s222.333 -2 367 -5s219.5 -34.667 224.5 -95s4.83301 -196.333 -0.5 -408s-10.166 -444.167 -14.499 -697.5s-58.833 -393.333 -163.5 -420z" />
    <glyph glyph-name="space" unicode=" " horiz-adv-x="612" 
 />
    <glyph glyph-name="exclam" unicode="!" horiz-adv-x="527" 
d="M484 1492l-92.001 -1089c0 -59.333 -44.333 -92.666 -133 -99.999c-99.333 4 -156.166 77.667 -170.499 221s-25.833 315.833 -34.5 517.5s-10.5 359.5 -5.5 473.5s87.5 168.667 247.5 164c130 -17.333 192.667 -79.666 188 -186.999zM440.999 17.998
c-8 -31.333 -24.168 -59.166 -48.501 -83.499s-57.333 -39.833 -99 -46.5s-84 4.16602 -127 32.499s-66.667 77.333 -71 147s20.334 113.334 74.001 131.001s107.5 20.167 161.5 7.5s88 -39.334 102 -80.001s16.667 -76.667 8 -108z" />
    <glyph glyph-name="quotedbl" unicode="&#x22;" horiz-adv-x="714" 
d="M194 932c-95.333 -17.333 -142 17.501 -140 104.501s5 174.167 9 261.5l9 198.5c2 45 16.167 71.5 42.5 79.5s52.5 12 78.5 12c69.333 0 106 -25.833 110 -77.5s2.16699 -152.834 -5.5 -303.501s-20.5 -234.167 -38.5 -250.5s-39.667 -24.5 -65 -24.5zM607 969.001
c-68.667 1.33301 -114.5 5.33105 -137.5 11.998s-34.167 92.167 -33.5 256.5s5 262 13 293s42.667 45.5 104 43.5c64.667 3.33301 100.167 -29.667 106.5 -99s7.5 -170.666 3.5 -303.999s-22.667 -200.666 -56 -201.999z" />
    <glyph glyph-name="numbersign" unicode="#" horiz-adv-x="1742" 
d="M618 679l316 4l91 257l-325 2zM329 719l85.002 241.001l-230 -4c-96.667 10.667 -136.667 56 -120 136c10.667 110 132.667 160.333 366 151c57.333 219.333 127.166 330 209.499 332s144.666 -21.5 186.999 -70.5s36.833 -141.167 -16.5 -276.5l295 -5
c49.333 214 130 328 242 342c93.333 -20 144.166 -45.5 152.499 -76.5s-1.83398 -124.5 -30.501 -280.5c164 14 239.333 -27.667 226 -125c-3.33301 -104 -30.5 -161.167 -81.5 -171.5s-135.833 -14.833 -254.5 -13.5l-56 -225c218.667 -4 324.834 -51.333 318.501 -142
s-50.5 -149.667 -132.5 -177l-281 -11l-110 -269c-32 -71.333 -94.833 -109 -188.5 -113s-144 23.667 -151 83s1.83301 121.166 26.5 185.499s47.334 117.833 68.001 160.5h-298c-36.667 -249.333 -125.667 -373 -267 -371
c-100.667 10.667 -149.334 48.334 -146.001 113.001s27.333 157 72 277c-93.333 -6.66699 -146.5 12.166 -159.5 56.499s-11.167 104.5 5.5 180.5s106.334 100.333 269.001 73z" />
    <glyph glyph-name="dollar" unicode="$" horiz-adv-x="1270" 
d="M484 974l-8 208c-75.333 -24 -109 -65.5 -101 -124.5s44.333 -86.833 109 -83.5zM748 602l-2.99902 -301c50 -1.33301 97.5 9.66699 142.5 33s58.167 68.5 39.5 135.5s-78.334 111.167 -179.001 132.5zM747.001 1610l-4.00195 -102.998
c28.667 -4 86.334 -10.333 173.001 -19c107.333 -42 186.333 -87.333 237 -136s35.334 -113.5 -45.999 -194.5s-145.833 -105.333 -193.5 -73s-97.5 55.5 -149.5 69.5l1 -191c139.333 -32.667 253.833 -89.334 343.5 -170.001s131.5 -199.334 125.5 -356.001
s-52.833 -277.834 -140.5 -363.501s-215.834 -137.167 -384.501 -154.5c2.66699 -66 -3.66602 -115.333 -18.999 -148s-69.333 -50.334 -162 -53.001s-124.334 68 -95.001 212c-270 56 -403 130 -399 222s17.333 156.667 40 194s53 59.833 91 67.5
s72.667 -0.666016 104 -24.999s90.333 -46.166 177 -65.499l3 258c-76.667 3.33301 -152 30.333 -226 81s-121.167 147.5 -141.5 290.5s6.16699 257.833 79.5 344.5s170 141 290 163c-17.333 148 26.334 211 131.001 189c108.667 16 163.667 3 165 -39z" />
    <glyph glyph-name="percent" unicode="%" horiz-adv-x="1562" 
d="M413 927c-128.667 -22.667 -223.999 13 -285.999 107s-85.833 190.667 -71.5 290s55.5 180.833 123.5 244.5s147 100 237 109s165 -26.167 225 -105.5s90 -165.5 90 -258.5s-20.833 -174.833 -62.5 -245.5s-126.834 -117.667 -255.501 -141zM991.001 1602
c16.667 18 47.668 34.332 93.001 48.999c44 -14.667 77.5 -25.167 100.5 -31.5s52 -32.5 87 -78.5s32.167 -127.167 -8.5 -243.5s-95.334 -247.666 -164.001 -393.999s-170.5 -349.833 -305.5 -610.5s-234.667 -389.334 -299 -386.001s-116.833 20.166 -157.5 50.499
s-49.167 84.333 -25.5 162s64.667 179.834 123 306.501s98.833 221.834 121.5 285.501s167.667 360.5 435 890.5zM1286 -14.001c-86.667 -11.333 -161.831 11.8311 -225.498 69.498s-92.834 131.334 -87.501 221.001s30.666 165.334 75.999 227.001
s104.666 89.667 177.999 84s133.833 -21 181.5 -46s80.334 -82.667 98.001 -173s7.16699 -174 -31.5 -251s-101.667 -120.833 -189 -131.5zM415.005 1455c-30.667 2 -57.333 -7.83398 -80 -29.501s-42 -56.167 -58 -103.5s-10.333 -90.166 17 -128.499
s71.666 -52.5 132.999 -42.5s98.5 30.167 111.5 60.5s17.667 68.5 14 114.5s-19.667 78.5 -48 97.5s-58.166 29.5 -89.499 31.5zM1222.01 396.995c-28.667 -1.33301 -51.002 -10.668 -67.002 -28.001s-28.167 -43.666 -36.5 -78.999s-3.16602 -65.333 15.501 -90
s54 -39.5 106 -44.5s88.5 7.5 109.5 37.5s25.333 65.167 13 105.5s-31.666 67.333 -57.999 81s-53.833 19.5 -82.5 17.5z" />
    <glyph glyph-name="ampersand" unicode="&#x26;" horiz-adv-x="1319" 
d="M736 1115c66 40 97.3301 88.333 93.9971 145s-17.666 95.834 -42.999 117.501s-48.666 32.5 -69.999 32.5s-57.666 -21.333 -108.999 -64s-59.333 -101.834 -24 -177.501s86 -93.5 152 -53.5zM657.997 684c-88 40.667 -164 42.1689 -228 4.50195
s-103.833 -109.5 -119.5 -215.5s6 -176.833 65 -212.5s139 -48.834 240 -39.501s155.333 78.666 163 207.999s-32.5 214.333 -120.5 255zM857.997 905.002c48 -89.333 78.334 -140.337 91.001 -153.004c23.333 120 81.333 164.667 174 134
c98 -52 150.167 -99.333 156.5 -142s0.166016 -99.5 -18.501 -170.5s-54.334 -149.167 -107.001 -234.5c76.667 -139.333 91.5 -227.666 44.5 -264.999s-96.667 -62.166 -149 -74.499s-95.166 11.167 -128.499 70.5c-94 -83.333 -212.667 -132.666 -356 -147.999
s-265.333 15.334 -366 92.001s-154.334 185.667 -161.001 327s24.333 263.833 93 367.5s171.334 195.5 308.001 275.5c-50.667 80 -76 173.333 -76 280s43.833 193.5 131.5 260.5s170 95.5 247 85.5s139.167 -42.333 186.5 -97s76 -144.667 86 -270s-42 -238 -156 -338z" />
    <glyph glyph-name="quotesingle" unicode="'" horiz-adv-x="349" 
d="M201 1124c-50.667 -2 -88.668 8.66797 -114.001 32.001s-38.666 72.833 -39.999 148.5s0.5 159.667 5.5 252s44.5 135.166 118.5 128.499c59.333 -3.33301 93.5 -15.833 102.5 -37.5s16 -83.834 21 -186.501s6.83301 -186.667 5.5 -252s-34.333 -93.666 -99 -84.999z" />
    <glyph glyph-name="parenleft" unicode="(" horiz-adv-x="949" 
d="M877 1515c22 -64.667 10.6689 -126.835 -33.998 -186.502s-112.334 -183.5 -203.001 -371.5s-143.667 -385 -159 -591s41.5 -344.667 170.5 -416s198.667 -132.833 209 -184.5s1.83301 -108.5 -25.5 -170.5s-67.833 -93 -121.5 -93s-181.334 43.667 -383.001 131
s-297.167 344.833 -286.5 772.5s91.5 738.834 242.5 933.501s254.833 307.334 311.5 338.001s112 27.667 166 -9s91.667 -87.667 113 -153z" />
    <glyph glyph-name="parenright" unicode=")" horiz-adv-x="755" 
d="M699 346c-18.667 -345.333 -94 -568.666 -226 -669.999s-220.167 -148.833 -264.5 -142.5s-79.333 19.666 -105 39.999s-44.834 75.833 -57.501 166.5s25.833 170.167 115.5 238.5s148.334 201.666 176.001 399.999s8.83398 356.5 -56.499 474.5
s-112.333 227.333 -141 328s-20.334 173.834 24.999 219.501s102.5 88 171.5 127s151.333 -61.667 247 -302s134.167 -533.5 115.5 -879.5z" />
    <glyph glyph-name="asterisk" unicode="*" horiz-adv-x="1017" 
d="M51 1315c0 24.667 10.002 50.832 30.002 78.499s38.667 37.334 56 29.001s91.333 -32.166 222 -71.499c16.667 84 27.667 145.5 33 184.5s37.666 59.333 96.999 61s98.5 -18.166 117.5 -59.499s37.833 -106.666 56.5 -195.999c99.333 32.667 170 48.167 212 46.5
s70 -13.5 84 -35.5s23 -54 27 -96s-17.667 -76.667 -65 -104s-104.666 -42.666 -171.999 -45.999c18.667 -26 41.834 -64.667 69.501 -116s44.5 -90.166 50.5 -116.499s-0.833008 -51.333 -20.5 -75s-50.334 -41.834 -92.001 -54.501s-89 1 -142 41s-106.5 90 -160.5 150
c-89.333 -84 -154.833 -132 -196.5 -144s-78 -4.83301 -109 21.5s-50.333 53.666 -58 81.999s8.66602 61.666 48.999 99.999s74.833 69.166 103.5 92.499c-26 21.333 -68.333 51.166 -127 89.499s-80.334 84.5 -65.001 138.5z" />
    <glyph glyph-name="plus" unicode="+" horiz-adv-x="917" 
d="M521 516l2.00098 -142.998c-6.66699 -56.667 -39 -87.167 -97 -91.5s-99.167 0.166992 -123.5 13.5s-33.166 50.333 -26.499 111l-7 121c-56.667 -12.667 -108.667 -17.834 -156 -15.501s-77.666 36.833 -90.999 103.5c0 40 2.5 73.333 7.5 100s32 44.167 81 52.5
s112.167 13.833 189.5 16.5c6 103.333 9.16699 170.666 9.5 201.999s10.5 49.166 30.5 53.499s41 6.5 63 6.5c25.333 0 55.666 -2.66699 90.999 -8s55.166 -26.5 59.499 -63.5s4.5 -100.833 0.5 -191.5c84 -2 163.5 -8.83301 238.5 -20.5s112.5 -45.667 112.5 -102
s-13.333 -91.666 -40 -105.999s-60.334 -23.5 -101.001 -27.5s-121.667 -7.66699 -243 -11z" />
    <glyph glyph-name="comma" unicode="," horiz-adv-x="374" 
d="M129 -359c-26.667 -1.33301 -51.502 4.33203 -74.502 16.999s-31.5 36.334 -25.5 71.001c8.66699 30 30.334 90.5 65.001 181.5s63.167 152.333 85.5 184s47.833 47.5 76.5 47.5c24 0 44.5 -9.16699 61.5 -27.5s26 -53.833 27 -106.5s-38.5 -152 -118.5 -298
c-17.333 -40 -49.666 -63 -96.999 -69z" />
    <glyph glyph-name="hyphen" unicode="-" horiz-adv-x="787" 
d="M631 453c-90 -19.333 -251.001 -25.335 -483.001 -18.002c-61.333 -9.33301 -91 25.334 -89 104.001c-9.33301 86 23 123.667 97 113c56 -2.66699 134.5 -2.16699 235.5 1.5s185.333 4 253 1s99.834 -38.833 96.501 -107.5c2.66699 -59.333 -34 -90.666 -110 -93.999z
" />
    <glyph glyph-name="period" unicode="." horiz-adv-x="357" 
d="M180 -96c-32 -2 -63.334 7.50098 -94.001 28.501s-45.667 52.167 -45 93.5s10.834 77.5 30.501 108.5s56.667 44 111 39s92 -22.833 113 -53.5s27.167 -61.834 18.5 -93.501s-25.167 -59.5 -49.5 -83.5s-52.5 -37 -84.5 -39z" />
    <glyph glyph-name="slash" unicode="/" horiz-adv-x="1041" 
d="M134 -139c-36 -3.33301 -62.3359 0.832031 -79.0029 12.499s-31 36.834 -43 75.501c4.66699 35.333 9.33398 68.333 14.001 99l226 641c98.667 284 209.334 533.333 332.001 748s199.334 316.334 230.001 305.001c127.333 -16.667 195.833 -43.5 205.5 -80.5
s5.16699 -75.167 -13.5 -114.5c-144.667 -392.667 -262 -671.334 -352 -836.001l-382 -753c-40.667 -80.667 -86.667 -113 -138 -97z" />
    <glyph glyph-name="zero" unicode="0" horiz-adv-x="1302" 
d="M690 -13c-166 10.667 -316.666 72.333 -451.999 185c-126.667 145.333 -193.334 353.333 -200.001 624c12.667 206.667 67 401.667 163 585c124.667 172.667 304 237 538 193c190 -73.333 324.833 -160.5 404.5 -261.5s116.167 -246.167 109.5 -435.5
c-6 -292 -38.667 -509.333 -98 -652s-214.333 -222 -465 -238zM331.001 806.999c-33.333 -216 -17.0029 -356.667 48.9971 -422s131.667 -104.333 197 -117c181.333 -76.667 304.333 -27.667 369 147c29.333 108.667 49 244 59 406c0 180.667 -32.167 292.667 -96.5 336
s-146.166 68 -245.499 74s-176.166 -30.167 -230.499 -108.5s-88.166 -183.5 -101.499 -315.5z" />
    <glyph glyph-name="one" unicode="1" horiz-adv-x="657" 
d="M540 35c-86 -41.333 -176.001 -38 -270.001 10c20 365.333 31.833 618 35.5 758s1.83398 256 -5.49902 348c-59.333 -53.333 -121 -88 -185 -104c-33.333 16.667 -55 45.5 -65 86.5s-20 72.833 -30 95.5c-10 34.667 15.833 75.334 77.5 122.001s181.5 125.667 359.5 237
c48 7.33301 86 -82.834 114 -270.501s35.5 -391.5 22.5 -611.5s-21.5 -397.333 -25.5 -532z" />
    <glyph glyph-name="two" unicode="2" horiz-adv-x="1120" 
d="M483 -17c-128 9.33301 -205.001 13.999 -231.001 13.999c-7.33301 0 -18 1.33301 -32 4s-24.667 4 -32 4c-46 0 -76 22.333 -90 67c-8 23.333 -12 63.333 -12 120c3.33301 120.667 39.833 239.5 109.5 356.5s159.5 212.167 269.5 285.5s187.333 131.833 232 175.5
s67.834 88 69.501 133s-13 77 -44 96s-70.333 15.667 -118 -10s-117.167 -83 -208.5 -172s-168 -110.833 -230 -65.5c-43.333 28.667 -80.666 68.667 -111.999 120c-16 48 9.33301 108.667 76 182c74.667 70.667 146.5 128.834 215.5 174.501s146.167 68.5 231.5 68.5
c108 28.667 206.833 12.667 296.5 -48s145 -140.167 166 -238.5s14.667 -207.166 -19 -326.499s-108.334 -221.833 -224.001 -307.5s-224.834 -188.834 -327.501 -309.501c172.667 10.667 350 -7 532 -53c53.333 -10.667 75.333 -45.667 66 -105
s-20.666 -100.833 -33.999 -124.5s-66.5 -41.5 -159.5 -53.5s-223.167 -7.66699 -390.5 13z" />
    <glyph glyph-name="three" unicode="3" horiz-adv-x="1132" 
d="M556 -75c-94 0 -187.664 22.333 -280.997 67c-83.333 65.333 -164 153.666 -242 264.999c0 62.667 12.5 117.167 37.5 163.5s64.167 87.5 117.5 123.5c43.333 30.667 99.666 -19.666 168.999 -150.999c51.333 -48.667 90.666 -75.334 117.999 -80.001s58.333 -8 93 -10
s73.667 1.33301 117 10s67.5 47.167 72.5 115.5s-27.833 117.833 -98.5 148.5c-76 28 -179 46 -309 54c-41.333 70.667 -60.333 127.334 -57 170.001c-10 49.333 1 106 33 170l312 29c52.667 3.33301 89 16.666 109 39.999s24.667 52.5 14 87.5s-29.834 57.667 -57.501 68
s-89.167 5.5 -184.5 -14.5c-81.333 -20.667 -143.666 -42.667 -186.999 -66s-86.333 -21.666 -129 5.00098c-45.333 30 -76 76.667 -92 140c26 85.333 90 152.333 192 201c88.667 43.333 161.667 65 219 65c143.333 0 257 -31.667 341 -95c90 -68 145 -161.667 165 -281
c13.333 -180 -28.334 -309.333 -125.001 -388c127.333 -93.333 183.5 -208 168.5 -344s-65.667 -252.167 -152 -348.5s-207.5 -144.5 -363.5 -144.5z" />
    <glyph glyph-name="four" unicode="4" horiz-adv-x="1227" 
d="M940 377l-9.99902 -309.997c13.333 -72 -13.667 -108 -81 -108c-104 -49.333 -162.667 -31.166 -176 54.501s-8.66602 198.5 14.001 338.5c-139.333 3.33301 -318.333 41.666 -537 114.999c-95.333 33.333 -117.333 108.333 -66 225
c386.667 595.333 631 884.666 733 867.999c112 3.33301 171.667 -87.667 179 -273s10.666 -385.333 9.99902 -600c129.333 -13.333 185.666 -51.333 168.999 -114c0 -84.667 -17.5 -138.334 -52.5 -161.001s-95.833 -34.334 -182.5 -35.001zM736.001 1159
c-108.667 -208 -201 -349 -277 -423l247 -16z" />
    <glyph glyph-name="five" unicode="5" horiz-adv-x="1227" 
d="M558 -154c-186 33.333 -342.665 109.666 -469.998 228.999c-32 50 -48 91 -48 123l54 95.5c15.333 27.667 39.333 58.167 72 91.5c48.667 41.333 94.667 28.666 138 -38.001s91.5 -103.667 144.5 -111s104.667 -9.16602 155 -5.49902s110 35.834 179 96.501
s104.5 138.5 106.5 233.5s-47 175.5 -147 241.5s-203.333 60.333 -310 -17s-206 -116 -298 -116c-9.33301 61.333 -15.166 149 -17.499 263s7.16699 238.5 28.5 373.5s38 217.833 50 248.5s58.333 46.334 139 47.001s163.834 -1 249.501 -5s195.167 -16.5 328.5 -37.5
s189.666 -105.833 168.999 -254.5c-18.667 -58.667 -97.667 -61.334 -237 -8.00098l-135 4l-169 2l-135 -25c-56.667 -31.333 -75.334 -94 -56.001 -188c407.333 64 652.666 13.333 735.999 -152c70 -88 98 -210.667 84 -368c-6.66699 -180 -52.334 -337 -137.001 -471
c-66 -127.333 -224 -211.333 -474 -252z" />
    <glyph glyph-name="six" unicode="6" horiz-adv-x="1195" 
d="M603 -134c-198 0 -336.499 63.834 -415.499 191.501s-127.5 282.5 -145.5 464.5c-6 333.333 37 561.166 129 683.499s214 233.333 366 333s239.833 130 263.5 91s63.5 -92.167 119.5 -159.5c46.667 -40 -3.5 -99.167 -150.5 -177.5s-240.167 -162.166 -279.5 -251.499
c4 -6 66.667 -0.666992 188 16s233.166 -24.833 335.499 -124.5s148.5 -253.834 138.5 -462.501c-37.333 -172.667 -94.333 -307 -171 -403s-202.667 -163 -378 -201zM638.001 713.001c-67.333 7.33301 -127.333 -1.00098 -180 -25.001l-70 -66
c-24 -25.333 -42.667 -65.333 -56 -120c-24 -95.333 -12.667 -168.666 34 -219.999c44 -120 123 -171.667 237 -155c94 -16.667 168.667 11 224 83c51.333 66.667 77 155 77 265c0 91.333 -26.333 159.833 -79 205.5s-115 56.5 -187 32.5z" />
    <glyph glyph-name="seven" unicode="7" horiz-adv-x="1295" 
d="M257 -86c-34 71.333 11.834 253.999 137.501 547.999s266.834 530.667 423.501 710l-609 32c-116.667 -20 -160.334 49.333 -131.001 208c0 28 6 57.5 18 88.5s48.333 44.833 109 41.5c126.667 -9.33301 268 -16.666 424 -21.999s300.667 -9.66602 434 -12.999
s206.666 -31 219.999 -83c-6.66699 -70.667 -75.5 -216.667 -206.5 -438l-361.5 -634.5c-110 -201.667 -174.667 -327.5 -194 -377.5s-57.833 -80.833 -115.5 -92.5s-107.167 -0.833984 -148.5 32.499z" />
    <glyph glyph-name="eight" unicode="8" horiz-adv-x="1194" 
d="M285 766c-105.333 72.667 -163.666 176.331 -174.999 310.998s41.167 274 157.5 418s279 185 488 123s322.167 -176.833 339.5 -344.5s8.16602 -281.667 -27.501 -342s-69.834 -109.5 -102.501 -147.5c12 -29.333 38 -73 78 -131c70.667 -68 107 -165 109 -291
s-17.167 -243.5 -57.5 -352.5s-181 -171.5 -422 -187.5s-407.667 27.333 -500 130s-126.666 247.334 -102.999 434.001s95.5 313.334 215.5 380.001zM630 1329c-53.333 -1.33301 -103.833 -17.834 -151.5 -49.501s-70.5 -90.334 -68.5 -176.001s51.333 -136.667 148 -153
s162.5 -7.66602 197.5 26.001s52.5 86.334 52.5 158.001s-16.333 122.5 -49 152.5s-75.667 44 -129 42zM425 536.996c-36 -36 -59 -105.998 -69 -209.998c6 -66.667 38 -119 96 -157c30.667 -32.667 80.334 -49 149.001 -49c98 6.66699 162.333 27.167 193 61.5
s50 85.666 58 153.999s-10.667 128.166 -56 179.499s-107.333 76.833 -186 76.5s-140.334 -18.833 -185.001 -55.5z" />
    <glyph glyph-name="nine" unicode="9" horiz-adv-x="1249" 
d="M841 101l-202.997 -156.999c-141.333 -61.333 -261.333 -101.666 -360 -120.999c-40 14 -71 36 -93 66s-38 71.167 -48 123.5s28 103.166 114 152.499c200 47.333 386 160.666 558 339.999c-92.667 -6 -182.334 -10.833 -269.001 -14.5s-188.334 31.5 -305.001 105.5
s-173.667 203 -171 387c-16.667 212.667 68 389.667 254 531c135.333 45.333 265.666 68 390.999 68c152.667 -5.33301 275.5 -50.333 368.5 -135s138.167 -231.334 135.5 -440.001c-6.66699 -165.333 -30.667 -329.666 -72 -492.999
c-79.333 -175.333 -179.333 -313 -300 -413zM697.003 1237c-69.333 3.33301 -130.168 -10.665 -182.501 -41.998s-90.833 -84.333 -115.5 -159s-9.66699 -136.334 45 -185.001s130.334 -69.834 227.001 -63.501s163.167 37 199.5 92s54.333 109.167 54 162.5
s-20.833 98.333 -61.5 135s-96 56.667 -166 60z" />
    <glyph glyph-name="colon" unicode=":" horiz-adv-x="392" 
d="M226 110c-92.667 -4 -146.335 27.5 -161.002 94.5s-19.167 124.167 -13.5 171.5s24.334 71.5 56.001 72.5s80.834 2 147.501 3s95.167 -43.333 85.5 -133s-21.667 -145.667 -36 -168s-40.5 -35.833 -78.5 -40.5zM319.999 1048c16 -53.333 22.5 -112.667 19.5 -178
s-26 -108.5 -69 -129.5s-85.667 -23.667 -128 -8s-69.833 69.667 -82.5 162s-12.167 151.5 1.5 177.5s37.5 42.5 71.5 49.5s69.667 10 107 9s64 -28.5 80 -82.5z" />
    <glyph glyph-name="semicolon" unicode=";" horiz-adv-x="517" 
d="M479 1038c8.66699 -79.333 9.50098 -139.168 2.50098 -179.501s-52.333 -66 -136 -77s-131 16.5 -142 82.5s-16.667 127.333 -17 184s16.667 94.667 51 114s81.166 23.333 140.499 12s93 -56.666 101 -135.999zM203.001 -276.002c-64 -10 -111.333 31.167 -142 123.5
s-9.83398 192.333 62.499 300s138 156.5 197 146.5s95.833 -29.667 110.5 -59s24.834 -64.5 30.501 -105.5s-15.833 -88 -64.5 -141s-73.667 -86.833 -75 -101.5s-5.5 -43 -12.5 -85s-42.5 -68 -106.5 -78z" />
    <glyph glyph-name="semicolon" unicode="&#x37e;" horiz-adv-x="517" 
d="M479 1038c8.66699 -79.333 9.50098 -139.168 2.50098 -179.501s-52.333 -66 -136 -77s-131 16.5 -142 82.5s-16.667 127.333 -17 184s16.667 94.667 51 114s81.166 23.333 140.499 12s93 -56.666 101 -135.999zM203.001 -276.002c-64 -10 -111.333 31.167 -142 123.5
s-9.83398 192.333 62.499 300s138 156.5 197 146.5s95.833 -29.667 110.5 -59s24.834 -64.5 30.501 -105.5s-15.833 -88 -64.5 -141s-73.667 -86.833 -75 -101.5s-5.5 -43 -12.5 -85s-42.5 -68 -106.5 -78z" />
    <glyph glyph-name="less" unicode="&#x3c;" horiz-adv-x="656" 
d="M406 625c86 -96 135.668 -172.668 149.001 -230.001s5.66602 -98.5 -23.001 -123.5s-55.5 -41.833 -80.5 -50.5s-84.333 18 -178 80s-160.167 117.167 -199.5 165.5s-57.666 92.333 -54.999 132s21.667 77.5 57 113.5l176.5 188
c82.333 89.333 137.833 141.666 166.5 156.999s52.667 19.833 72 13.5s38.166 -18.666 56.499 -36.999s35.5 -46.166 51.5 -83.499s5.5 -83 -31.5 -137s-90.833 -116.667 -161.5 -188z" />
    <glyph glyph-name="equal" unicode="=" horiz-adv-x="974" 
d="M533 1030c216 -1.33301 337.001 -21.3291 363.001 -59.9961s33 -77.834 21 -117.501s-128 -63.334 -348 -71.001s-357.333 -8.83398 -412 -3.50098s-87.334 21.666 -98.001 48.999s-16 59.333 -16 96s27.833 64 83.5 82s191.167 26.333 406.5 25zM856.001 545.004
c0 -86 -98.999 -127.833 -296.999 -125.5s-321 6 -369 11s-71.833 42.667 -71.5 113s56.333 107.5 168 111.5s231.167 2 358.5 -6s197.666 -42.667 210.999 -104z" />
    <glyph glyph-name="greater" unicode="&#x3e;" horiz-adv-x="718" 
d="M662 539c-90 -112 -177.333 -207.169 -262 -285.502s-142 -112.166 -172 -101.499s-54.833 22.667 -74.5 36s-37.167 31 -52.5 53c-50.667 63.333 -62 117.833 -34 163.5s105.333 124.167 232 235.5l-122 218c-57.333 102.667 -66 176 -26 220s84.333 73.5 133 88.5
s130.167 -55.333 244.5 -211s170 -253.667 167 -294s-14.167 -81.166 -33.5 -122.499z" />
    <glyph glyph-name="question" unicode="?" horiz-adv-x="1075" 
d="M489 276c-67.333 -2.66699 -117.166 2.66797 -149.499 16.001s-52.333 48.666 -60 105.999s18.666 134 78.999 230l175 287.5c56.333 95.667 54.833 156.834 -4.5 183.501s-112.333 32.5 -159 17.5s-96.834 -43.333 -150.501 -85s-99.5 -24.834 -137.5 50.499
s-56.5 143.833 -55.5 205.5s57.5 117.167 169.5 166.5s238 71.5 378 66.5s254.667 -60 344 -165s127 -225.833 113 -362.5s-66.167 -243.5 -156.5 -320.5s-151.666 -146.167 -183.999 -207.5l-74 -138.5c-17 -31 -59.5 -47.833 -127.5 -50.5zM590 -211.998
c-58 -13.333 -112 -12.501 -162 2.49902s-89.667 51.167 -119 108.5s-24 122.5 16 195.5s107.833 105.667 203.5 98s157 -46.167 184 -115.5s28 -131.666 3 -186.999s-66.833 -89.333 -125.5 -102z" />
    <glyph glyph-name="at" unicode="@" horiz-adv-x="1881" 
d="M1086 490c-89.333 -68 -164.491 -95.3311 -225.491 -81.998s-124.333 50.166 -190 110.499s-105.834 144 -120.501 251s18.666 208.667 99.999 305s176 147.833 284 154.5s166.5 -32.833 175.5 -118.5s-13.333 -137.167 -67 -154.5s-99.167 -46.833 -136.5 -88.5
s-58.833 -77 -64.5 -106s19.666 -46.833 75.999 -53.5s92 26 107 98s60.333 113.167 136 123.5s116.5 -23.834 122.5 -102.501s33.5 -111.334 82.5 -98.001s84.5 38.666 106.5 75.999s25.667 95 11 173s-60.834 156.833 -138.501 236.5s-199.834 102.5 -366.501 68.5
s-296.834 -100.167 -390.501 -198.5s-134.667 -212.666 -123 -342.999s69.5 -242.5 173.5 -336.5s209.833 -140.5 317.5 -139.5s208.334 11.667 302.001 32s170.667 35.833 231 46.5s107.166 -20.666 140.499 -93.999s55.166 -151.833 65.499 -235.5
s-49.834 -143.5 -180.501 -179.5s-258.834 -56.667 -384.501 -62s-266.334 13.334 -422.001 56.001s-306.167 129 -451.5 259s-215.166 348.5 -209.499 655.5s105 540 298 699s412 242.333 657 250s446 -70.5 603 -234.5s235.5 -338.333 235.5 -523s-37.5 -318 -112.5 -400
s-174.667 -134.333 -299 -157s-238.5 14.666 -342.5 111.999z" />
    <glyph glyph-name="A" unicode="A" horiz-adv-x="1566" 
d="M977 284c-86 5.33301 -192.67 4.99805 -320.003 -1.00195c-11.333 -68.667 -35.666 -140.667 -72.999 -216s-98.166 -121.166 -182.499 -137.499s-164 -11.333 -239 15s-116.167 82 -123.5 167s41.167 259.5 145.5 523.5s212 484.333 323 661s283.833 246.667 518.5 210
c130 -20 219.833 -107.167 269.5 -261.5s100.834 -381.666 153.501 -681.999s67.167 -472.333 43.5 -516s-62 -74.167 -115 -91.5s-130.5 -24.833 -232.5 -22.5s-158 119.5 -168 351.5zM675.997 737.998c-4 -62 66.001 -86.334 210.001 -73.001
c149.333 -5.33301 201 79 155 253c-3.33301 106.667 -45.333 173 -126 199c-90.667 12.667 -170.334 -113.666 -239.001 -378.999z" />
    <glyph glyph-name="B" unicode="B" horiz-adv-x="1322" 
d="M368 1600c138.667 14.667 271.496 10.998 398.496 -11.002s229 -71 306 -147s117.333 -200.667 121 -374s-28.166 -283.666 -95.499 -330.999c89.333 -82.667 142.333 -176.167 159 -280.5s10.5 -230.5 -18.5 -378.5s-160.167 -234.167 -393.5 -258.5
s-414.166 -14.666 -542.499 29.001s-203.666 169.5 -225.999 377.5s-11.666 477.5 32.001 808.5s130.167 519.5 259.5 565.5zM519.996 1248l-13.999 -279c6 -36 44.5 -58.333 115.5 -67s133 2 186 32s79.5 75.5 79.5 136.5s-11.833 112 -35.5 153
s-80.334 66.333 -170.001 76s-143.5 -7.5 -161.5 -51.5zM761.997 559.998l-202 10c-47.333 -6.66699 -74.5 -26.5 -81.5 -59.5s-9.16699 -116.5 -6.5 -250.5c-25.333 -55.333 42 -82.333 202 -81s236.833 58.333 230.5 171s-53.833 182.667 -142.5 210z" />
    <glyph glyph-name="C" unicode="C" horiz-adv-x="1365" 
d="M1241 118c-184 -128.667 -354.333 -194.167 -511 -196.5s-291 43.334 -403 137.001s-190 236.5 -234 428.5s-9.5 410.833 103.5 656.5s267 407 462 484s319.833 104.5 374.5 82.5c70.667 -30.667 120.334 -90.667 149.001 -180c20 -67.333 22 -138.333 6 -213
c-10.667 -30 -26 -56.167 -46 -78.5s-95.667 -57 -227 -104s-234.333 -140.5 -309 -280.5s-107.834 -252.333 -99.501 -337s58.5 -133.334 150.5 -146.001s170 0.333008 234 39s117.667 72.5 161 101.5s96.5 25 159.5 -12s98.833 -81.5 107.5 -133.5
s-17.333 -134.667 -78 -248z" />
    <glyph glyph-name="D" unicode="D" horiz-adv-x="1504" 
d="M1175 -17c-101.333 -69.333 -249.828 -104.332 -445.495 -104.999s-351.834 16.333 -468.501 51s-181.167 120.167 -193.5 256.5s-7.5 359.666 14.5 669.999s46.333 505 73 584s108.667 123.5 246 133.5s299.666 -19 486.999 -87s328.166 -176.667 422.499 -326
s144.166 -308 149.499 -476s-15.334 -309.667 -62.001 -425s-121 -207.333 -223 -276zM510.005 988.001c-53.333 -398.667 -45.998 -609.831 22.002 -633.498s155.667 -35.834 263 -36.501s190.5 25.333 249.5 78s80.667 144.334 65 275.001s-63.334 239.667 -143.001 327
s-174.834 137.166 -285.501 149.499s-167.667 -40.834 -171 -159.501z" />
    <glyph glyph-name="E" unicode="E" horiz-adv-x="1099" 
d="M459 1195c0 -70.667 -3.66992 -156.335 -11.0029 -257.002c196.667 28.667 309 28.167 337 -1.5s44.333 -77 49 -142s1.33398 -124.333 -9.99902 -178s-118.333 -88.5 -321 -104.5c-2 -76 2 -137.667 12 -185c154 19.333 266 30.5 336 33.5s122.5 -38.5 157.5 -124.5
s36.5 -164 4.5 -234s-144.167 -117.667 -336.5 -143s-334.166 -35.166 -425.499 -29.499s-147.333 101.5 -168 287.5s-31 405.167 -31 657.5s11.833 464.833 35.5 637.5s93 262.834 208 270.501s201.833 11.334 260.5 11.001s138.667 -6.83301 240 -19.5
c110 -0.666992 172.833 -38.5 188.5 -113.5s23.834 -136.5 24.501 -184.5s-20.833 -89.167 -64.5 -123.5s-99 -51.833 -166 -52.5s-173.5 -2.33398 -319.5 -5.00098z" />
    <glyph glyph-name="F" unicode="F" horiz-adv-x="1098" 
d="M474 1197l-16.9971 -227.997c99.333 -12.667 178.666 -24 237.999 -34s94 -49.333 104 -118s4.66699 -135.334 -16 -200.001s-125.334 -95.667 -314.001 -93c18.667 -430 -9.66602 -651.667 -84.999 -665s-150 -4.5 -224 26.5s-105.333 195.333 -94 493
s18.333 581.667 21 852s75.667 409.333 219 417s309.666 1.66699 498.999 -18s274.5 -83.334 255.5 -191.001s-55.333 -174.834 -109 -201.501s-212.834 -40 -477.501 -40z" />
    <glyph glyph-name="G" unicode="G" horiz-adv-x="1507" 
d="M1463 585c-8.66699 -208.667 -72.166 -385.832 -190.499 -531.499s-301 -215 -548 -208s-416.333 63.667 -508 170s-144.667 251 -159 434s17.167 379.667 94.5 590s195.666 366.833 354.999 469.5s307.666 152 444.999 148s248.333 -41.5 333 -112.5
s122.5 -137.833 113.5 -200.5s-21.667 -105.834 -38 -129.501s-40.833 -56.834 -73.5 -99.501s-93.167 -55.167 -181.5 -37.5s-175.833 20 -262.5 7s-164.334 -74 -233.001 -183s-110.167 -223.667 -124.5 -344s35.5 -212.5 149.5 -276.5s202.667 -23.667 266 121
c-128.667 -6.66699 -205.167 12.333 -229.5 57s-37.666 103.334 -39.999 176.001s31.334 125.834 101.001 159.501s195.167 47.667 376.5 42s286.333 -22.834 315 -51.501s43 -57.667 43 -87c0 -43.333 -1.33301 -81 -4 -113z" />
    <glyph glyph-name="H" unicode="H" horiz-adv-x="1478" 
d="M1422 1409l-41.0029 -113.006c-3.33301 -26.667 -9.33301 -57.167 -18 -91.5s-18.167 -75.666 -28.5 -123.999s-16.166 -114.666 -17.499 -198.999s-0.333008 -193.833 3 -328.5c0 -84.667 13.833 -164 41.5 -238s50.167 -157.333 67.5 -250
c3.33301 -54.667 -10.167 -86.167 -40.5 -94.5s-59.166 -19.166 -86.499 -32.499c-70.667 -17.333 -148.667 -15.666 -234 5.00098c-6.66699 30.667 -12 60 -16 88s-6 94.167 -6 198.5s-8.83301 192.333 -26.5 264s-225.167 82.834 -622.5 33.501
c-34 -60 -57 -145.167 -69 -255.5s-18 -195.833 -18 -256.5c24 -71.333 22.5 -110.666 -4.5 -117.999s-55.833 -7.33301 -86.5 0c-30.667 -4 -58.5 -5.83301 -83.5 -5.5s-52.833 5.83301 -83.5 16.5c13.333 98 21.5 216.167 24.5 354.5s8 246.333 15 324
s7.33301 147.5 1 209.5s-7.66602 142.833 -3.99902 242.5s8 182.667 13 249l12.5 168.5c-20.667 65.333 -8.16699 98 37.5 98h109.5c27.333 0 61.333 -1.66699 102 -5s55.667 -36 45 -98c-34 -50 -54.5 -128.167 -61.5 -234.5s-10.5 -186.166 -10.5 -239.499l37 -74l286 -21
c246 -19.333 368 -20 366 -2c48 109.333 70.333 227.666 67 354.999c-13.333 74.667 -13.333 143 0 205c83.333 3.33301 162 5 236 5c68.667 31.333 103 33 103 5c0 -10 -3 -23.667 -9 -41z" />
    <glyph glyph-name="I" unicode="I" horiz-adv-x="518" 
d="M405 1280c-15.333 -194 -23 -379.33 -23 -555.997c0 -46.667 1.33301 -104.334 4 -173.001s4 -126.334 4 -173.001c0 -62.667 5.33301 -138 16 -226s-4 -138.333 -44 -151c-44 0 -109.833 -6.16699 -197.5 -18.5s-88.5 55.167 -2.5 202.5
c6.66699 73.333 10 144.666 10 213.999c-3.33301 106.667 -8 188.334 -14 245.001s-9 128.5 -9 215.5s-14.667 190.167 -44 309.5c-60 197.333 -14.333 305.666 137 324.999c170.667 64 225 -7.33301 163 -214z" />
    <glyph glyph-name="J" unicode="J" horiz-adv-x="997" 
d="M956 1230l6.00098 -232c-51.333 -394 -122 -673 -212 -837c-84.667 -142.667 -175 -227.667 -271 -255c-147.333 -24 -271 17.667 -371 125c-65.333 87.333 -96 177.333 -92 270c-4 130 36.333 183 121 159c78 -3.33301 142.333 -14.666 193 -33.999
c10 -123.333 16.167 -212.5 18.5 -267.5s34 -79 95 -72s103.833 174.5 128.5 502.5c10 158.667 10 278 0 358c-7.33301 90 -14.333 201 -21 333c-24.667 126 -25.334 194.167 -2.00098 204.5s76.833 18 160.5 23s141.5 -20.833 173.5 -77.5s56.333 -123.334 73 -200.001z
" />
    <glyph glyph-name="K" unicode="K" horiz-adv-x="1305" 
d="M1048 -138c-91.333 6.66699 -238.999 85.332 -442.999 235.999l-259 246l-16 -355v-150c-58.667 -17.333 -116.334 -24.666 -173.001 -21.999c-56 -3.33301 -77.333 64 -64 202c20.667 162.667 18.667 389.167 -6 679.5s-33.667 523.166 -27 698.499
c6.66699 107.333 31.5 163.333 74.5 168s86.833 10.334 131.5 17.001c66.667 -16.667 103.5 -39.334 110.5 -68.001s13.833 -67.667 20.5 -117c-6.66699 -81.333 -12.334 -176.666 -17.001 -285.999c-18 -118.667 -15 -197.667 9 -237c48.667 50.667 183.667 229 405 535
c88 52.667 173.5 23.167 256.5 -88.5s1.83301 -238.167 -243.5 -379.5c-94 -55.333 -170.333 -126.333 -229 -213c8 -118 53.667 -220.333 137 -307c160.667 -142 283.667 -220 369 -234c138 -48 164.333 -114.667 79 -200c-41.333 -73.333 -79.666 -115 -114.999 -125z" />
    <glyph glyph-name="L" unicode="L" horiz-adv-x="1262" 
d="M1133 10l-349.999 -151.001c-155.333 -42.667 -269.666 -72.667 -342.999 -90c-77.333 -24 -163.166 -34.833 -257.499 -32.5s-122.833 86.833 -85.5 253.5l20 367c14 260.667 33 582.334 57 965.001c10 161.333 33 246.833 69 256.5s83.333 11.167 142 4.5
c59.333 6.66699 102.666 4.33398 129.999 -6.99902s25.666 -72.333 -5.00098 -183c-115.333 -352.667 -132 -756.334 -50 -1211c197.333 -24.667 403.333 34 618 176c48.667 54 88.334 48.667 119.001 -16c25.333 -58 45.666 -133.667 60.999 -227
c-16.667 -36 -58.334 -71 -125.001 -105z" />
    <glyph glyph-name="M" unicode="M" horiz-adv-x="1788" 
d="M1601 -103c-32.667 -3.33301 -62.999 -5.33105 -90.999 -5.99805s-59 100.666 -93 303.999c-54 170 -95.667 312.333 -125 427c-78.667 46 -190 -150.333 -334 -589c-28 -50.667 -65.667 -76 -113 -76c-39.333 0 -70.333 21.333 -93 64c-14.667 28 -28 63.667 -40 107
l-29 111c-44 245.333 -98.333 425 -163 539c-51.333 -213.333 -111.333 -503.666 -180 -870.999c-53.333 -28.667 -106.333 -34.334 -159 -17.001c-36 13.333 -67 23.333 -93 30c-33.333 12.667 -50 50.667 -50 114c23.333 118 54.666 259.667 93.999 425l95 393l98 320
c29.333 147.333 26.666 240.333 -8.00098 279c33.333 62 105 98 215 108c56.667 3.33301 109.334 -9.33398 158.001 -38.001c42.667 -116.667 74 -263 94 -439l64 -227c102 48 179 152 231 312l70 151c-1.33301 96 93.667 112.667 285 50
c10.667 -38 51.5 -165.5 122.5 -382.5s119.667 -412 146 -585s42.833 -300.5 49.5 -382.5c-3.33301 -62 -22.5 -94.333 -57.5 -97s-66.167 -10.667 -93.5 -24z" />
    <glyph glyph-name="N" unicode="N" horiz-adv-x="1648" 
d="M1555 258c3.33301 -59.333 -2 -166.998 -16 -322.998c-41.333 -13.333 -92.333 -21.333 -153 -24c-118 -28 -207.667 41.333 -269 208c-172.667 199.333 -416 420.666 -730 663.999c2 -142 1.5 -265.667 -1.5 -371s3.83301 -205 20.5 -299
c61.333 -168.667 13.333 -251.334 -144 -248.001c-57.333 3.33301 -106.666 11.666 -147.999 24.999c-43.333 64.667 -61.666 120.5 -54.999 167.5s12.167 90.333 16.5 130s10.166 82.167 17.499 127.5c6.66699 61.333 9.5 123 8.5 185s0.5 117 4.5 165
c0 54 3.16699 121.333 9.5 202s9.5 143 9.5 187c0 42 -4 104.5 -12 187.5s-12 145.5 -12 187.5c-24 105.333 -24.333 163.833 -1 175.5s68.333 22.834 135 33.501c123.333 26.667 209.666 -20.666 258.999 -141.999c138.667 -272.667 301.334 -479.334 488.001 -620.001
c124 -138 185.167 -175.167 183.5 -111.5s1.5 163.5 9.5 299.5c-9.33301 116 -17.833 198.5 -25.5 247.5s2.16602 95 29.499 138s105.333 67 234 72s179.667 -202.167 153 -621.5c-3.33301 -84 -6 -177.5 -8 -280.5s-3 -223.5 -3 -361.5z" />
    <glyph glyph-name="O" unicode="O" horiz-adv-x="1709" 
d="M966 -67c-321.333 -32 -554.333 27.333 -699 178s-219.167 342.5 -223.5 575.5s54 441.667 175 626s277.667 290.833 470 319.5s355.833 23.834 490.5 -14.499s249.5 -121.5 344.5 -249.5s143 -298.833 144 -512.5s-35.167 -412.834 -108.5 -597.501s-271 -293 -593 -325
zM732 1184c-162 -25.333 -249.832 -144.169 -263.499 -356.502s33.666 -344.666 141.999 -396.999s212 -78.333 311 -78s181.333 28.333 247 84s112 160.667 139 315s-21.667 271.333 -146 351s-267.5 106.834 -429.5 81.501z" />
    <glyph glyph-name="P" unicode="P" horiz-adv-x="1180" 
d="M400 363c30 -248 37.6709 -374.5 23.0039 -379.5s-74 -7.5 -178 -7.5c-26.667 0 -52 0.833008 -76 2.5s-60 7.16699 -108 16.5l15 268c-10.667 142 -12.834 296.333 -6.50098 463s5 325.667 -4 477s16.667 256.666 77 315.999s127.166 88.333 200.499 87
c38 3.33301 69.167 5 93.5 5s70.166 -5 137.499 -15c98.667 -16.667 209.667 -61.667 333 -135c110.667 -75.333 181 -191 211 -347c30 -188.667 23.5 -329.5 -19.5 -422.5s-109.333 -164.667 -199 -215s-184.334 -81.666 -284.001 -93.999s-171.5 -18.833 -215.5 -19.5z
M568.004 1363c-124.667 9.33301 -195.165 -49.667 -211.498 -177s-10.833 -261.833 16.5 -403.5s128.666 -190.667 303.999 -147s261.5 141.167 258.5 292.5s-33.833 259.333 -92.5 324s-150.334 101.667 -275.001 111z" />
    <glyph glyph-name="Q" unicode="Q" horiz-adv-x="1769" 
d="M1096 -176l-73.998 86c-11.333 -17.333 -72.333 -26 -183 -26c-200.667 0 -385.334 76 -554.001 228s-251 337 -247 555c4 242 74.333 456.333 211 643c202 212.667 441.667 304 719 274c245.333 -46 432.333 -162.333 561 -349c138 -152 192.667 -359 164 -621
c0 -220.667 -108 -406.334 -324 -557.001c53.333 -97.333 50.666 -170 -8.00098 -218s-106.5 -76.667 -143.5 -86s-77.5 14.334 -121.5 71.001zM889.002 1180c-80.667 12 -193.333 -45.001 -338 -171.001c-124 -153.333 -185 -287.166 -183 -401.499
s45.333 -220.5 130 -318.5c117.333 -95.333 216 -150.166 296 -164.499s110.167 -3.83301 90.5 31.5s-18.167 68.166 4.5 98.499s48.834 55.166 78.501 74.499s60.167 34.333 91.5 45s59.5 0.666992 84.5 -30s56.833 -58 95.5 -82
c128.667 74.667 201.167 189.334 217.5 344.001s-19.834 299.667 -108.501 435c-120 108.667 -273 155 -459 139z" />
    <glyph glyph-name="R" unicode="R" horiz-adv-x="1295" 
d="M738 84c-128 97.333 -241.666 196.664 -340.999 297.997l-7 -117l5 -197c0 -29.333 -9.5 -53.833 -28.5 -73.5s-52.833 -29.5 -101.5 -29.5c-90.667 6.66699 -149.667 8.33398 -177 5.00098s-33.666 105.167 -18.999 325.5s27.167 419.833 37.5 598.5
s14.833 350.334 13.5 515.001c-7.33301 120.667 65.334 176 218.001 166l226 -28c101.333 -11.333 188.333 -32.333 261 -63c292.667 -149.333 431 -335.666 415 -558.999c9.33301 -104.667 -25.334 -202.667 -104.001 -294c-90.667 -72 -202.667 -111.333 -336 -118
c207.333 -111.333 319.666 -179.333 336.999 -204s20.333 -59 9 -103s-38.833 -101 -82.5 -171s-81.834 -98.5 -114.501 -85.5s-103 57.833 -211 134.5zM552.001 1311l-94 -28.001l-44 -81c4.66699 -49.333 7 -89.666 7 -120.999c0 -53.333 -4.33301 -119.666 -13 -198.999
l-1 -86c-4 -75.333 3.83301 -113.333 23.5 -114s34.5 -1 44.5 -1c163.333 32.667 268.166 58.167 314.499 76.5s83.833 43.5 112.5 75.5s43.834 83.5 45.501 154.5s-28.833 136.5 -91.5 196.5c-96.667 73.333 -198 115.666 -304 126.999z" />
    <glyph glyph-name="S" unicode="S" horiz-adv-x="1401" 
d="M130 149c-41.333 69.333 -68.8359 131.831 -82.5029 187.498s28.5 110.5 126.5 164.5c112 66.667 204.333 97.334 277 92.001c18 -171.333 52.5 -274 103.5 -308s114.333 -47.167 190 -39.5s141 38.667 196 93s72.167 90.666 51.5 108.999s-72.667 33.5 -156 45.5
s-149.166 33.333 -197.499 64s-125.5 67.334 -231.5 110.001c-120 88.667 -172 197.334 -156 326.001c-19.333 118.667 16.334 232 107.001 340c122 96 278.667 150.333 470 163c109.333 2.66699 209.333 -10 300 -38c155.333 -41.333 162 -212.666 20 -513.999
c-45.333 -30.667 -134.333 -11.334 -267 57.999c-39.333 16 -35.166 63.833 12.501 143.5s37.167 127.167 -31.5 142.5c-75.333 -8 -151 -40 -227 -96c-46 -52 -65.667 -108 -59 -168c12.667 -52.667 46 -95 100 -127c36.667 -8.66699 107.667 -16.667 213 -24
c152.667 -11.333 272 -59.333 358 -144c78.667 -77.333 118 -171.666 118 -282.999c0 -158.667 -73.333 -285.334 -220 -380.001c-127.333 -82 -256 -140.333 -386 -175c-112.667 -16 -248 -4 -406 36c-108 70 -182.333 144 -223 222z" />
    <glyph glyph-name="T" unicode="T" horiz-adv-x="1260" 
d="M1081 1275c-100 7.33301 -176.001 10.666 -228.001 9.99902c-4 -101.333 -8.66699 -249.5 -14 -444.5s3 -329.833 25 -404.5c0 -52 3.16699 -100.167 9.5 -144.5s7.83301 -83.166 4.5 -116.499c32 -178.667 21.667 -287.667 -31 -327c3.33301 4 -32 -0.333008 -106 -13
c-36.667 0 -76.667 7.66699 -120 23s-68.333 52 -75 110l10 62c-3.33301 45.333 -10.333 97.5 -21 156.5s-11 133.5 -1 223.5c2.66699 111.333 0.166992 219.5 -7.5 324.5s-9.5 263.167 -5.5 474.5c-254 -60.667 -414.667 -59.667 -482 3
c-3.33301 68 -9.66602 123.333 -18.999 166c3.33301 36.667 12 68.667 26 96c42 45.333 82 65.333 120 60c39.333 8 110 11.333 212 10s221 -7.5 357 -18.5s290.667 -14.167 464 -9.5c24 -168.667 -15.333 -249 -118 -241z" />
    <glyph glyph-name="U" unicode="U" horiz-adv-x="1465" 
d="M197 47c-67.333 102.667 -103.333 230.331 -108 382.998c-26 146 -34.333 353.667 -25 623c-3.33301 83.333 -6.33301 163.333 -9 240c-5.33301 70.667 -2.66602 142 8.00098 214c62 22.667 135.667 29.334 221 20.001c61.333 3.33301 87.333 -70.667 78 -222l24 -558
c-42 -407.333 59 -564.333 303 -471c99.333 52.667 168.5 117 207.5 193s30.5 195 -25.5 357c-86 193.333 -148.333 324 -187 392s72.666 128.667 333.999 182c57.333 -37.333 101 -107.666 131 -210.999l101 -297c128.667 -598.667 16.5 -922.167 -336.5 -970.5
s-591.833 -6.5 -716.5 125.5z" />
    <glyph glyph-name="V" unicode="V" horiz-adv-x="1366" 
d="M1302 1381c-18 -72 -63.332 -197.333 -135.999 -376l-122 -315l-183 -450c-31.333 -75.333 -71.333 -165.333 -120 -270l-196 -90c-98.667 -10 -161.667 52.667 -189 188c-110.667 589.333 -188.5 951.333 -233.5 1086s-75.833 236.667 -92.5 306
c3.33301 23.333 17.333 48 42 74c36 14.667 71 23.667 105 27c98 54 161 21.667 189 -97c116 -392 175.667 -662.667 179 -812c176 114.667 325.667 402.334 449 863.001c26 43.333 54 66.666 84 69.999s64.667 -1.66699 104 -15s76.666 -33.833 111.999 -61.5
s38 -70.167 8 -127.5z" />
    <glyph glyph-name="W" unicode="W" horiz-adv-x="1974" 
d="M1322 -131c-148 -3.33301 -226.998 22.9951 -236.998 78.9951c-24 358.667 -53.333 553.334 -88 584.001c-84.667 -184.667 -172 -347 -262 -487c-6.66699 -30 -23.334 -54.667 -50.001 -74c-24 -18 -51.333 -27 -82 -27c-198 -50.667 -292 10 -282 182
c-92.667 512.667 -176 928.334 -250 1247c-22 28 -22.667 63.333 -2 106c20 31.333 65 47 135 47c117.333 30.667 174.333 10.334 171 -60.999c18.667 -34 31 -103 37 -207c26 -124 53.667 -272.667 83 -446l92 -239c74.667 30 156 108 244 234
c58.667 125.333 118 184.5 178 177.5s114.167 -17.167 162.5 -30.5s91.833 -64 130.5 -152l17 -196l20 -231c42 116.667 86.667 275.334 134 476.001c82 370 162.667 547.333 242 532s156.666 -61.333 231.999 -138l-315 -928
c-27.333 -79.333 -74.333 -194.666 -141 -345.999c-24 -44.667 -80.333 -78.667 -169 -102z" />
    <glyph glyph-name="X" unicode="X" horiz-adv-x="1592" 
d="M1494 1204c-42.667 -71.333 -98.002 -145.333 -166.002 -222l-125 -149l-72 -122c84 -187.333 183.333 -358 298 -512c1.33301 -68.667 -58.5 -131.167 -179.5 -187.5s-191.5 -69.833 -211.5 -40.5l-201 332l-204 -198c-174.667 -182.667 -283.667 -264 -327 -244
c-50.667 0 -89.667 12 -117 36s-57.666 53.333 -90.999 88c-43.333 67.333 13.667 180 171 338l325 401c-43.333 68 -93.333 140.333 -150 217c-123.333 139.333 -208.333 247.333 -255 324c-34.667 46.667 -38.667 95.334 -12 146.001c20 37.333 43.833 67.5 71.5 90.5
s59.167 44.5 94.5 64.5c46.667 13.333 93.834 -2 141.501 -46s106.167 -111.667 175.5 -203c56 -67.333 118.333 -135 187 -203l296 422c57.333 33.333 120.5 25.5 189.5 -23.5s133.5 -99.167 193.5 -150.5c26.667 -46.667 16 -99.334 -32 -158.001z" />
    <glyph glyph-name="Y" unicode="Y" horiz-adv-x="1302" 
d="M598 -82c-16 -45.333 -131.335 -54.002 -346.002 -26.002c-53.333 32.667 -28.666 146.667 74.001 342l152 360c10 18 -22.333 76 -97 174c-93.333 105.333 -177.333 227 -252 365s-71 233.167 11 285.5s149.667 62.5 203 30.5l312 -455
c22.667 -39.333 125 138.334 307 533.001c45.333 88.667 99.666 104.667 162.999 48c43.333 -20 81.333 -42.667 114 -68s39.834 -59.666 21.501 -102.999s-95.666 -204.333 -231.999 -483s-279.833 -613 -430.5 -1003z" />
    <glyph glyph-name="Z" unicode="Z" horiz-adv-x="1481" 
d="M1308 1208l-145 -103.001c-98.667 -122.667 -221.334 -294 -368.001 -514l-152 -143c248.667 88.667 413.334 148.5 494.001 179.5s139 36.167 175 15.5c33.333 -188.667 56.333 -336 69 -442c7.33301 -74 -21 -109 -85 -105s-155.833 10.5 -275.5 19.5
s-302.834 -25.667 -549.501 -104s-375.667 -74.833 -387 10.5c-34.667 81.333 -19.667 158 45 230l164 188l54 57l273 370c51.333 89.333 134.333 195 249 317c-269.333 -62.667 -520.666 -67 -753.999 -13c-32 84 -40.667 155.333 -26 214s40 95.334 76 110.001
c22 9.33301 58.333 14 109 14c46 0 114.5 -4.83301 205.5 -14.5s159.5 -14.5 205.5 -14.5c51.333 0 128.166 3.33301 230.499 10s179.5 10 231.5 10c207.333 29.333 299.333 -3 276 -97c16.667 -106 -21.666 -171 -114.999 -195z" />
    <glyph glyph-name="bracketleft" unicode="[" horiz-adv-x="756" 
d="M418 -412c-14.667 0 -36.999 -0.834961 -66.999 -2.50195s-109 -6.5 -237 -14.5c-22 -20 -32 74.333 -30 283s13.333 378.834 34 510.501s10 373.167 -32 724.5c-28.667 252.667 -41.5 401.834 -38.5 447.501s80.167 64.5 231.5 56.5c68.667 4 117 9.16699 145 15.5
s62.333 5.5 103 -2.5c56.667 -4 91.5 -9.33301 104.5 -16l92.5 -46c-2.66699 -60.667 -12.334 -119 -29.001 -175c-8 -92 -47 -130.5 -117 -115.5s-144.667 18.167 -224 9.5c4 -20 23 -82.667 57 -188l29 -595l-79 -592l75 27c43.333 0 82.5 -6.83301 117.5 -20.5
s54.833 -33 59.5 -58s11 -83.167 19 -174.5c-0.666992 -50.667 -16.167 -76.5 -46.5 -77.5s-61 -0.666992 -92 1s-56.167 2.5 -75.5 2.5z" />
    <glyph glyph-name="backslash" unicode="\" horiz-adv-x="989" 
d="M770 -277c-81.333 -20.667 -124.998 12.332 -130.998 98.999c-12 132 -68.667 368 -170 708s-245 618 -431 834c-21.333 36.667 -9.33301 71.667 36 105c58.667 60.667 105.667 101.5 141 122.5s79.666 26.167 132.999 15.5c30 -34.667 53.667 -72.334 71 -113.001
c62 -114 121.667 -282 179 -504l205 -515c54 -192 97 -334.333 129 -427c25.333 -68 39.333 -133.667 42 -197c-14 -29.333 -30.333 -53.666 -49 -72.999s-70.334 -37.666 -155.001 -54.999z" />
    <glyph glyph-name="bracketright" unicode="]" horiz-adv-x="808" 
d="M338 -273c-85.333 -3.33301 -147.171 -3.5 -185.504 -0.5s-53.666 19.833 -45.999 50.5s8.83398 88.834 3.50098 174.501s4.33398 133.167 29.001 142.5s58.667 4 102 -16l215 -14l-37 398l-13 335l39 315c-63.333 12 -135.166 11.667 -215.499 -1
s-134.5 77.333 -162.5 270c-16.667 56 -26.334 114.333 -29.001 175l92.5 46c13 6.66699 47.833 12 104.5 16c40.667 8 75 8.83301 103 2.5s76.333 -11.5 145 -15.5c151.333 8 228.5 -10.833 231.5 -56.5s11.167 -210.5 24.5 -494.5s16 -566.833 8 -848.5
s-43 -458.834 -105 -531.501c-71.333 16 -126.166 24.833 -164.499 26.5s-84.833 10.5 -139.5 26.5z" />
    <glyph glyph-name="asciicircum" unicode="^" horiz-adv-x="878" 
d="M475 1682c36 -24 82.834 -62.834 140.501 -116.501s112.667 -113 165 -178s71.166 -115.833 56.499 -152.5c-76.667 -75.333 -138 -81.666 -184 -18.999c-78.667 80 -133.667 131.667 -165 155l-307 -233c-30.667 -22 -55 -25.667 -73 -11s-34.667 34 -50 58
c-19.333 29.333 -22.666 59.333 -9.99902 90c50.667 114.667 119.667 213 207 295s160.666 119.333 219.999 112z" />
    <glyph glyph-name="underscore" unicode="_" horiz-adv-x="1653" 
d="M137 -348c-18.667 -5.33301 -39.667 34.3311 -63 118.998s-5.33301 146.334 54 185.001c9.33301 28 119 46.833 329 56.5s456.333 -0.166016 739 -29.499s392 -118.333 328 -267c8 -67.333 -110.167 -107.333 -354.5 -120s-588.5 6 -1032.5 56z" />
    <glyph glyph-name="grave" unicode="`" horiz-adv-x="582" 
d="M534 1252c-12.667 -19.333 -29.667 -37.334 -51 -54.001s-46 -29 -74 -37c-26.667 -6.66699 -59 16.666 -97 69.999l-81 130c-36 64 -72.667 109.333 -110 136c-74.667 23.333 -96.667 53.666 -66 90.999c14.667 18.667 32 39.334 52 62.001s41.333 34.334 64 35.001
c80.667 -11.333 160.667 -63.666 240 -156.999c100 -156.667 141 -248.667 123 -276z" />
    <glyph glyph-name="a" unicode="a" horiz-adv-x="1123" 
d="M977 -129c-66 -45.333 -126.331 -18.668 -180.998 79.999c-78.667 -54 -146.5 -80.167 -203.5 -78.5s-124.833 14.334 -203.5 38.001s-159.667 72.167 -243 145.5c-76 88 -110.667 219.667 -104 395c14 166 76.5 306.333 187.5 421s243.5 172 397.5 172
c58 0 123 -15 195 -45c49.333 -22.667 85.833 -50.5 109.5 -83.5s37.167 -65.167 40.5 -96.5s8.66602 -74.333 15.999 -129s8.16602 -125.334 2.49902 -212.001s-3.5 -155.167 6.5 -205.5s20.5 -97.666 31.5 -141.999s29.833 -88.5 56.5 -132.5
c-2.66699 -30.667 -11.5 -53.5 -26.5 -68.5s-42.167 -34.5 -81.5 -58.5zM557.002 789.998c-98 -41.333 -161.17 -85.1641 -189.503 -131.497s-48.666 -122.833 -60.999 -229.5s15.834 -181.834 84.501 -225.501s167.334 -47.834 296.001 -12.501
c31.333 29.333 51 67.333 59 114c24.667 128 37.167 217.5 37.5 268.5s-2.16699 88.333 -7.5 112s-24.333 48.167 -57 73.5s-86.667 35.666 -162 30.999z" />
    <glyph glyph-name="b" unicode="b" horiz-adv-x="1132" 
d="M589 -77c-95.333 -6.66699 -186.332 -3.66211 -272.999 9.00488c-34.667 5.33301 -70.667 11.333 -108 18c-56 6.66699 -88.5 19.667 -97.5 39s-21.167 74.666 -36.5 165.999s-18.5 343.666 -9.5 756.999s30.167 636 63.5 668c42 16.667 80.667 26.667 116 30
c87.333 -6.66699 119 -47.334 95 -122.001c-3.33301 -16 -4.33301 -116.333 -3 -301l13 -195c28 26 67.333 53.167 118 81.5s133.5 34 248.5 17s208.5 -83.833 280.5 -200.5c80.667 -106.667 121 -235.334 121 -386.001c0 -165.333 -49.833 -304.333 -149.5 -417
s-225.834 -167.334 -378.501 -164.001zM489.001 800.005c-41.333 -25.333 -77.334 -61.667 -108.001 -109l-53 -143c6.66699 -140.667 42.334 -256 107.001 -346c61.333 -19.333 128 -27.333 200 -24c86 20.667 147.5 55.667 184.5 105s58.833 121.333 65.5 216
c-3.33301 76 -23.333 147.333 -60 214c-57.333 61.333 -120.833 101.333 -190.5 120s-118.167 7.66699 -145.5 -33z" />
    <glyph glyph-name="c" unicode="c" horiz-adv-x="1060" 
d="M593 -81c-129.333 -9.33301 -243.333 26.3311 -342 106.998c-114.667 79.333 -182.667 199.333 -204 360c-9.33301 86 -3 176.667 19 272c60 202 150 339.333 270 412s273 68 459 -14c107.333 -46.667 178.333 -107.667 213 -183
c-6.66699 -30 -18.334 -59.5 -35.001 -88.5s-49 -49.5 -97 -61.5c-40.667 16.667 -82.167 37.834 -124.5 63.501s-98.5 46.834 -168.5 63.501s-138.333 -35.666 -205 -156.999c-44 -94.667 -66 -180.334 -66 -257.001s13.333 -145 40 -205
c72.667 -70.667 149.334 -103.667 230.001 -99c42.667 7.33301 85.334 24 128.001 50l95 51c22.667 20 49 33.667 79 41l60 -68.5c18 -19.667 38.167 -38 60.5 -55s-16.834 -68.167 -117.501 -153.5c-92 -52 -190 -78 -294 -78z" />
    <glyph glyph-name="d" unicode="d" horiz-adv-x="1143" 
d="M1034 86c1.33301 -9.33301 1.99902 -17.001 1.99902 -23.001c0 -26.667 -9.33301 -48.667 -28 -66s-40.334 -26 -65.001 -26c-41.333 0 -77.166 -3.16699 -107.499 -9.5s-70.5 -15.166 -120.5 -26.499s-108 -11.666 -174 -0.999023
c-141.333 -7.33301 -259 38.667 -353 138c-104 97.333 -157.667 218 -161 362c-10 167.333 35.5 319.166 136.5 455.499s218.833 202.833 353.5 199.5s237 -16 307 -38c20 205.333 24.333 377 13 515c32.667 59.333 78.334 79 137.001 59c81.333 -7.33301 115 -50 101 -128
c0 -92.667 -3.5 -243.5 -10.5 -452.5s-14.667 -393.5 -23 -553.5s-10.833 -295 -7.5 -405zM545.999 162.999c107.333 -2.66699 179.667 18.334 217 63.001c30.667 29.333 49 62 55 98l2 137l1 116l2 118c-25.333 54 -59 85.167 -101 93.5s-94.5 9 -157.5 2
s-123.5 -31.667 -181.5 -74s-94.667 -118.333 -110 -228s4.16699 -187.834 58.5 -234.501s125.833 -77 214.5 -91z" />
    <glyph glyph-name="e" unicode="e" horiz-adv-x="1184" 
d="M579 -70c-173.333 2.66699 -300 41.666 -380 116.999c-86 96.667 -139.333 221 -160 373c4.66699 171.333 52.334 321.333 143.001 450c84.667 121.333 211.334 186.333 380.001 195c135.333 9.33301 236 -13.667 302 -69c108.667 -50.667 173 -151 193 -301
c11.333 -69.333 -12.667 -129 -72 -179c-262.667 -175.333 -463 -234 -601 -176c-7.33301 -94 58.667 -152 198 -174c71.333 0 136.666 14 195.999 42l131.5 112.5c29.667 25.667 62.167 32.834 97.5 21.501c25.333 -22.667 44.833 -43.5 58.5 -62.5
s25.167 -41.167 34.5 -66.5c36.667 -42 -34.333 -112.333 -213 -211c-106.667 -45.333 -209.334 -69.333 -308.001 -72zM586 548.999c225.333 59.333 313.333 126.833 264 202.5s-130.5 95.834 -243.5 60.501s-199.167 -87.833 -258.5 -157.5s20 -104.834 238 -105.501z" />
    <glyph glyph-name="f" unicode="f" horiz-adv-x="792" 
d="M586 1346c-95.333 -18.667 -146.33 -115.001 -152.997 -289.001c69.333 -6.66699 139 -8 209 -4c91.333 10.667 133.333 -37.333 126 -144c-7.33301 -66.667 -44.333 -104.667 -111 -114c-29.333 6.66699 -61 7.83398 -95 3.50098s-85.667 -11.5 -155 -21.5
c-14.667 -333.333 -22.834 -547.333 -24.501 -642s-9.83398 -192 -24.501 -292c-36.667 -2 -80.334 -3 -131.001 -3c-27.333 0 -58 -1.16699 -92 -3.5s-45.333 35.167 -34 112.5c11.333 89.333 17 197.666 17 324.999l14 295l5 175
c-72.667 0.666992 -107.667 46.334 -105 137.001l21 71l107 41c2 37.333 7 88 15 152c17.333 148 46.666 276.167 87.999 384.5s159.333 151.5 354 129.5c106.667 0 152.667 -52.333 138 -157c14.667 -118.667 -41.666 -170.667 -168.999 -156z" />
    <glyph glyph-name="g" unicode="g" horiz-adv-x="1161" 
d="M1040 80c-14 -136.667 -32.6699 -249.001 -56.0029 -337.001c-30 -131.333 -71 -198.333 -123 -201c-131.333 -55.333 -249.166 -77 -353.499 -65s-208.833 35.667 -313.5 71s-144.667 84.333 -120 147c-16.667 67.333 36.333 134 159 200
c83.333 -36 143 -63.167 179 -81.5s89.333 -28.833 160 -31.5c90.667 -9.33301 144.334 7.33398 161.001 50.001s24.334 102 23.001 178c-54 -56.667 -140.5 -79.167 -259.5 -67.5s-217.167 59.5 -294.5 143.5s-121 195 -131 333c-3.33301 180 43.334 331.667 140.001 455
c74 123.333 198 188.333 372 195c114.667 -6.66699 190.5 -15.5 227.5 -26.5s93.167 -29.167 168.5 -54.5c94.667 -32 133.667 -91.667 117 -179c-2.66699 -218.667 -21.334 -461.667 -56.001 -729zM567.997 813.999c-54 -13.333 -100.667 -45.332 -140 -95.999
c-65.333 -78.667 -96.333 -177 -93 -295c-3.33301 -70 13.334 -124.333 50.001 -163s91.667 -61.334 165 -68.001c199.333 16.667 302.333 135.667 309 357c-4 94 -38.333 164.167 -103 210.5s-127.334 64.5 -188.001 54.5z" />
    <glyph glyph-name="h" unicode="h" horiz-adv-x="1107" 
d="M805 242c2 58.667 1.16504 114.171 -2.50195 166.504s-3.5 130.5 0.5 234.5c-28 52.667 -65 84.167 -111 94.5s-104 3.16602 -174 -21.501c-75.333 -60 -109.666 -151.833 -102.999 -275.5s-16.333 -257.167 -69 -400.5c-18.667 -41.333 -47.667 -62 -87 -62
c-27.333 -10.667 -69.666 -12.667 -126.999 -6s-81 44 -71 112c19.333 414 36.833 729.333 52.5 946s22 339.167 19 367.5s-7.16699 72.666 -12.5 132.999s1 92.5 19 96.5s61.667 16.333 131 37c100.667 18 152 -20 154 -114c3.33301 -71.333 8.83301 -140 16.5 -206
s12.167 -172 13.5 -318c-11.333 -51.333 16.834 -59.666 84.501 -24.999s143.5 53.667 227.5 57c131.333 -10.667 212.333 -53.667 243 -129c29.333 -50.667 44.333 -132.334 45 -245.001l3 -212c19.333 -112.667 30.333 -221.334 33 -326.001
c-0.666992 -66.667 -56.334 -100.334 -167.001 -101.001s-150 65 -118 197z" />
    <glyph glyph-name="i" unicode="i" horiz-adv-x="424" 
d="M251 1266c-32 0 -61.168 5.83398 -87.501 17.501s-54.5 32.667 -84.5 63s-27.833 81.166 6.5 152.499s86.333 100 156 86s111.334 -43.333 125.001 -88s14.167 -83 1.5 -115c0 -32 -11.5 -59.333 -34.5 -82s-50.5 -34 -82.5 -34zM335.999 90.001
c6 -57.333 -2.3291 -90.6689 -24.9961 -100.002s-50.334 -15.333 -83.001 -18c-44 2.66699 -79.833 7.16699 -107.5 13.5s-38.5 41.166 -32.5 104.499c0 65.333 -3.5 133.833 -10.5 205.5s-9.66699 141.834 -8 210.501s-3.5 223.334 -15.5 464.001
c0.666992 102 20.167 151.333 58.5 148s84.5 -19 138.5 -47c50.667 -3.33301 85.167 -14.166 103.5 -32.499s25.166 -61.833 20.499 -130.5s-10.334 -145 -17.001 -229s-10 -160.333 -10 -229s-1.33301 -134.167 -4 -196.5s-5.33398 -116.833 -8.00098 -163.5z" />
    <glyph glyph-name="j" unicode="j" horiz-adv-x="968" 
d="M597 1678c120 -46.667 193.833 -96.333 221.5 -149s26.167 -104.167 -4.5 -154.5s-59.834 -89 -87.501 -116s-65.667 -40.5 -114 -40.5s-91.5 12.333 -129.5 37s-68.5 66 -91.5 124s-19.667 113.167 10 165.5s94.834 96.833 195.501 133.5zM493 920.001
c68 101.333 149.332 152.331 243.999 152.998s147 -57.666 157 -174.999l13 -504l8 -655c4.66699 -202 -33.833 -317.167 -115.5 -345.5s-174.5 -42.5 -278.5 -42.5c-339.333 43.333 -472.666 228.333 -399.999 555c80 57.333 142.333 88 187 92s73.667 -8.16699 87 -36.5
s26 -68.666 38 -120.999s52.333 -74.833 121 -67.5s91 96.833 67 268.5l-66 460z" />
    <glyph glyph-name="k" unicode="k" horiz-adv-x="1181" 
d="M784 125c-48.667 91.333 -127.667 224.001 -237 398.001c-21.333 -48 -47 -96.333 -77 -145c-58.667 -110 -88 -214 -88 -312c0 -30 -9.16699 -54.333 -27.5 -73s-40.166 -33 -65.499 -43c-67.333 -10.667 -123.333 2 -168 38c-50.667 583.333 -56 998.666 -16 1246
s70.833 382 92.5 404s72.5 29.667 152.5 23c80 -17.333 129.167 -35.333 147.5 -54s23.833 -72.167 16.5 -160.5s-31 -298.5 -71 -630.5l356 266c106 76.667 177 105.667 213 87s59.333 -44.334 70 -77.001s21.334 -74.667 32.001 -126
c35.333 -48 -60.334 -149.333 -287.001 -304c70 -176.667 140.667 -330.334 212 -461.001c38 -44 43 -84.167 15 -120.5s-67.333 -65.666 -118 -87.999s-101.334 21.834 -152.001 132.501z" />
    <glyph glyph-name="l" unicode="l" horiz-adv-x="404" 
d="M325 786c14 -384 20.6641 -624.168 19.9971 -720.501s-34 -149.833 -100 -160.5c-86 -3.33301 -151.333 8.33398 -196 35.001c7.33301 146 10.333 345.5 9 598.5s1.33398 571.5 8.00098 955.5c-3.33301 100.667 53.334 144 170.001 130
c80 -3.33301 121.667 -43.333 125 -120c-3.33301 -102 -10.166 -220.833 -20.499 -356.5s-15.5 -256.167 -15.5 -361.5z" />
    <glyph glyph-name="m" unicode="m" horiz-adv-x="1495" 
d="M1282 -106c-100.667 -5.33301 -151.997 7.00293 -153.997 37.0029c-6.66699 52.667 -9.66699 148.334 -9 287.001l16 367c32 146.667 4 209.667 -84 189c-61.333 -14.667 -98.5 -48.834 -111.5 -102.501s-16.167 -111.5 -9.5 -173.5
c24.667 -191.333 24.334 -336.666 -0.999023 -435.999c-4.66699 -88.667 -69.667 -126.334 -195 -113.001c-54 0 -93.333 7 -118 21s-32.5 39.5 -23.5 76.5s17 104.167 24 201.5s7.5 197.666 1.5 300.999c-10 73.333 -64.667 118.333 -164 135
c-60.667 -6.66699 -94.334 -39.334 -101.001 -98.001s-7.83398 -126.334 -3.50098 -203.001s8.33301 -140.334 12 -191.001s3 -106 -2 -166s-13.833 -92.333 -26.5 -97s-44.334 -7 -95.001 -7c-103.333 -18 -150.5 32.333 -141.5 151s12.5 223 10.5 313
s-2.16699 178.667 -0.5 266s-5.16602 163 -20.499 227c-26 174.667 19.333 260.667 136 258c85.333 5.33301 134.666 -48.667 147.999 -162c65.333 70 154.666 101.167 267.999 93.5s185.666 -36.5 216.999 -86.5c88.667 46 180.334 78 275.001 96
c188 -10.667 285.667 -79.667 293 -207c16 -29.333 18 -129.666 6 -300.999c-14.667 -222 -20.167 -392.833 -16.5 -512.5s-39.833 -174.167 -130.5 -163.5z" />
    <glyph glyph-name="n" unicode="n" horiz-adv-x="1032" 
d="M772 -89c-76.667 0 -110.334 16.665 -101.001 49.998l12 179c14.667 107.333 24.5 188.166 29.5 242.499s9.83301 92.333 14.5 114s-3.83301 48.834 -25.5 81.501s-58 56.334 -109 71.001s-94.667 -1.16602 -131 -47.499s-62.5 -95.166 -78.5 -146.499
s-27.667 -146.5 -35 -285.5s-16.5 -217.333 -27.5 -235s-38.167 -27.5 -81.5 -29.5c-41.333 -2.66699 -83.666 -4.33398 -126.999 -5.00098s-57.833 25.5 -43.5 78.5s23 174.5 26 364.5s5.83301 415.333 8.5 676c-4.66699 72.667 4.83301 110.167 28.5 112.5
s61.5 8.5 113.5 18.5c112 2.66699 165.333 -37 160 -119c62.667 25.333 153 38 271 38c106.667 0 192 -43.333 256 -130c36 -74.667 52.667 -168.667 50 -282l-3 -112l-9 -96c-4.66699 -62.667 -4 -133 2 -211s2.66699 -180.667 -10 -308c-52 -20 -115.333 -26.333 -190 -19
z" />
    <glyph glyph-name="o" unicode="o" horiz-adv-x="1027" 
d="M546 -99c-132 6.66699 -255.667 49.999 -371 129.999c-87.333 94.667 -133.333 227.667 -138 399c0.666992 159.333 38.667 295.333 114 408c104.667 160.667 246 228.334 424 203.001c133.333 0 241.333 -56.333 324 -169c58.667 -103.333 87 -224.333 85 -363
c2.66699 -157.333 -28 -288.333 -92 -393c-66.667 -123.333 -182 -195 -346 -215zM306 400.999c-10 -73.333 7.99805 -136 53.998 -188c44 -32.667 92.333 -45.667 145 -39c66.667 6.66699 128.667 36.334 186 89.001c52 38 84 119.667 96 245
c-29.333 138.667 -94.166 207 -194.499 205s-172.166 -34.833 -215.499 -98.5s-67 -134.834 -71 -213.501z" />
    <glyph glyph-name="p" unicode="p" horiz-adv-x="1198" 
d="M836 -220c-165.333 -27.333 -296.331 -44.333 -392.998 -51l15 -147c6.66699 -114.667 -10.333 -174 -51 -178s-86 -6 -136 -6c-42 -3.33301 -84.5 -2.66602 -127.5 2.00098s-64.167 37.334 -63.5 98.001c-4 577.333 -9.66699 967.166 -17 1169.5s3 354.5 31 456.5
c37.333 28.667 79.833 46.5 127.5 53.5s85.5 7.5 113.5 1.5s46.333 -20.833 55 -44.5s46.334 -26.5 113.001 -8.5s148.167 13 244.5 -15s204.166 -103.667 323.499 -227c61.333 -132.667 94.166 -274.334 98.499 -425.001s-9.83398 -278.5 -42.501 -383.5
s-129.667 -203.5 -291 -295.5zM395.002 240c62.667 -148.667 145.665 -219.001 248.998 -211.001c96.667 0.666992 173.5 57 230.5 169s73.5 242.333 49.5 391c-25.333 114.667 -82.666 191.5 -171.999 230.5s-169.666 37.667 -240.999 -4s-117 -110.667 -137 -207
s-13 -219.166 21 -368.499z" />
    <glyph glyph-name="q" unicode="q" horiz-adv-x="1169" 
d="M1005 -466c-6 -62.667 -28.1641 -101.669 -66.4971 -117.002s-81.833 -19.666 -130.5 -12.999s-93 16.5 -133 29.5s-45.333 92.167 -16 237.5l37 171c-159.333 -46 -326 12.667 -500 176c-103.333 117.333 -162 249 -176 395c13.333 252.667 80.333 444.667 201 576
c132.667 81.333 265.167 124.166 397.5 128.499s211.166 -28.167 236.499 -97.5c25.333 52 55.666 76.333 90.999 73c57.333 -13.333 101.666 -26.5 132.999 -39.5s45.333 -49.833 42 -110.5c-24 -193.333 -50.167 -450.166 -78.5 -770.499s-40.833 -533.166 -37.5 -638.499
zM449.003 231.998c73.333 -44.667 135.665 -65 186.998 -61s91.5 35.5 120.5 94.5s52.833 178.167 71.5 357.5l4 115c-13.333 22.667 -46.833 40.667 -100.5 54s-113 11.5 -178 -5.5s-112.167 -60.167 -141.5 -129.5s-41.666 -146 -36.999 -230s29.334 -149 74.001 -195z
" />
    <glyph glyph-name="r" unicode="r" horiz-adv-x="1006" 
d="M946 739l-91.001 -26.001c-51.333 -10.667 -93.166 3.83301 -125.499 43.5s-104.833 42.167 -217.5 7.5c-66.667 -34 -108 -112.333 -124 -235l-12 -495c4.66699 -76.667 -35.333 -121 -120 -133c-96 -7.33301 -164 6.33398 -204 41.001c-1.33301 378 19 714.667 61 1010
c16.667 91.333 67 136.666 151 135.999c94 0 147.333 -27 160 -81c85.333 31.333 206 47 362 47c54 0 96.667 -16.167 128 -48.5s59 -87.166 83 -164.499c2 -51.333 -15 -85.333 -51 -102z" />
    <glyph glyph-name="s" unicode="s" horiz-adv-x="1032" 
d="M744 781c-8 42 -22.5 71.666 -43.5 88.999s-84.833 12.666 -191.5 -14.001c-104.667 -50 -111.5 -88.667 -20.5 -116s158.333 -51.833 202 -73.5s109.167 -67.834 196.5 -138.501c58.667 -70 84.334 -172.667 77.001 -308
c-12.667 -123.333 -64.5 -214.666 -155.5 -273.999s-204.833 -82.666 -341.5 -69.999c-100 17.333 -195.5 48.333 -286.5 93s-139.167 90.334 -144.5 137.001c19.333 109.333 42.666 193 69.999 251c25.333 130 82.666 166.833 171.999 110.5s148.333 -100.5 177 -132.5
c96 -71.333 158 -92.666 186 -63.999c52 79.333 14.667 135 -112 167l-104 23c-88.667 19.333 -151.667 42 -189 68c-54 37.333 -111 90 -171 158c-20 172 59.333 296.333 238 373c158.667 75.333 280 115.333 364 120s144.833 2 182.5 -8s68.834 -31.833 93.501 -65.5
s38.667 -76.5 42 -128.5s5 -92.667 5 -122c-14.667 -57.333 -31.167 -92.833 -49.5 -106.5s-47 -16.834 -86 -9.50098s-75.833 21 -110.5 41z" />
    <glyph glyph-name="t" unicode="t" horiz-adv-x="904" 
d="M720 806c-58 2.66699 -104.665 -9.99902 -139.998 -37.999l-8 -327l-5 -298c83.333 -50 135.333 -40 156 30c107.333 42.667 153.5 1.16699 138.5 -124.5s-141.167 -188.834 -378.5 -189.501c-100.667 -14.667 -167.667 40.5 -201 165.5s-38.666 370.5 -15.999 736.5
c-46.667 4.66699 -97 7.33398 -151 8.00098c-66 5.33301 -97.333 67.333 -94 186c0 29.333 9 53.666 27 72.999s41 29 69 29l178 -3c3.33301 79.333 4.16602 130.833 2.49902 154.5s-5.5 52.5 -11.5 86.5c9.33301 70.667 26.666 105.334 51.999 104.001s52 -2 80 -2
c105.333 6 156.5 -21.667 153.5 -83s-8.5 -152.333 -16.5 -273c61.333 10.667 120.666 7 177.999 -11c29.333 -100.667 25 -175.334 -13 -224.001z" />
    <glyph glyph-name="u" unicode="u" horiz-adv-x="1009" 
d="M954 18c0 -50 -15.002 -78.834 -45.002 -86.501s-59 -11.5 -87 -11.5c-70.667 -14 -108 -1.33301 -112 38c-74 -5.33301 -149.667 -16.333 -227 -33c-70.667 -2.66699 -153.5 9.33301 -248.5 36s-146.667 116.5 -155 269.5s-12.5 298.5 -12.5 436.5
c0 91.333 -2 167.666 -6 228.999c-10 77.333 30.333 111 121 101c47.333 2.66699 86 2.66699 116 0s47.333 -20.667 52 -54c-14 -102 -17.667 -197.167 -11 -285.5s10.334 -154.666 11.001 -198.999s12.5 -83 35.5 -116s62.5 -55.5 118.5 -67.5
c58.667 -2 107.334 24 146.001 78l14 89c-20 175.333 -39.333 315 -58 419c-23.333 70.667 20 108.334 130 113.001c95.333 16.667 146 3.66699 152 -39l40.5 -288.5c21 -149.667 29.5 -359.167 25.5 -628.5z" />
    <glyph glyph-name="v" unicode="v" horiz-adv-x="1040" 
d="M528 -40c-71.333 -14 -113.667 -1.33691 -127 37.9961c-108.667 179.333 -227.667 510.333 -357 993c-12 36.667 1.5 66.834 40.5 90.501s82.5 28.834 130.5 15.501c70 -27.333 134 -150.333 192 -369l114 -193c61.333 20.667 118.333 99 171 235l78 250
c7.33301 40.667 46 58.667 116 54c38.667 -16 70 -33.667 94 -53s31.667 -43.333 23 -72c-107.333 -347.333 -204.333 -601.166 -291 -761.499s-148 -236.166 -184 -227.499z" />
    <glyph glyph-name="w" unicode="w" horiz-adv-x="1390" 
d="M1294 678c-28.667 -72.667 -80.332 -227.332 -154.999 -463.999c-40 -95.333 -76 -155.666 -108 -180.999s-90.333 -34 -175 -26c-88.667 -6 -137.167 32.667 -145.5 116s-28.166 166.666 -59.499 249.999l-107 -152l-85 -178
c-8.66699 -25.333 -21.334 -44.666 -38.001 -57.999c-10.667 -24.667 -53.334 -34 -128.001 -28c-97.333 -26 -151 48.667 -161 224c-24 114.667 -43.333 255.667 -58 423c-12.667 178.667 -21.334 290.667 -26.001 336c2 75.333 12.833 116.833 32.5 124.5
s44.5 11.5 74.5 11.5s70 -4.33301 120 -13c24.667 5.33301 39.667 -70 45 -226l26 -154l21 -176c73.333 86 135.333 181 186 285c27.333 58 74 90.667 140 98c95.333 -4.66699 152.333 -42.334 171 -113.001c36.667 -52 55 -167.333 55 -346c28 117.333 82 293 162 527
c8.66699 81.333 39.834 120.666 93.501 117.999s106.167 -33.667 157.5 -93c16.667 -45.333 4 -147 -38 -305z" />
    <glyph glyph-name="x" unicode="x" horiz-adv-x="1204" 
d="M1106 833l-156.002 -155.002l-132 -137l136 -201c88.667 -104.667 130.334 -189 125.001 -253c-28 -58.667 -65.333 -94 -112 -106c-42 -12 -77 -9.33301 -105 8c-70.667 64.667 -163 180.667 -277 348c-128.667 -128.667 -219.667 -228 -273 -298
c-38.667 -60 -77.667 -81 -117 -63s-68.833 37 -88.5 57s-36.667 38 -51 54s-18 39.167 -11 69.5s34.833 80 83.5 149s138 152.833 268 251.5c-49.333 106 -99 192.5 -149 259.5l-126 165.5c-14 50.667 -8.66699 87.5 16 110.5s75 45.167 151 66.5
c62.667 21.333 131.334 -49 206.001 -211l126 -153l305.5 266.5c53.667 45.667 109.167 37.334 166.5 -24.999s62 -130.166 14 -203.499z" />
    <glyph glyph-name="y" unicode="y" horiz-adv-x="1214" 
d="M710 -424c-78 -32.667 -142.001 -39.999 -192.001 -21.999c-52.667 6.66699 -91.5 15.167 -116.5 25.5s-35.833 69.166 -32.5 176.499c14.667 112.667 72 268 172 466l-221 229l-216 306c-55.333 94.667 -72.833 165.667 -52.5 213s46.833 89.833 79.5 127.5
s85.667 32.834 159 -14.499c60.667 -36.667 118.5 -92.5 173.5 -167.5s135.5 -175.167 241.5 -300.5l141 344c24.667 57.333 62.667 97.666 114 120.999c84.667 -2.66699 143.334 -20.5 176.001 -53.5s50.667 -79.833 54 -140.5c-50.667 -122 -126.167 -333.5 -226.5 -634.5
s-184.833 -526.167 -253.5 -675.5z" />
    <glyph glyph-name="z" unicode="z" horiz-adv-x="1098" 
d="M1021 805c-56.667 -94.667 -125.665 -199.833 -206.998 -315.5s-151.333 -198.834 -210 -249.501l143 -7c61.333 0.666992 104.166 4.83398 128.499 12.501s64.833 11.5 121.5 11.5c26.667 -21.333 37.5 -53.833 32.5 -97.5s-8.83301 -83.834 -11.5 -120.501
c-6.66699 -68 -21 -101.833 -43 -101.5s-47.667 0.5 -77 0.5c-26 0 -67.667 0.333008 -125 1s-129.5 -0.833008 -216.5 -4.5s-186.167 -13.5 -297.5 -29.5c-124 -11.333 -191.167 2.5 -201.5 41.5s-15.5 92.833 -15.5 161.5c223.333 194.667 404.333 392.334 543 593.001
c-20 30 -57 45.5 -111 46.5s-127.333 -3.83301 -220 -14.5c-78 -47.333 -117 26 -117 220c0 29.333 9 53.833 27 73.5s40.667 29.5 68 29.5c32.667 0 82 -3.83301 148 -11.5s116 -11.5 150 -11.5c45.333 0 113.333 3.16699 204 9.5s158.667 9.5 204 9.5
c56.667 0 85 -23.333 85 -70c23.333 -49.333 22.666 -108.333 -2.00098 -177z" />
    <glyph glyph-name="braceleft" unicode="{" horiz-adv-x="805" 
d="M376 567c-15.333 -26 -10.334 -62.665 14.999 -109.998c30 -54.667 46 -96.5 48 -125.5s6.66699 -82.833 14 -161.5s9.33301 -156 6 -232c36.667 -56.667 79.167 -90.167 127.5 -100.5s88 -19.666 119 -27.999s48.5 -42.833 52.5 -103.5c0 -38 -12.667 -74.333 -38 -109
c-92 -24.667 -158.333 -30.834 -199 -18.501s-96.334 40.166 -167.001 83.499c-93.333 106 -133.666 262 -120.999 468c-18.667 147.333 -51.167 232 -97.5 254s-86.166 73 -119.499 153c0 56 42 105 126 147c49.333 46 76 118.667 80 218
c-30.667 463.333 4 711.166 104 743.499s194 38.166 282 17.499c62 0 113.333 -11.333 154 -34c5.33301 -42 8 -82.333 8 -121c-4 -57.333 -34 -89 -90 -95c-144 -25.333 -215 -83.166 -213 -173.499s3.16699 -161 3.5 -212s-2.66699 -109.333 -9 -175
s-23.5 -124.167 -51.5 -175.5s-39.333 -88 -34 -110z" />
    <glyph glyph-name="bar" unicode="|" horiz-adv-x="348" 
d="M208 1760c57.333 -17.333 86 -60 86 -128l-6 -1877c7.33301 -86.667 -19.667 -132 -81 -136c-56.667 -4.66699 -96.667 -0.666992 -120 12s-28.666 137.667 -15.999 375l-13 1614c-12.667 82 -2.83398 125.833 29.499 131.5s72.5 8.5 120.5 8.5z" />
    <glyph glyph-name="braceright" unicode="}" horiz-adv-x="875" 
d="M535 567c-75.333 124.667 -112.997 206.999 -112.997 246.999c0 28.667 2.16699 96.667 6.5 204s6.5 175.333 6.5 204c-33.333 85.333 -80 145.666 -140 180.999c-26.667 8.66699 -62.334 14 -107.001 16c-56 6.66699 -90.333 38.334 -103 95.001
c-37.333 139.333 3 205 121 197c132 -7.33301 233.667 -39.333 305 -96c112 -70.667 157.333 -217.667 136 -441l-36 -180l-9 -111l62 -91c96.667 -26 153.167 -62.167 169.5 -108.5s17.166 -86.666 2.49902 -120.999s-40 -69.833 -76 -106.5s-61.667 -91.5 -77 -164.5
s-21 -131.167 -17 -174.5c4 -105.333 -11 -211 -45 -317c-42 -118.667 -133.333 -188.334 -274 -209.001c-58 -12.667 -114 -15 -168 -7c-46 6 -69 46.667 -69 122c-8.66699 110.667 18.666 153 81.999 127c40.667 -3.33301 84 1.33398 130 14.001s77 43 93 91
c26 72 39 136 39 192c0 22 -2.66699 55 -8 99s-8 77 -8 99c0 31.333 32.333 111 97 239z" />
    <glyph glyph-name="asciitilde" unicode="~" horiz-adv-x="1258" 
d="M527 967c59.333 -22 116.669 -54.668 172.002 -98.001c74 -60 131 -86.667 171 -80s75.5 38 106.5 94s78.833 69 143.5 39c40.667 -19.333 66.167 -37.166 76.5 -53.499s18.833 -39.833 25.5 -70.5c-16.667 -84 -60.334 -159.333 -131.001 -226
c-54.667 -70 -119 -105 -193 -105s-141 9.33301 -201 28c-68.667 40.667 -116.5 87.834 -143.5 141.501s-59.833 77.167 -98.5 70.5s-86 -52.667 -142 -138c-8 -36.667 -37 -73.667 -87 -111c-52.667 0.666992 -94 3.66699 -124 9s-51.333 24.333 -64 57
c-0.666992 54 16.166 108.167 50.499 162.5s79.833 109.166 136.5 164.499c112 93.333 212.667 132 302 116z" />
    <glyph glyph-name="nonbreakingspace" unicode="&#xa0;" horiz-adv-x="612" 
 />
    <glyph glyph-name="exclamdown" unicode="&#xa1;" horiz-adv-x="375" 
d="M48 23l5 1096c14 98.667 64.333 146.334 151 143.001c73.333 -21.333 108.333 -54.5 105 -99.5s-1.66602 -127.167 5.00098 -246.5s3.16699 -273.833 -10.5 -463.5s-14.334 -324.334 -2.00098 -404.001s-25.167 -128.167 -112.5 -145.5c-94 14 -141 54 -141 120zM72 1537
c14 30.667 34.833 55.834 62.5 75.501s57.667 24.167 90 13.5s59.833 -33.667 82.5 -69s33.167 -69.333 31.5 -102s-15.5 -59.334 -41.5 -80.001s-63.667 -28.5 -113 -23.5s-83.833 29.667 -103.5 74s-22.5 81.5 -8.5 111.5z" />
    <glyph glyph-name="cent" unicode="&#xa2;" horiz-adv-x="1214" 
d="M1188 555c-108 -192.667 -268.332 -303.666 -480.999 -332.999c10.667 -93.333 -43 -140 -161 -140c-120.667 10.667 -170.667 65 -150 163c-90 54 -173.5 128.5 -250.5 223.5s-115.5 218.5 -115.5 370.5s35 294.833 105 428.5s170 228.5 300 284.5l20 109
c-1.33301 70.667 42 106 130 106c66 -7.33301 103.333 -22 112 -44s16.667 -45 24 -69l3 -103c59.333 -6.66699 110.5 -10.5 153.5 -11.5s84.667 -12.167 125 -33.5s60.5 -53.666 60.5 -96.999c18 -96 11.333 -163.333 -20 -202s-60.333 -58 -87 -58
c-11.333 0 -34.333 2.16699 -69 6.5s-83.334 8.83301 -146.001 13.5c2 -164.667 -7 -367.334 -27 -608.001c34.667 -11.333 79 6 133 52l89 65c22.667 32 46.667 48 72 48c22.667 0 59.5 -12.333 110.5 -37s74.167 -69.334 69.5 -134.001zM426.001 592.001l28.002 567
c-39.333 -17.333 -74.333 -50.333 -105 -99s-48.334 -121 -53.001 -217s38.666 -179.667 129.999 -251z" />
    <glyph glyph-name="sterling" unicode="&#xa3;" horiz-adv-x="1366" 
d="M253 990c-1.33301 153.333 44.9961 291.331 138.996 413.998c105.333 137.333 251 206 437 206c107.333 0 205.333 -23 294 -69c107.333 -56 161 -132.333 161 -229c0 -24 -0.166992 -47 -0.5 -69s-15.166 -42.167 -44.499 -60.5s-74 -22.166 -134 -11.499
c-140 56.667 -237.167 77.834 -291.5 63.501s-99.166 -42.666 -134.499 -84.999s-54.666 -97.5 -57.999 -165.5c38 2.66699 88 3.66699 150 3c63.333 -2 97.166 -32.667 101.499 -92s-2 -116.333 -19 -171s-49.167 -85.167 -96.5 -91.5s-96.333 -7.16602 -147 -2.49902
c-12 -122.667 -35.667 -294 -71 -514c209.333 17.333 347 36.833 413 58.5s138 40.5 216 56.5c66 -9.33301 108.833 -68.833 128.5 -178.5s-10.5 -185.834 -90.5 -228.501c-133.333 -52.667 -279.833 -82.667 -439.5 -90s-348.834 -3 -567.501 13
c-52 3.33301 -89.5 17.5 -112.5 42.5s-36.167 71.167 -39.5 138.5c-7.33301 52.667 -3.66602 101.667 11.001 147s33.334 117 56.001 215s57.334 214.333 104.001 349c-92.667 -3.33301 -144 23.167 -154 79.5s-16.667 99.666 -20 129.999s9.5 63 38.5 98
s85.833 49.5 170.5 43.5z" />
    <glyph glyph-name="currency" unicode="&#xa4;" horiz-adv-x="1241" 
d="M634 611c48 4 84.666 19 109.999 45s35 59 29 99s-28.167 69.667 -66.5 89s-78.166 20 -119.499 2s-72 -49 -92 -93s-13.833 -79.5 18.5 -106.5s72.5 -38.833 120.5 -35.5zM530.999 1103c78 61.333 162.67 55.998 254.003 -16.002c92.667 70 163.834 118.333 213.501 145
s90.167 28.334 121.5 5.00098s52.666 -48.333 63.999 -75s18.166 -50.667 20.499 -72s-10.5 -44.833 -38.5 -70.5l-155 -135.5c17.333 -68 22.5 -128.667 15.5 -182s-14.5 -94.666 -22.5 -123.999c31.333 -52.667 54.833 -94.167 70.5 -124.5s14 -65 -5 -104
s-47.333 -65.667 -85 -80s-78.667 -8 -123 19s-85.5 50.833 -123.5 71.5c-110.667 -36 -213.334 -26.667 -308.001 28l-152 -149c-36 -20.667 -69.5 -32.667 -100.5 -36s-60 5.5 -87 26.5s-43.833 43.833 -50.5 68.5c-2.66699 30.667 9.83301 70.5 37.5 119.5
s82.834 110.167 165.501 183.5c-34.667 144 -19.334 263.333 45.999 358c-56 81.333 -86.833 132.666 -92.5 153.999s-4.5 39.333 3.5 54s22.667 31.834 44 51.501s46.166 33.167 74.499 40.5s57 1 86 -19s71.167 -65.667 126.5 -137z" />
    <glyph glyph-name="yen" unicode="&#xa5;" horiz-adv-x="1154" 
d="M511 601c16 44.667 -16 93.998 -96 147.998c-22 0 -55.333 2 -100 6c-74 -7.33301 -114.333 18.667 -121 78c0 61.333 10 92.833 30 94.5s48 11.5 84 29.5c-194 267.333 -283.167 415 -267.5 443s33.167 47.833 52.5 59.5l62 36.5
c46.667 24.667 112.334 -21 197.001 -137s168.334 -240.333 251.001 -373c83.333 46 143.666 140.667 180.999 284c16.667 45.333 31.334 91 44.001 137c53.333 26.667 109.666 13.334 168.999 -39.999c54 -12.667 55 -83 3 -211l-97 -200l125 4
c71.333 -22 94.333 -60.667 69 -116c-9.33301 -75.333 -46.333 -108.333 -111 -99c-36 -2.66699 -73.5 -6.66699 -112.5 -12s-77.5 -9.66602 -115.5 -12.999l-30 -116c23.333 -10 46.166 -15.833 68.499 -17.5s51.833 -2.16699 88.5 -1.5s61.667 -10.5 75 -33.5
s20 -46.167 20 -69.5c9.33301 -72 -17.667 -107 -81 -105l-166 -21l4 -325c-40.667 -56 -88.334 -84 -143.001 -84c-55.333 0 -83 28 -83 84c0 20.667 -1 52.167 -3 94.5s-3 73.833 -3 94.5l5 152c-51.333 23.333 -95.666 35.333 -132.999 36c-53.333 -8 -82 16.333 -86 73
c8 75.333 26 110 54 104s45.667 -9 53 -9c52 0 89.667 8.33301 113 25z" />
    <glyph glyph-name="brokenbar" unicode="&#xa6;" horiz-adv-x="351" 
d="M200 876c-90.667 0 -137 33.6689 -139 101.002s-7 178.666 -15 333.999s-11 262.666 -9 321.999s58.667 80 170 62c64 3.33301 92.167 -97 84.5 -301s-9.16699 -341.333 -4.5 -412s-24.333 -106 -87 -106zM288 31.002c0 -50 -21.333 -82.3291 -64 -96.9961
c-46.667 -3.33301 -80.834 21.167 -102.501 73.5s-36.667 142.666 -45 270.999s-8 239.666 1 333.999s48.833 140.666 119.5 138.999s107.334 -48.834 110.001 -141.501s0.166992 -197.667 -7.5 -315s-11.5 -205.333 -11.5 -264z" />
    <glyph glyph-name="section" unicode="&#xa7;" horiz-adv-x="1287" 
d="M1090 506c108.667 -90.667 148.664 -180.996 119.997 -270.996s-73.334 -174.333 -134.001 -253s-184.667 -116.334 -372 -113.001c-168 18 -310.333 47.667 -427 89c-164 83.333 -237 195.666 -219 336.999c10.667 67.333 45.667 122.333 105 165
c42.667 50 106.5 31.667 191.5 -55s169.667 -144.167 254 -172.5s145.666 -14.833 183.999 40.5s-36.667 108.5 -225 159.5s-310.666 118.333 -366.999 202s-78.166 160.667 -65.499 231s39.167 125.5 79.5 165.5s40.166 81.667 -0.500977 125
c-75.333 191.333 -40.833 352.166 103.5 482.499s300.166 170.5 467.499 120.5s310 -141 428 -273c26 -42 32.833 -73.167 20.5 -93.5s-30.166 -45.166 -53.499 -74.499s-65.666 -49.333 -126.999 -60s-120.666 22.833 -177.999 100.5s-114 116.5 -170 116.5
s-94.167 -17.667 -114.5 -53s-26 -76 -17 -122s121.333 -124.833 337 -236.5s316.334 -223.334 302.001 -335.001s-55.166 -185.834 -122.499 -222.501zM921.997 707.004c18 43.333 -38.332 99.333 -168.999 168c-180.667 90 -285.334 106.5 -314.001 49.5
s-9.83398 -104.833 56.499 -143.5s143.333 -72 231 -100s152.834 -19.333 195.501 26z" />
    <glyph glyph-name="dieresis" unicode="&#xa8;" horiz-adv-x="995" 
d="M266 1444c80.667 -5.33301 125.666 -42.667 134.999 -112s0.166016 -121.5 -27.501 -156.5s-83.667 -51.5 -168 -49.5s-133.166 34.667 -146.499 98s-2.16602 117.333 33.501 162s93.5 64 173.5 58zM852.999 1459c40 -15.333 68.333 -36.002 85 -62.002
s18.667 -67 6 -123s-56 -87.667 -130 -95s-130.5 7.33398 -169.5 44.001s-51.667 84.834 -38 144.501s48.167 93.667 103.5 102s103 4.83301 143 -10.5z" />
    <glyph glyph-name="copyright" unicode="&#xa9;" horiz-adv-x="1676" 
d="M473 1290c-112.667 -101.333 -155.999 -232.499 -129.999 -393.499s68.833 -273 128.5 -336s169.5 -94.833 329.5 -95.5s299.333 54.333 418 165c75.333 120.667 113 241.5 113 362.5s-25.667 211.667 -77 272s-162.833 104.666 -334.5 132.999
s-320.834 -7.5 -447.501 -107.5zM955.001 1673c285.333 -41.333 470.831 -124.5 556.498 -249.5s128.5 -273.333 128.5 -445s-65 -348.167 -195 -529.5s-385.167 -261 -765.5 -239s-582.666 190.333 -606.999 505s45.334 563.5 209.001 746.5s388.167 253.5 673.5 211.5z
M1100 754.001c-5.33301 -58 -25.1689 -93.3359 -59.502 -106.003s-105.166 -31 -212.499 -55c-88 -2 -181 21.333 -279 70c-86 89.333 -130.5 184.666 -133.5 285.999s32.833 197.5 107.5 288.5s204.334 131.5 389.001 121.5c140 -44 213 -103.667 219 -179
c-11.333 -49.333 -43.333 -86.666 -96 -111.999c-41.333 -23.333 -74.833 -26.666 -100.5 -9.99902s-54.834 25.667 -87.501 27s-68 -8.16699 -106 -28.5s-57.833 -52.166 -59.5 -95.499s7.16602 -78.666 26.499 -105.999s53 -31 101 -11s81.333 36.167 100 48.5
s43.334 13.5 74.001 3.5s52.834 -28 66.501 -54s30.5 -55.333 50.5 -88z" />
    <glyph glyph-name="ordfeminine" unicode="&#xaa;" horiz-adv-x="1005" 
d="M555 1227c28 63.333 36.1689 119.333 24.502 168s-41.834 68.334 -90.501 59.001s-96.167 -25.666 -142.5 -48.999s-69.5 -53.5 -69.5 -90.5s14.167 -70.833 42.5 -101.5s63.166 -47.834 104.499 -51.501s85 18.166 131 65.499zM838.002 1532
c86.667 -374 106.833 -574.334 60.5 -601.001s-83.166 -40 -110.499 -40c-104.667 -10 -149.334 21 -134.001 93c-58.667 -61.333 -147.5 -91.166 -266.5 -89.499s-207 51.334 -264 149.001s-83.833 194 -80.5 289s48.333 177.167 135 246.5s179 107.666 277 114.999
s171.667 3.5 221 -11.5s87.5 -25.833 114.5 -32.5s42.833 -46 47.5 -118z" />
    <glyph glyph-name="guillemotleft" unicode="&#xab;" horiz-adv-x="1095" 
d="M408 617c16 -20 45 -54.166 87 -102.499s76.833 -90.833 104.5 -127.5s41.5 -69 41.5 -97c1.33301 -28.667 -8.33398 -52.834 -29.001 -72.501s-42.5 -30.334 -65.5 -32.001s-48.167 4.5 -75.5 18.5s-80.5 58.5 -159.5 133.5s-143.833 124.5 -194.5 148.5
s-82.667 60 -96 108c0 44.667 26.167 91 78.5 139l213 189.5l175 151.5c27 22.667 55.167 28.5 84.5 17.5s51.333 -28 66 -51s23.834 -46.333 27.501 -70s-15.5 -62.667 -57.5 -117s-108.667 -133.166 -200 -236.499zM840 653.001
c17.333 -49.333 52.833 -99.502 106.5 -150.502s76.334 -90.833 68.001 -119.5s-29 -59.5 -62 -92.5s-92.833 -17.833 -179.5 45.5s-153.334 114.5 -200.001 153.5s-70 76 -70 111s19.167 74.667 57.5 119s97 106.5 176 186.5s124.333 127.333 136 142s34 15.5 67 2.5
s58.333 -30.167 76 -51.5s29.667 -43.666 36 -66.999s-7.16699 -53.666 -40.5 -90.999c-18 -27.333 -75 -90 -171 -188z" />
    <glyph glyph-name="logicalnot" unicode="&#xac;" horiz-adv-x="999" 
d="M830 234c-74 2.66699 -107 22.6709 -99 60.0039c4 105.333 -4.66699 176.666 -26 213.999c-210.667 -50.667 -379 -61.334 -505 -32.001s-188.167 80.166 -186.5 152.499s40.667 112.833 117 121.5s179 13.167 308 13.5s260.5 -6.83398 394.5 -21.501
c43.333 4.66699 73.333 -2 90 -20s24.5 -45.333 23.5 -82s-6.33301 -103.667 -16 -201s-18.667 -154.333 -27 -171s-32.833 -28 -73.5 -34z" />
    <glyph glyph-name="hyphenminus" unicode="&#xad;" horiz-adv-x="853" 
d="M631 453c-90 -19.333 -251.001 -25.335 -483.001 -18.002c-61.333 -9.33301 -91 25.334 -89 104.001c-9.33301 86 23 123.667 97 113c56 -2.66699 134.5 -2.16699 235.5 1.5s185.333 4 253 1s99.834 -38.833 96.501 -107.5c2.66699 -59.333 -34 -90.666 -110 -93.999z
" />
    <glyph glyph-name="registered" unicode="&#xae;" horiz-adv-x="1677" 
d="M295 844c0 -154 48.333 -270.999 145 -350.999c87.333 -72 205.666 -108 354.999 -108c146.667 0 278 49.333 394 148c129.333 110 194.333 250.333 195 421c0.666992 133.333 -39.666 248.666 -120.999 345.999c-86 102.667 -194.333 154 -325 154
c-214 0 -374.667 -50.833 -482 -152.5s-161 -254.167 -161 -457.5zM953 1722c267.333 -46 448.833 -141.499 544.5 -286.499s139.667 -332.667 132 -563s-97.667 -411.5 -270 -543.5s-366.5 -195 -582.5 -189s-394 74.333 -534 205s-196 307.667 -168 531
s114.667 431.666 260 624.999s351.333 267 618 221zM752 1029c62.667 -22.667 114.999 -28.168 156.999 -16.501s61.667 49.834 59 114.501c2.66699 30.667 -60.666 52 -189.999 64c-48 -50 -56.667 -104 -26 -162zM916.999 862.001
c38 -22.667 68.168 -54.8311 90.501 -96.498s28.166 -82.167 17.499 -121.5c-77.333 -76 -140.666 -98.667 -189.999 -68c-27.333 30 -70.333 74.333 -129 133l-27 -79c-12.667 -48.667 -62 -77.334 -148 -86.001c-24.667 0 -46 8.16699 -64 24.5s-27 36.833 -27 61.5
c0 5.33301 0.666992 11.666 2 18.999l87 503c16 116 50 181.833 102 197.5s117.167 23.5 195.5 23.5s147.5 -16 207.5 -48c90 -22.667 126.167 -108.5 108.5 -257.5s-92.834 -217.5 -225.501 -205.5z" />
    <glyph glyph-name="overscore.001" unicode="&#xaf;" horiz-adv-x="1284" 
d="M137 1700c-18.667 -5.33301 -39.667 34.332 -63 118.999s-5.33301 146.334 54 185.001c9.33301 28 119 46.833 329 56.5s456.333 -0.166016 739 -29.5c282.667 -29.333 392 -118.333 328 -267c8 -67.333 -110.167 -107.333 -354.5 -120s-588.5 6 -1032.5 56z" />
    <glyph glyph-name="degree" unicode="&#xb0;" horiz-adv-x="871" 
d="M468 1726c124.667 -12 217 -57.498 277 -136.498s85.333 -175 76 -288s-53.833 -199.5 -133.5 -259.5s-166.167 -88.333 -259.5 -85s-171.5 29.166 -234.5 77.499s-105.5 131.666 -127.5 249.999s8.5 224.5 91.5 318.5s186.5 135 310.5 123zM286 1328
c2 -52 15.334 -91.5 40.001 -118.5s62 -44.167 112 -51.5s98 3 144 31s69 71.667 69 131s-14.833 106 -44.5 140s-70.334 54.667 -122.001 62s-98.167 -10.167 -139.5 -52.5s-61 -89.5 -59 -141.5z" />
    <glyph glyph-name="plusminus" unicode="&#xb1;" horiz-adv-x="1018" 
d="M831 661c-2 -39.333 -2.66504 -63.8311 -1.99805 -73.498s-4.33301 -16.834 -15 -21.501s-20 -7 -28 -7l-100 -2c-40.667 -1.33301 -64 -7.66602 -70 -18.999l-10 -59c5.33301 -38 4.66602 -81.667 -2.00098 -131c-27.333 -30.667 -66.333 -46 -117 -46
c-48 -10 -75.667 17.333 -83 82l3 54l-1 97c-78.667 7.33301 -135.667 11 -171 11c-103.333 0 -155 30.667 -155 92c0 42.667 9.66699 98.667 29 168c33.333 11.333 78.333 10.833 135 -1.5s110.667 -12.5 162 -0.5l-1 78c-0.666992 109.333 30.666 164 93.999 164
c24.667 0 49.667 -3.5 75 -10.5s40.333 -28.833 45 -65.5c-2 -19.333 -3 -37.5 -3 -54.5s-2.33301 -39.167 -7 -66.5l8 -70h60c83.333 1.33301 130 -5.33398 140 -20.001s14.667 -47.334 14 -98.001zM883.002 25.002c82 24 117.501 76.168 106.501 156.501
s-90.167 108.5 -237.5 84.5l-324.5 -61c-109 -20.667 -212.167 -48 -309.5 -82c-64.667 -24.667 -76.334 -68.334 -35.001 -131.001c37.333 -78 103.333 -104.333 198 -79c182.667 69.333 313.167 102.333 391.5 99s148.5 1 210.5 13z" />
    <glyph glyph-name="twosuperior" unicode="&#xb2;" horiz-adv-x="699" 
d="M347 1110c89.333 -7.33301 148.171 -10.166 176.504 -8.49902s45.833 -12.333 52.5 -42s13 -63.167 19 -100.5s-51 -59.333 -171 -66s-207.667 -6.66699 -263 0s-83 45 -83 115c0 88 35.333 163.333 106 226c168 162 234.667 255 200 279s-73.334 15 -116.001 -27
s-79.334 -57 -110.001 -45c-18.667 7.33301 -37.834 18.666 -57.501 33.999s-35.667 39 -48 71s16.167 76.167 85.5 132.5s142.666 82.666 219.999 78.999s141 -18.167 191 -43.5s81.667 -79.333 95 -162s1.83301 -148.167 -34.5 -196.5s-123.833 -130.166 -262.5 -245.499z
" />
    <glyph glyph-name="threesuperior" unicode="&#xb3;" horiz-adv-x="581" 
d="M452 1314c60 -35.333 89.166 -101.671 87.499 -199.004s-38.334 -167.166 -110.001 -209.499s-143.834 -62.166 -216.501 -59.499s-120.334 17.834 -143.001 45.501s-24.667 65.834 -6 114.501s54.5 68.667 107.5 60s86 -5 99 11s17.333 36 13 60
s-20.166 42.333 -47.499 55s-40 48 -38 106c12 34 34.833 60.667 68.5 80s44.334 39.833 32.001 61.5s-34.5 31.834 -66.5 30.501s-63.667 0.666992 -95 6c-38.667 30 -58 65.167 -58 105.5s8.83301 66 26.5 77s55.334 20.833 113.001 29.5s116.334 7.5 176.001 -3.5
s96.5 -65.333 110.5 -163s-3.66699 -166.834 -53 -207.501z" />
    <glyph glyph-name="acute" unicode="&#xb4;" horiz-adv-x="592" 
d="M206 1165c-51.333 2.66699 -87.668 12.333 -109.001 29s-39.666 38.167 -54.999 64.5s-13.666 59.833 5.00098 100.5s56.667 89.167 114 145.5s104.5 99.333 141.5 129s76 49.5 117 59.5s71.333 4.33301 91 -17s34.667 -48 45 -80s-32.334 -112.333 -128.001 -241
s-169.5 -192 -221.5 -190z" />
    <glyph glyph-name="mu1" unicode="&#xb5;" horiz-adv-x="1216" 
d="M452 -60l-98.998 -182.001c-26.667 -66.667 -62.667 -103 -108 -109c-92.667 -6 -151.334 18.833 -176.001 74.5s-14.334 127.5 30.999 215.5c48.667 146 75.667 280.333 81 403s19 235.334 41 338.001l61 275c18.667 80.667 46.167 129.334 82.5 146.001
s91.5 14.334 165.5 -6.99902c76 -22 101.667 -59.667 77 -113c-15.333 -68.667 -38 -143.334 -68 -224.001c-26 -61.333 -47 -134.333 -63 -219c-24 -113.333 -29.5 -190.333 -16.5 -231s34 -65.834 63 -75.501s71.833 -16 128.5 -19s115 37.5 175 121.5l59 251
c4 138.667 15.333 246.334 34 323.001c15.333 61.333 55.833 86.666 121.5 75.999s107.834 -30.167 126.501 -58.5s16 -71.166 -8 -128.499c-58.667 -454 -108.334 -710.667 -149.001 -770c-25.333 -80.667 -83.333 -122.834 -174 -126.501s-172 -1 -244 8
s-119 19.5 -141 31.5z" />
    <glyph glyph-name="paragraph" unicode="&#xb6;" horiz-adv-x="1773" 
d="M1239 -145c-34.667 -42 -90.335 -53.998 -167.002 -35.998c-70 10 -103.5 36.667 -100.5 80s9 83.5 18 120.5s75.167 213.167 198.5 528.5s191.333 518.333 204 609s18.5 169.667 17.5 237s54 87.666 165 60.999s160.333 -118.334 148 -275.001
s-83.166 -401.5 -212.499 -734.5s-219.666 -529.833 -270.999 -590.5zM871.999 1198c-18 69.333 -78 114.669 -180 136.002s-182.667 -16.334 -242 -113.001s-103.333 -200.834 -132 -312.501s-12.167 -200.5 49.5 -266.5s154 -109.167 277 -129.5s191 19.5 204 119.5
s24.833 202.167 35.5 306.5s6.66699 190.833 -12 259.5zM936.999 -109.995c-41.333 -95.333 -89.335 -144.832 -144.002 -148.499s-114.167 5.33301 -178.5 27s-74.5 73.5 -30.5 155.5l-13 208c-195.333 87.333 -334 191.666 -416 312.999s-110 266.666 -84 435.999
c30.667 242.667 94.334 427.334 191.001 554.001s239.334 188.5 428.001 185.5s310.667 -14 366 -33s70.333 -190.333 45 -514s-80 -718.167 -164 -1183.5z" />
    <glyph glyph-name="middot.001" unicode="&#xb7;" horiz-adv-x="510" 
d="M180 589c-32 -2 -63.334 7.50098 -94.001 28.501s-45.667 52.167 -45 93.5s10.834 77.5 30.501 108.5s56.667 44 111 39s92 -22.833 113 -53.5s27.167 -61.834 18.5 -93.501s-25.167 -59.5 -49.5 -83.5s-52.5 -37 -84.5 -39z" />
    <glyph glyph-name="middot.001" unicode="&#x2219;" horiz-adv-x="510" 
d="M180 589c-32 -2 -63.334 7.50098 -94.001 28.501s-45.667 52.167 -45 93.5s10.834 77.5 30.501 108.5s56.667 44 111 39s92 -22.833 113 -53.5s27.167 -61.834 18.5 -93.501s-25.167 -59.5 -49.5 -83.5s-52.5 -37 -84.5 -39z" />
    <glyph glyph-name="cedilla" unicode="&#xb8;" horiz-adv-x="608" 
d="M58 -313c22 56 52.666 84.332 91.999 84.999c52.667 -12.667 94.667 -14.5 126 -5.5s46.666 30 45.999 63s-12.667 58.333 -36 76s-59.333 30.167 -108 37.5c-48 4.66699 -68.833 38.334 -62.5 101.001s45 93.667 116 93s145.833 -35.5 224.5 -104.5
s116.334 -148.5 113.001 -238.5s-28.166 -155.5 -74.499 -196.5s-104.833 -62.667 -175.5 -65s-136.5 10.167 -197.5 37.5s-82.167 66.333 -63.5 117z" />
    <glyph glyph-name="onesuperior" unicode="&#xb9;" horiz-adv-x="460" 
d="M170 1066l38.998 352.998c-43.333 -15.333 -84.833 -24.666 -124.5 -27.999s-63.834 36.334 -72.501 119.001c6.66699 40 22.834 70.5 48.501 91.5s68.167 46.667 127.5 77s98 45.5 116 45.5c47.333 6.66699 76.333 -30 87 -110
c20.667 -460 -13.666 -689.667 -102.999 -689s-128.666 47.667 -117.999 141z" />
    <glyph glyph-name="ordmasculine" unicode="&#xba;" horiz-adv-x="917" 
d="M881 1348c0 -152 -35.167 -266.001 -105.5 -342.001s-160.833 -117.333 -271.5 -124s-213.667 22.5 -309 87.5s-145.833 155.667 -151.5 272s33.5 226 117.5 329s182 150.333 294 142s212 -55.166 300 -140.499c84 -82 126 -156.667 126 -224zM650 1198
c28.667 41.333 45.167 83.333 49.5 126s-9.5 80 -41.5 112s-82.833 53.833 -152.5 65.5s-121.667 -4.83301 -156 -49.5s-52.833 -92.5 -55.5 -143.5s16 -99.333 56 -145s92 -63 156 -52s112 39.833 144 86.5z" />
    <glyph glyph-name="guillemotright" unicode="&#xbb;" horiz-adv-x="1141" 
d="M772 617c-110.667 114.667 -190.33 203.34 -238.997 266.007c-24.667 25.333 -44.334 47.666 -59.001 66.999c-7.33301 30 1.5 57 26.5 81s53.167 41.333 84.5 52c51.333 9.33301 87.666 -3.33398 108.999 -38.001s70.333 -86 147 -154s142 -116 196 -144
s78.333 -75.333 73 -142c0 -36.667 -22 -70.334 -66 -101.001s-105.167 -86.334 -183.5 -167.001s-132.5 -127.834 -162.5 -141.501s-57.333 -22.834 -82 -27.501s-49.167 3.66602 -73.5 24.999s-40.333 41 -48 59s-10 35.5 -7 52.5s17.667 40 44 69
s68.166 72.5 125.499 130.5zM302.004 634.006l-222.999 248.998c-20.667 20.667 -31 42.334 -31 65.001c0 24 9.16699 45.333 27.5 64s39.5 32.167 63.5 40.5s46.333 5.5 67 -8.5s72.5 -64.667 155.5 -152s145.5 -147 187.5 -179s65.667 -59.333 71 -82
s5.33301 -43.167 0 -61.5s-25.833 -44 -61.5 -77l-153.5 -140.5c-80.667 -92 -137.334 -147 -170.001 -165c-26 -14 -51.667 -23.667 -77 -29c-24 4 -45.833 15 -65.5 33s-35.167 38 -46.5 60c-2 28.667 13.667 54.834 47 78.501s82.333 69.167 147 136.5
c54 56.667 74.667 112.667 62 168z" />
    <glyph glyph-name="onequarter" unicode="&#xbc;" horiz-adv-x="1125" 
d="M464 1382c-119.333 -33.333 -178.999 -17.667 -178.999 47c-2 64 11.167 108.5 39.5 133.5l119.5 104.5c51.333 44.667 106.166 65.834 164.499 63.501s84.833 -269.5 79.5 -801.5c-15.333 -64.667 -66 -95.834 -152 -93.501s-110 184.5 -72 546.5zM665.001 770.999
c204 1.33301 330.165 -2.83594 378.498 -12.5029s68.833 -51.167 61.5 -124.5s-96.166 -104.166 -266.499 -92.499s-327.333 14.334 -471 8.00098s-238.167 -2 -283.5 13s-63.166 55 -53.499 120s67 95.833 172 92.5s259.167 -4.66602 462.5 -3.99902zM509.999 38.9971
c37.333 -0.666992 55.8311 35.333 55.498 108s-21.5 96.167 -63.5 70.5s-80.167 -60.167 -114.5 -103.5s-31.666 -66.333 8.00098 -69s77.834 -4.66699 114.501 -6zM730.997 28.9971c54.667 -4 83 -38 85 -102c10.667 -60 -25.333 -86.333 -108 -79l2 -109
c-10.667 -66.667 -41 -99 -91 -97s-79.833 13.833 -89.5 35.5s-14.167 75.834 -13.5 162.501l-217 32c-110.667 6.66699 -167 32.167 -169 76.5s14.167 87.666 48.5 129.999l165.5 198.5c76 90 132.167 152.167 168.5 186.5s71.5 52 105.5 53s62.333 -7.33301 85 -25
s33.5 -50 32.5 -97s-2.5 -168.833 -4.5 -365.5z" />
    <glyph glyph-name="onehalf" unicode="&#xbd;" horiz-adv-x="1142" 
d="M442 1436c-20.667 -6.66699 -50.832 -18.1689 -90.499 -34.502s-73.5 19.834 -101.5 108.501c-10.667 40 -1.83398 68.333 26.499 85s71.333 44 129 82s102 59.667 133 65s54.5 -1.66699 70.5 -21s18.667 -61.666 8 -126.999l-3 -559
c19.333 -114 -17.5 -174.167 -110.5 -180.5s-113.5 187.5 -61.5 581.5zM493.002 783.998c228 2 389.67 3.49902 485.003 4.49902s145.166 -51.667 149.499 -158s-79.334 -147.166 -251.001 -122.499s-325.5 37.167 -461.5 37.5s-229.333 1.5 -280 3.5s-82.667 33.5 -96 94.5
s2.16699 99.167 46.5 114.5s180.166 24 407.499 26zM551.005 -142.003c60.667 -0.666992 114.164 -0.000976562 160.497 1.99902s75.5 -9 87.5 -33s17.167 -63 15.5 -117s-41.167 -82.167 -118.5 -84.5s-137.833 -4.33301 -181.5 -6s-83.834 -2 -120.501 -1
s-67.5 7.83301 -92.5 20.5s-40.5 48.667 -46.5 108c-6.66699 94.667 34 170 122 226c156 140 218.667 224.333 188 253s-64.5 27.334 -101.5 -3.99902s-68.167 -41.5 -93.5 -30.5s-47.166 26 -65.499 45s-24.166 45.167 -17.499 78.5s35.834 73 87.501 119
s114 66.333 187 61s136.833 -27 191.5 -65s80.834 -99 78.501 -183s-21.333 -146 -57 -186s-110.167 -107.667 -223.5 -203z" />
    <glyph glyph-name="threequarters" unicode="&#xbe;" horiz-adv-x="1102" 
d="M772 1311c70.667 -120.667 99.001 -214.832 85.001 -282.499s-57.333 -119.667 -130 -156s-153.5 -54 -242.5 -53s-141 12.667 -156 35s-14.167 65.166 2.5 128.499s43 89 79 77s75.833 -14.167 119.5 -6.5s68.167 33.167 73.5 76.5s-11.334 67 -50.001 71
s-56.667 30.167 -54 78.5s24.334 81.166 65.001 98.499s52.5 40.666 35.5 69.999s-36.833 38.833 -59.5 28.5s-49.334 -20.666 -80.001 -30.999s-59 0.5 -85 32.5c-26.667 51.333 -23.5 92 9.5 122s76.333 54.333 130 73s116.5 16.834 188.5 -5.49902
s114.5 -74.333 127.5 -156s-6.5 -148.5 -58.5 -200.5zM1075 644.002c8.66699 -75.333 -57.9971 -114.669 -199.997 -118.002s-288.333 -7.16602 -439 -11.499s-258.834 -8.5 -324.501 -12.5s-96.334 33.833 -92.001 113.5s96.666 125.834 276.999 138.501
s325 11.167 434 -4.5s193.667 -26.167 254 -31.5s90.5 -30 90.5 -74zM494.004 32.999c56 0.666992 83.334 41.167 82.001 121.5s-26.833 103.333 -76.5 69s-85.5 -71 -107.5 -110s-24.333 -62.167 -7 -69.5s53.666 -11 108.999 -11zM713.005 52.999
c45.333 7.33301 66.9971 -19.6641 64.9971 -80.9971c2 -60.667 -29.667 -87.667 -95 -81l2 -158c0 -50 -25 -75 -75 -75s-75 25 -75 75l-2 119l-201 19c-132 11.333 -198 42.666 -198 93.999c0 40 16.833 93 50.5 159s102.834 146 207.501 240s182 140 232 138
c20 0 45.833 -10.333 77.5 -31s43.834 -66.834 36.501 -138.501s-15.666 -164.834 -24.999 -279.501z" />
    <glyph glyph-name="questiondown" unicode="&#xbf;" horiz-adv-x="1053" 
d="M619 1145c46.667 -9.33301 86.832 -11.332 120.499 -5.99902s57 -30.5 70 -107.5s-39.833 -171.333 -158.5 -283s-197.334 -206.834 -236.001 -285.501s-32 -141.334 20 -188.001s101.667 -76.5 149 -89.5s102.5 1.16699 165.5 42.5s107.667 62 134 62
s49.333 -15.833 69 -47.5s36.834 -71.5 51.501 -119.5s-30.5 -99.833 -135.5 -155.5s-208.333 -82.667 -310 -81s-210.5 31.334 -326.5 89.001s-181.167 167.5 -195.5 329.5s30.834 283 135.501 363s190.167 153.167 256.5 219.5s108 124.333 125 174s38.833 77.5 65.5 83.5
zM641.998 1555c32 10 65.501 7.50098 100.501 -7.49902s55.667 -46.333 62 -94s5.16602 -96.5 -3.50098 -146.5s-56.5 -70.167 -143.5 -60.5s-130.5 45 -130.5 106s11.167 107.667 33.5 140s49.5 53.166 81.5 62.499z" />
    <glyph glyph-name="Agrave" unicode="&#xc0;" horiz-adv-x="1498" 
d="M977 284c-86 5.33301 -192.67 4.99805 -320.003 -1.00195c-11.333 -68.667 -35.666 -140.667 -72.999 -216s-98.166 -121.166 -182.499 -137.499s-164 -11.333 -239 15s-116.167 82 -123.5 167s41.167 259.5 145.5 523.5s212 484.333 323 661s283.833 246.667 518.5 210
c130 -20 219.833 -107.167 269.5 -261.5s100.834 -381.666 153.501 -681.999s67.167 -472.333 43.5 -516s-62 -74.167 -115 -91.5s-130.5 -24.833 -232.5 -22.5s-158 119.5 -168 351.5zM675.997 737.998c-4 -62 66.001 -86.334 210.001 -73.001
c149.333 -5.33301 201 79 155 253c-3.33301 106.667 -45.333 173 -126 199c-90.667 12.667 -170.334 -113.666 -239.001 -378.999zM1056 1712c-12.667 -19.333 -29.667 -37.332 -51 -53.999s-46 -29 -74 -37c-26.667 -6.66699 -59 16.666 -97 69.999l-81 130
c-36 64 -72.667 109.333 -110 136c-74.667 23.333 -96.667 53.666 -66 90.999c14.667 18.667 32 39.334 52 62c20 22.667 41.333 34.334 64 35c80.667 -11.333 160.667 -63.666 240 -156.999c100 -156.667 141 -248.667 123 -276z" />
    <glyph glyph-name="Aacute" unicode="&#xc1;" horiz-adv-x="1498" 
d="M977 284c-86 5.33301 -192.67 4.99805 -320.003 -1.00195c-11.333 -68.667 -35.666 -140.667 -72.999 -216s-98.166 -121.166 -182.499 -137.499s-164 -11.333 -239 15s-116.167 82 -123.5 167s41.167 259.5 145.5 523.5s212 484.333 323 661s283.833 246.667 518.5 210
c130 -20 219.833 -107.167 269.5 -261.5s100.834 -381.666 153.501 -681.999s67.167 -472.333 43.5 -516s-62 -74.167 -115 -91.5s-130.5 -24.833 -232.5 -22.5s-158 119.5 -168 351.5zM675.997 737.998c-4 -62 66.001 -86.334 210.001 -73.001
c149.333 -5.33301 201 79 155 253c-3.33301 106.667 -45.333 173 -126 199c-90.667 12.667 -170.334 -113.666 -239.001 -378.999zM832.998 1608c-51.333 2.66699 -87.668 12.333 -109.001 29s-39.666 38.167 -54.999 64.5s-13.666 59.833 5.00098 100.5
s56.667 89.167 114 145.5s104.5 99.333 141.5 129s76 49.5 117 59.5s71.333 4.33301 91 -17s34.667 -48 45 -80s-32.334 -112.333 -128.001 -241s-169.5 -192 -221.5 -190z" />
    <glyph glyph-name="Acircumflex" unicode="&#xc2;" horiz-adv-x="1498" 
d="M977 284c-86 5.33301 -192.67 4.99805 -320.003 -1.00195c-11.333 -68.667 -35.666 -140.667 -72.999 -216s-98.166 -121.166 -182.499 -137.499s-164 -11.333 -239 15s-116.167 82 -123.5 167s41.167 259.5 145.5 523.5s212 484.333 323 661s283.833 246.667 518.5 210
c130 -20 219.833 -107.167 269.5 -261.5s100.834 -381.666 153.501 -681.999s67.167 -472.333 43.5 -516s-62 -74.167 -115 -91.5s-130.5 -24.833 -232.5 -22.5s-158 119.5 -168 351.5zM675.997 737.998c-4 -62 66.001 -86.334 210.001 -73.001
c149.333 -5.33301 201 79 155 253c-3.33301 106.667 -45.333 173 -126 199c-90.667 12.667 -170.334 -113.666 -239.001 -378.999zM1111 1589c-22 0 -43 9.66992 -63 29.0029c-150.667 91.333 -233 134 -247 128s-106.667 -59.667 -278 -161
c-55.333 -18.667 -94.166 -22.667 -116.499 -12s-36.333 26.5 -42 47.5s5.33301 73 33 156s85.834 164.5 174.501 244.5s159.667 112.667 213 98s105 -37.834 155 -69.501s116.333 -93.834 199 -186.501s119.667 -155.334 111 -188.001s-27.834 -55.167 -57.501 -67.5
s-56.834 -18.5 -81.501 -18.5z" />
    <glyph glyph-name="Atilde" unicode="&#xc3;" horiz-adv-x="1498" 
d="M977 284c-86 5.33301 -192.67 4.99805 -320.003 -1.00195c-11.333 -68.667 -35.666 -140.667 -72.999 -216s-98.166 -121.166 -182.499 -137.499s-164 -11.333 -239 15s-116.167 82 -123.5 167s41.167 259.5 145.5 523.5s212 484.333 323 661s283.833 246.667 518.5 210
c130 -20 219.833 -107.167 269.5 -261.5s100.834 -381.666 153.501 -681.999s67.167 -472.333 43.5 -516s-62 -74.167 -115 -91.5s-130.5 -24.833 -232.5 -22.5s-158 119.5 -168 351.5zM675.997 737.998c-4 -62 66.001 -86.334 210.001 -73.001
c149.333 -5.33301 201 79 155 253c-3.33301 106.667 -45.333 173 -126 199c-90.667 12.667 -170.334 -113.666 -239.001 -378.999zM1235 1786c-26.667 -43.333 -49.667 -74.9971 -69 -94.9971c-37.333 -38 -86.5 -61.833 -147.5 -71.5s-121.167 2.5 -180.5 36.5
s-108.5 67.167 -147.5 99.5s-69.5 26.166 -91.5 -18.501s-56.333 -56.834 -103 -36.501s-78.167 41.333 -94.5 63s-15 49.5 4 83.5s49.667 66.167 92 96.5s89 46 140 47s124.667 -21 221 -66s160.5 -52.833 192.5 -23.5s63.833 38.166 95.5 26.499s58.5 -28.167 80.5 -49.5
s24.667 -52 8 -92z" />
    <glyph glyph-name="Adieresis" unicode="&#xc4;" horiz-adv-x="1498" 
d="M977 284c-86 5.33301 -192.67 4.99805 -320.003 -1.00195c-11.333 -68.667 -35.666 -140.667 -72.999 -216s-98.166 -121.166 -182.499 -137.499s-164 -11.333 -239 15s-116.167 82 -123.5 167s41.167 259.5 145.5 523.5s212 484.333 323 661s283.833 246.667 518.5 210
c130 -20 219.833 -107.167 269.5 -261.5s100.834 -381.666 153.501 -681.999s67.167 -472.333 43.5 -516s-62 -74.167 -115 -91.5s-130.5 -24.833 -232.5 -22.5s-158 119.5 -168 351.5zM675.997 737.998c-4 -62 66.001 -86.334 210.001 -73.001
c149.333 -5.33301 201 79 155 253c-3.33301 106.667 -45.333 173 -126 199c-90.667 12.667 -170.334 -113.666 -239.001 -378.999zM635.998 1894c80.667 -5.33301 125.666 -42.667 134.999 -112s0.166016 -121.5 -27.501 -156.5s-83.667 -51.5 -168 -49.5
s-133.166 34.667 -146.499 98s-2.16602 117.333 33.501 162s93.5 64 173.5 58zM1223 1909c40 -15.333 68.333 -36.002 85 -62.002s18.667 -67 6 -123s-56 -87.667 -130 -95s-130.5 7.33398 -169.5 44.001s-51.667 84.834 -38 144.501s48.167 93.667 103.5 102
s103 4.83301 143 -10.5z" />
    <glyph glyph-name="Aring" unicode="&#xc5;" horiz-adv-x="1498" 
d="M977 284c-86 5.33301 -192.67 4.99805 -320.003 -1.00195c-11.333 -68.667 -35.666 -140.667 -72.999 -216s-98.166 -121.166 -182.499 -137.499s-164 -11.333 -239 15s-116.167 82 -123.5 167s41.167 259.5 145.5 523.5s212 484.333 323 661s283.833 246.667 518.5 210
c130 -20 219.833 -107.167 269.5 -261.5s100.834 -381.666 153.501 -681.999s67.167 -472.333 43.5 -516s-62 -74.167 -115 -91.5s-130.5 -24.833 -232.5 -22.5s-158 119.5 -168 351.5zM675.997 737.998c-4 -62 66.001 -86.334 210.001 -73.001
c149.333 -5.33301 201 79 155 253c-3.33301 106.667 -45.333 173 -126 199c-90.667 12.667 -170.334 -113.666 -239.001 -378.999zM762.998 1576c48.667 2 89.667 12.501 123 31.501s41 52.333 23 100s-40.5 80.667 -67.5 99s-69.667 24 -128 17s-88.5 -33.5 -90.5 -79.5
s8.66699 -85.833 32 -119.5s59.333 -49.834 108 -48.501zM411.998 1726c4.66699 74 40.665 138.334 107.998 193.001s157.333 85.667 270 93s195.5 -18 248.5 -76s75.333 -131.167 67 -219.5s-41.666 -162.833 -99.999 -223.5s-142.833 -88 -253.5 -82
s-196.167 41.667 -256.5 107s-88.166 134.666 -83.499 207.999z" />
    <glyph glyph-name="AE" unicode="&#xc6;" horiz-adv-x="1870" 
d="M481 413l-10.0049 -79.0039c-1.33301 -114.667 -0.666016 -207.167 2.00098 -277.5s-28.166 -115.833 -92.499 -136.5s-137.666 -24.667 -219.999 -12s-114.833 117.667 -97.5 315c-3.33301 316 53.667 619.833 171 911.5s318 451.167 602 478.5
c134 -42.667 268.667 -43.167 404 -1.5s296.666 43.167 483.999 4.5c76.667 -24 106.334 -63 89.001 -117c-8 -42 -17.833 -85.167 -29.5 -129.5s-50 -65.666 -115 -63.999s-129 7.83398 -192 18.501s-120.667 9.33398 -173 -3.99902s-94.666 -41.833 -126.999 -85.5
s-38.166 -153.5 -17.499 -329.5l304 32c152.667 -4.66699 177.667 -119.667 75 -345h-398c1.33301 -194.667 9.33301 -330 24 -406c92 -8 177.833 -4.5 257.5 10.5s141.667 21.833 186 20.5s64.5 -52.166 60.5 -152.499s-42.667 -154.5 -116 -162.5
c-342.667 -55.333 -579.667 -47 -711 25c-28.667 65.333 -44.667 137 -48 215c-7.33301 115.333 -16.5 200.833 -27.5 256.5s-105.833 60.5 -284.5 14.5zM561.995 922.996c-10 -98.667 17.999 -154.667 83.999 -168s123 -19.5 171 -18.5s75.833 59.5 83.5 175.5
s8.83398 191.167 3.50098 225.5s-42 67.833 -110 100.5s-121 13 -159 -59s-62.333 -157.333 -73 -256z" />
    <glyph glyph-name="Ccedilla" unicode="&#xc7;" horiz-adv-x="1370" 
d="M1033 -250c-24 -114.667 -107 -185.664 -249 -212.997c-98 -22.667 -192.333 -38 -283 -46c-106.667 -20 -186 20 -238 120c-4 90 6.16699 152 30.5 186s70.5 51.333 138.5 52s119 13.667 153 39s41.667 51.666 23 78.999l-161 56
c-94.667 55.333 -173.834 106.666 -237.501 153.999s-109.667 171 -138 371s28 443.5 169 730.5s364.833 431.833 671.5 434.5c232.667 -56 362.5 -122 389.5 -198s14.5 -185.667 -37.5 -329c-46.667 -46.667 -103 -45.334 -169 3.99902s-159.667 62.166 -281 38.499
s-209 -89.667 -263 -198s-89.333 -213.666 -106 -315.999s22.833 -194.666 118.5 -276.999s190.167 -112.833 283.5 -91.5s158.333 47.666 195 78.999s74.834 36 114.501 14s66.5 -47.667 80.5 -77s21 -63.666 21 -102.999c8 -51.333 -40 -113 -144 -185l-93 -58
c16 -96.667 20 -185.334 12 -266.001z" />
    <glyph glyph-name="Egrave" unicode="&#xc8;" horiz-adv-x="1279" 
d="M459 1195c0 -70.667 -3.66992 -156.335 -11.0029 -257.002c196.667 28.667 309 28.167 337 -1.5s44.333 -77 49 -142s1.33398 -124.333 -9.99902 -178s-118.333 -88.5 -321 -104.5c-2 -76 2 -137.667 12 -185c154 19.333 266 30.5 336 33.5s122.5 -38.5 157.5 -124.5
s36.5 -164 4.5 -234s-144.167 -117.667 -336.5 -143s-334.166 -35.166 -425.499 -29.499s-147.333 101.5 -168 287.5s-31 405.167 -31 657.5s11.833 464.833 35.5 637.5s93 262.834 208 270.501s201.833 11.334 260.5 11.001s138.667 -6.83301 240 -19.5
c110 -0.666992 172.833 -38.5 188.5 -113.5s23.834 -136.5 24.501 -184.5s-20.833 -89.167 -64.5 -123.5s-99 -51.833 -166 -52.5s-173.5 -2.33398 -319.5 -5.00098zM911.997 1821c-12.667 -19.333 -29.667 -37.333 -51 -54s-46 -29 -74 -37
c-26.667 -6.66699 -59 16.666 -97 69.999l-81 130c-36 64 -72.667 109.333 -110 136c-74.667 23.333 -96.667 53.666 -66 91c14.667 18.667 32 39.334 52 62c20 22.667 41.333 34.334 64 35c80.667 -11.333 160.667 -63.666 240 -156.999
c100 -156.667 141 -248.667 123 -276z" />
    <glyph glyph-name="Eacute" unicode="&#xc9;" horiz-adv-x="1279" 
d="M459 1195c0 -70.667 -3.66992 -156.335 -11.0029 -257.002c196.667 28.667 309 28.167 337 -1.5s44.333 -77 49 -142s1.33398 -124.333 -9.99902 -178s-118.333 -88.5 -321 -104.5c-2 -76 2 -137.667 12 -185c154 19.333 266 30.5 336 33.5s122.5 -38.5 157.5 -124.5
s36.5 -164 4.5 -234s-144.167 -117.667 -336.5 -143s-334.166 -35.166 -425.499 -29.499s-147.333 101.5 -168 287.5s-31 405.167 -31 657.5s11.833 464.833 35.5 637.5s93 262.834 208 270.501s201.833 11.334 260.5 11.001s138.667 -6.83301 240 -19.5
c110 -0.666992 172.833 -38.5 188.5 -113.5s23.834 -136.5 24.501 -184.5s-20.833 -89.167 -64.5 -123.5s-99 -51.833 -166 -52.5s-173.5 -2.33398 -319.5 -5.00098zM648.997 1742c-51.333 2.66699 -87.668 12.333 -109.001 29s-39.666 38.167 -54.999 64.5
s-13.666 59.833 5.00098 100.5s56.667 89.167 114 145.5s104.5 99.333 141.5 129s76 49.5 117 59.5s71.333 4.33301 91 -17s34.667 -48 45 -80s-32.334 -112.333 -128.001 -241s-169.5 -192 -221.5 -190z" />
    <glyph glyph-name="Ecircumflex" unicode="&#xca;" horiz-adv-x="1279" 
d="M459 1195c0 -70.667 -3.66992 -156.335 -11.0029 -257.002c196.667 28.667 309 28.167 337 -1.5s44.333 -77 49 -142s1.33398 -124.333 -9.99902 -178s-118.333 -88.5 -321 -104.5c-2 -76 2 -137.667 12 -185c154 19.333 266 30.5 336 33.5s122.5 -38.5 157.5 -124.5
s36.5 -164 4.5 -234s-144.167 -117.667 -336.5 -143s-334.166 -35.166 -425.499 -29.499s-147.333 101.5 -168 287.5s-31 405.167 -31 657.5s11.833 464.833 35.5 637.5s93 262.834 208 270.501s201.833 11.334 260.5 11.001s138.667 -6.83301 240 -19.5
c110 -0.666992 172.833 -38.5 188.5 -113.5s23.834 -136.5 24.501 -184.5s-20.833 -89.167 -64.5 -123.5s-99 -51.833 -166 -52.5s-173.5 -2.33398 -319.5 -5.00098zM948.997 1756c-22 0 -43 9.66797 -63 29.001c-150.667 91.333 -233 134 -247 128
s-106.667 -59.667 -278 -161c-55.333 -18.667 -94.166 -22.667 -116.499 -12s-36.333 26.5 -42 47.5s5.33301 73 33 156s85.834 164.5 174.501 244.5s159.667 112.667 213 98s105 -37.834 155 -69.5c50 -31.667 116.333 -93.834 199 -186.5
c82.667 -92.667 119.667 -155.334 111 -188.001s-27.834 -55.167 -57.501 -67.5s-56.834 -18.5 -81.501 -18.5z" />
    <glyph glyph-name="Edieresis" unicode="&#xcb;" horiz-adv-x="1279" 
d="M459 1195c0 -70.667 -3.66992 -156.335 -11.0029 -257.002c196.667 28.667 309 28.167 337 -1.5s44.333 -77 49 -142s1.33398 -124.333 -9.99902 -178s-118.333 -88.5 -321 -104.5c-2 -76 2 -137.667 12 -185c154 19.333 266 30.5 336 33.5s122.5 -38.5 157.5 -124.5
s36.5 -164 4.5 -234s-144.167 -117.667 -336.5 -143s-334.166 -35.166 -425.499 -29.499s-147.333 101.5 -168 287.5s-31 405.167 -31 657.5s11.833 464.833 35.5 637.5s93 262.834 208 270.501s201.833 11.334 260.5 11.001s138.667 -6.83301 240 -19.5
c110 -0.666992 172.833 -38.5 188.5 -113.5s23.834 -136.5 24.501 -184.5s-20.833 -89.167 -64.5 -123.5s-99 -51.833 -166 -52.5s-173.5 -2.33398 -319.5 -5.00098zM455.997 2012c80.667 -5.33301 125.666 -42.667 134.999 -112s0.166016 -121.5 -27.501 -156.5
s-83.667 -51.5 -168 -49.5s-133.166 34.667 -146.499 98s-2.16602 117.333 33.501 162s93.5 64 173.5 58zM1043 2027c40 -15.333 68.333 -36.002 85 -62.002s18.667 -67 6 -123s-56 -87.667 -130 -95s-130.5 7.33398 -169.5 44.001s-51.667 84.834 -38 144.501
s48.167 93.667 103.5 102s103 4.83301 143 -10.5z" />
    <glyph glyph-name="Igrave" unicode="&#xcc;" horiz-adv-x="1119" 
d="M405 1280c-15.333 -194 -23 -379.33 -23 -555.997c0 -46.667 1.33301 -104.334 4 -173.001s4 -126.334 4 -173.001c0 -62.667 5.33301 -138 16 -226s-4 -138.333 -44 -151c-44 0 -109.833 -6.16699 -197.5 -18.5s-88.5 55.167 -2.5 202.5
c6.66699 73.333 10 144.666 10 213.999c-3.33301 106.667 -8 188.334 -14 245.001s-9 128.5 -9 215.5s-14.667 190.167 -44 309.5c-60 197.333 -14.333 305.666 137 324.999c170.667 64 225 -7.33301 163 -214zM711 1752c-12.667 -19.333 -29.667 -37.332 -51 -53.999
s-46 -29 -74 -37c-26.667 -6.66699 -59 16.666 -97 69.999l-81 130c-36 64 -72.667 109.333 -110 136c-74.667 23.333 -96.667 53.666 -66 90.999c14.667 18.667 32 39.334 52 62c20 22.667 41.333 34.334 64 35c80.667 -11.333 160.667 -63.666 240 -156.999
c100 -156.667 141 -248.667 123 -276z" />
    <glyph glyph-name="Iacute" unicode="&#xcd;" horiz-adv-x="1119" 
d="M405 1280c-15.333 -194 -23 -379.33 -23 -555.997c0 -46.667 1.33301 -104.334 4 -173.001s4 -126.334 4 -173.001c0 -62.667 5.33301 -138 16 -226s-4 -138.333 -44 -151c-44 0 -109.833 -6.16699 -197.5 -18.5s-88.5 55.167 -2.5 202.5
c6.66699 73.333 10 144.666 10 213.999c-3.33301 106.667 -8 188.334 -14 245.001s-9 128.5 -9 215.5s-14.667 190.167 -44 309.5c-60 197.333 -14.333 305.666 137 324.999c170.667 64 225 -7.33301 163 -214zM426 1635c-51.333 2.66699 -87.668 12.333 -109.001 29
s-39.666 38.167 -54.999 64.5s-13.666 59.833 5.00098 100.5s56.667 89.167 114 145.5s104.5 99.333 141.5 129s76 49.5 117 59.5s71.333 4.33301 91 -17s34.667 -48 45 -80s-32.334 -112.333 -128.001 -241s-169.5 -192 -221.5 -190z" />
    <glyph glyph-name="Icircumflex" unicode="&#xce;" horiz-adv-x="1119" 
d="M405 1280c-15.333 -194 -23 -379.33 -23 -555.997c0 -46.667 1.33301 -104.334 4 -173.001s4 -126.334 4 -173.001c0 -62.667 5.33301 -138 16 -226s-4 -138.333 -44 -151c-44 0 -109.833 -6.16699 -197.5 -18.5s-88.5 55.167 -2.5 202.5
c6.66699 73.333 10 144.666 10 213.999c-3.33301 106.667 -8 188.334 -14 245.001s-9 128.5 -9 215.5s-14.667 190.167 -44 309.5c-60 197.333 -14.333 305.666 137 324.999c170.667 64 225 -7.33301 163 -214zM773 1676c-22 0 -43 9.66992 -63 29.0029
c-150.667 91.333 -233 134 -247 128s-106.667 -59.667 -278 -161c-55.333 -18.667 -94.166 -22.667 -116.499 -12s-36.333 26.5 -42 47.5s5.33301 73 33 156s85.834 164.5 174.501 244.5s159.667 112.667 213 98s105 -37.834 155 -69.501s116.333 -93.834 199 -186.501
s119.667 -155.334 111 -188.001s-27.834 -55.167 -57.501 -67.5s-56.834 -18.5 -81.501 -18.5z" />
    <glyph glyph-name="Idieresis" unicode="&#xcf;" horiz-adv-x="1119" 
d="M405 1280c-15.333 -194 -23 -379.33 -23 -555.997c0 -46.667 1.33301 -104.334 4 -173.001s4 -126.334 4 -173.001c0 -62.667 5.33301 -138 16 -226s-4 -138.333 -44 -151c-44 0 -109.833 -6.16699 -197.5 -18.5s-88.5 55.167 -2.5 202.5
c6.66699 73.333 10 144.666 10 213.999c-3.33301 106.667 -8 188.334 -14 245.001s-9 128.5 -9 215.5s-14.667 190.167 -44 309.5c-60 197.333 -14.333 305.666 137 324.999c170.667 64 225 -7.33301 163 -214zM268 1914c80.667 -5.33301 125.666 -42.667 134.999 -112
s0.166016 -121.5 -27.501 -156.5s-83.667 -51.5 -168 -49.5s-133.166 34.667 -146.499 98s-2.16602 117.333 33.501 162s93.5 64 173.5 58zM854.999 1929c40 -15.333 68.333 -36.002 85 -62.002s18.667 -67 6 -123s-56 -87.667 -130 -95s-130.5 7.33398 -169.5 44.001
s-51.667 84.834 -38 144.501s48.167 93.667 103.5 102s103 4.83301 143 -10.5z" />
    <glyph glyph-name="Eth" unicode="&#xd0;" horiz-adv-x="1474" 
d="M190 554c-83.333 -26.667 -129.502 22.666 -138.502 147.999s35.167 181 132.5 167l-3 235c-6 148.667 8.5 242.334 43.5 281.001s85.833 66.5 152.5 83.5s205.334 3 416.001 -42s364.834 -129.167 462.501 -252.5s158.5 -319 182.5 -587c0 -114 -26.667 -223 -80 -327
c-54 -106 -127.333 -190.333 -220 -253c-104 -70.667 -217.5 -106 -340.5 -106s-218.167 8.66699 -285.5 26s-135.5 32 -204.5 44s-108.667 51.333 -119 118s-9.83301 221.667 1.5 465zM549.998 1084l-7.00293 -222.002c90 -15.333 144.333 -23.666 163 -24.999
s28.834 -32.666 30.501 -93.999s-4.16602 -113.5 -17.499 -156.5s-55 -59.5 -125 -49.5l-105 -4l-4 -219c108.667 -48 210 -73.833 304 -77.5s169.667 14.666 227 54.999s101.5 95.166 132.5 164.499s40.333 144.333 28 225s-46.666 154.834 -102.999 222.501
s-123.833 115.834 -202.5 144.501s-185.667 40.667 -321 36z" />
    <glyph glyph-name="Ntilde" unicode="&#xd1;" horiz-adv-x="1632" 
d="M1555 258c3.33301 -59.333 -2 -166.998 -16 -322.998c-41.333 -13.333 -92.333 -21.333 -153 -24c-118 -28 -207.667 41.333 -269 208c-172.667 199.333 -416 420.666 -730 663.999c2 -142 1.5 -265.667 -1.5 -371s3.83301 -205 20.5 -299
c61.333 -168.667 13.333 -251.334 -144 -248.001c-57.333 3.33301 -106.666 11.666 -147.999 24.999c-43.333 64.667 -61.666 120.5 -54.999 167.5s12.167 90.333 16.5 130s10.166 82.167 17.499 127.5c6.66699 61.333 9.5 123 8.5 185s0.5 117 4.5 165
c0 54 3.16699 121.333 9.5 202s9.5 143 9.5 187c0 42 -4 104.5 -12 187.5s-12 145.5 -12 187.5c-24 105.333 -24.333 163.833 -1 175.5s68.333 22.834 135 33.501c123.333 26.667 209.666 -20.666 258.999 -141.999c138.667 -272.667 301.334 -479.334 488.001 -620.001
c124 -138 185.167 -175.167 183.5 -111.5s1.5 163.5 9.5 299.5c-9.33301 116 -17.833 198.5 -25.5 247.5s2.16602 95 29.499 138s105.333 67 234 72s179.667 -202.167 153 -621.5c-3.33301 -84 -6 -177.5 -8 -280.5s-3 -223.5 -3 -361.5zM1085 1805
c-26.667 -43.333 -49.667 -74.9971 -69 -94.9971c-37.333 -38 -86.5 -61.833 -147.5 -71.5s-121.167 2.5 -180.5 36.5s-108.5 67.167 -147.5 99.5s-69.5 26.166 -91.5 -18.501s-56.333 -56.834 -103 -36.501s-78.167 41.333 -94.5 63s-15 49.5 4 83.5s49.667 66.167 92 96.5
s89 46 140 47s124.667 -21 221 -66s160.5 -52.833 192.5 -23.5s63.833 38.166 95.5 26.499s58.5 -28.167 80.5 -49.5s24.667 -52 8 -92z" />
    <glyph glyph-name="Ograve" unicode="&#xd2;" horiz-adv-x="1635" 
d="M966 -67c-321.333 -32 -554.333 27.333 -699 178s-219.167 342.5 -223.5 575.5s54 441.667 175 626s277.667 290.833 470 319.5s355.833 23.834 490.5 -14.499s249.5 -121.5 344.5 -249.5s143 -298.833 144 -512.5s-35.167 -412.834 -108.5 -597.501s-271 -293 -593 -325
zM732 1184c-162 -25.333 -249.832 -144.169 -263.499 -356.502s33.666 -344.666 141.999 -396.999s212 -78.333 311 -78s181.333 28.333 247 84s112 160.667 139 315s-21.667 271.333 -146 351s-267.5 106.834 -429.5 81.501zM1178 1722
c-12.667 -19.333 -29.667 -37.332 -51 -53.999s-46 -29 -74 -37c-26.667 -6.66699 -59 16.666 -97 69.999l-81 130c-36 64 -72.667 109.333 -110 136c-74.667 23.333 -96.667 53.666 -66 90.999c14.667 18.667 32 39.334 52 62c20 22.667 41.333 34.334 64 35
c80.667 -11.333 160.667 -63.666 240 -156.999c100 -156.667 141 -248.667 123 -276z" />
    <glyph glyph-name="Oacute" unicode="&#xd3;" horiz-adv-x="1635" 
d="M966 -67c-321.333 -32 -554.333 27.333 -699 178s-219.167 342.5 -223.5 575.5s54 441.667 175 626s277.667 290.833 470 319.5s355.833 23.834 490.5 -14.499s249.5 -121.5 344.5 -249.5s143 -298.833 144 -512.5s-35.167 -412.834 -108.5 -597.501s-271 -293 -593 -325
zM732 1184c-162 -25.333 -249.832 -144.169 -263.499 -356.502s33.666 -344.666 141.999 -396.999s212 -78.333 311 -78s181.333 28.333 247 84s112 160.667 139 315s-21.667 271.333 -146 351s-267.5 106.834 -429.5 81.501zM871.001 1615
c-51.333 2.66699 -87.668 12.333 -109.001 29s-39.666 38.167 -54.999 64.5s-13.666 59.833 5.00098 100.5s56.667 89.167 114 145.5s104.5 99.333 141.5 129s76 49.5 117 59.5s71.333 4.33301 91 -17s34.667 -48 45 -80s-32.334 -112.333 -128.001 -241
s-169.5 -192 -221.5 -190z" />
    <glyph glyph-name="Ocircumflex" unicode="&#xd4;" horiz-adv-x="1635" 
d="M966 -67c-321.333 -32 -554.333 27.333 -699 178s-219.167 342.5 -223.5 575.5s54 441.667 175 626s277.667 290.833 470 319.5s355.833 23.834 490.5 -14.499s249.5 -121.5 344.5 -249.5s143 -298.833 144 -512.5s-35.167 -412.834 -108.5 -597.501s-271 -293 -593 -325
zM732 1184c-162 -25.333 -249.832 -144.169 -263.499 -356.502s33.666 -344.666 141.999 -396.999s212 -78.333 311 -78s181.333 28.333 247 84s112 160.667 139 315s-21.667 271.333 -146 351s-267.5 106.834 -429.5 81.501zM1178 1639c-22 0 -43 9.66992 -63 29.0029
c-150.667 91.333 -233 134 -247 128s-106.667 -59.667 -278 -161c-55.333 -18.667 -94.166 -22.667 -116.499 -12s-36.333 26.5 -42 47.5s5.33301 73 33 156s85.834 164.5 174.501 244.5s159.667 112.667 213 98s105 -37.834 155 -69.501s116.333 -93.834 199 -186.501
s119.667 -155.334 111 -188.001s-27.834 -55.167 -57.501 -67.5s-56.834 -18.5 -81.501 -18.5z" />
    <glyph glyph-name="Otilde" unicode="&#xd5;" horiz-adv-x="1635" 
d="M966 -67c-321.333 -32 -554.333 27.333 -699 178s-219.167 342.5 -223.5 575.5s54 441.667 175 626s277.667 290.833 470 319.5s355.833 23.834 490.5 -14.499s249.5 -121.5 344.5 -249.5s143 -298.833 144 -512.5s-35.167 -412.834 -108.5 -597.501s-271 -293 -593 -325
zM732 1184c-162 -25.333 -249.832 -144.169 -263.499 -356.502s33.666 -344.666 141.999 -396.999s212 -78.333 311 -78s181.333 28.333 247 84s112 160.667 139 315s-21.667 271.333 -146 351s-267.5 106.834 -429.5 81.501zM1241 1788
c-26.667 -43.333 -49.667 -74.9971 -69 -94.9971c-37.333 -38 -86.5 -61.833 -147.5 -71.5s-121.167 2.5 -180.5 36.5s-108.5 67.167 -147.5 99.5s-69.5 26.166 -91.5 -18.501s-56.333 -56.834 -103 -36.501s-78.167 41.333 -94.5 63s-15 49.5 4 83.5s49.667 66.167 92 96.5
s89 46 140 47s124.667 -21 221 -66s160.5 -52.833 192.5 -23.5s63.833 38.166 95.5 26.499s58.5 -28.167 80.5 -49.5s24.667 -52 8 -92z" />
    <glyph glyph-name="Odieresis" unicode="&#xd6;" horiz-adv-x="1635" 
d="M966 -67c-321.333 -32 -554.333 27.333 -699 178s-219.167 342.5 -223.5 575.5s54 441.667 175 626s277.667 290.833 470 319.5s355.833 23.834 490.5 -14.499s249.5 -121.5 344.5 -249.5s143 -298.833 144 -512.5s-35.167 -412.834 -108.5 -597.501s-271 -293 -593 -325
zM732 1184c-162 -25.333 -249.832 -144.169 -263.499 -356.502s33.666 -344.666 141.999 -396.999s212 -78.333 311 -78s181.333 28.333 247 84s112 160.667 139 315s-21.667 271.333 -146 351s-267.5 106.834 -429.5 81.501zM616.001 1920
c80.667 -5.33301 125.666 -42.667 134.999 -112s0.166016 -121.5 -27.501 -156.5s-83.667 -51.5 -168 -49.5s-133.166 34.667 -146.499 98s-2.16602 117.333 33.501 162s93.5 64 173.5 58zM1203 1935c40 -15.333 68.333 -36.002 85 -62.002s18.667 -67 6 -123
s-56 -87.667 -130 -95s-130.5 7.33398 -169.5 44.001s-51.667 84.834 -38 144.501s48.167 93.667 103.5 102s103 4.83301 143 -10.5z" />
    <glyph glyph-name="multiply" unicode="&#xd7;" horiz-adv-x="857" 
d="M629 643c16 -37.333 46.834 -84.5 92.501 -141.5s68.5 -101.333 68.5 -133s-9 -57 -27 -76s-51.333 -37.667 -100 -56s-90.834 2.66699 -126.501 63s-70.5 103.5 -104.5 129.5c-33.333 -24.667 -61.333 -50 -84 -76c-44.667 -48 -83.667 -70.833 -117 -68.5
s-61.333 12 -84 29s-37.667 40.833 -45 71.5s4.5 63.167 35.5 97.5s64.5 75.833 100.5 124.5c-87.333 90.667 -143.833 151.5 -169.5 182.5s-38.5 61.5 -38.5 91.5s7.83301 58.833 23.5 86.5s43.167 46.5 82.5 56.5s136.333 -53.667 291 -191c39.333 40 109 89.333 209 148
c36.667 24.667 65.5 27.167 86.5 7.5s42.833 -49 65.5 -88s19.667 -78.833 -9 -119.5s-78.667 -86.667 -150 -138z" />
    <glyph glyph-name="Oslash" unicode="&#xd8;" horiz-adv-x="1653" 
d="M1338 971c-46 -37.333 -118.833 -115.001 -218.5 -233.001s-249.834 -275 -450.501 -471c54 -20.667 146.333 -18.167 277 7.5s243.834 86.334 339.501 182.001s113.167 267.167 52.5 514.5zM1113 1155c-52 48.667 -130.168 65.499 -234.501 50.499
s-201.666 -75.5 -291.999 -181.5s-130.5 -256 -120.5 -450c214 160.667 429.667 354.334 647 581.001zM176.999 -39.002c-58.667 37.333 -89.833 68.666 -93.5 93.999s-2.5 64 3.5 116l84 112c-68 60.667 -107.167 182.5 -117.5 365.5s78.167 395.833 265.5 638.5
c186.667 202.667 401 299 643 289c162 -40.667 286 -96.667 372 -168c36 38.667 65.5 57 88.5 55s50.667 -18.333 83 -49s57 -68.5 74 -113.5s6.16699 -83.167 -32.5 -114.5c44 -133.333 63.5 -283 58.5 -449s-72.167 -344.667 -201.5 -536s-325.333 -278.666 -588 -261.999
c-174 0 -299 27.333 -375 82l-123 -107c-56 -10 -103 5.66699 -141 47z" />
    <glyph glyph-name="Ugrave" unicode="&#xd9;" horiz-adv-x="1509" 
d="M197 47c-67.333 102.667 -103.333 230.331 -108 382.998c-26 146 -34.333 353.667 -25 623c-3.33301 83.333 -6.33301 163.333 -9 240c-5.33301 70.667 -2.66602 142 8.00098 214c62 22.667 135.667 29.334 221 20.001c61.333 3.33301 87.333 -70.667 78 -222l24 -558
c-42 -407.333 59 -564.333 303 -471c99.333 52.667 168.5 117 207.5 193s30.5 195 -25.5 357c-86 193.333 -148.333 324 -187 392s72.666 128.667 333.999 182c57.333 -37.333 101 -107.666 131 -210.999l101 -297c128.667 -598.667 16.5 -922.167 -336.5 -970.5
s-591.833 -6.5 -716.5 125.5zM884 1708c-12.667 -19.333 -29.667 -37.332 -51 -53.999s-46 -29 -74 -37c-26.667 -6.66699 -59 16.666 -97 69.999l-81 130c-36 64 -72.667 109.333 -110 136c-74.667 23.333 -96.667 53.666 -66 90.999c14.667 18.667 32 39.334 52 62
c20 22.667 41.333 34.334 64 35c80.667 -11.333 160.667 -63.666 240 -156.999c100 -156.667 141 -248.667 123 -276z" />
    <glyph glyph-name="Uacute" unicode="&#xda;" horiz-adv-x="1509" 
d="M197 47c-67.333 102.667 -103.333 230.331 -108 382.998c-26 146 -34.333 353.667 -25 623c-3.33301 83.333 -6.33301 163.333 -9 240c-5.33301 70.667 -2.66602 142 8.00098 214c62 22.667 135.667 29.334 221 20.001c61.333 3.33301 87.333 -70.667 78 -222l24 -558
c-42 -407.333 59 -564.333 303 -471c99.333 52.667 168.5 117 207.5 193s30.5 195 -25.5 357c-86 193.333 -148.333 324 -187 392s72.666 128.667 333.999 182c57.333 -37.333 101 -107.666 131 -210.999l101 -297c128.667 -598.667 16.5 -922.167 -336.5 -970.5
s-591.833 -6.5 -716.5 125.5zM669 1621c-51.333 2.66699 -87.668 12.333 -109.001 29s-39.666 38.167 -54.999 64.5s-13.666 59.833 5.00098 100.5s56.667 89.167 114 145.5s104.5 99.333 141.5 129s76 49.5 117 59.5s71.333 4.33301 91 -17s34.667 -48 45 -80
s-32.334 -112.333 -128.001 -241s-169.5 -192 -221.5 -190z" />
    <glyph glyph-name="Ucircumflex" unicode="&#xdb;" horiz-adv-x="1509" 
d="M197 47c-67.333 102.667 -103.333 230.331 -108 382.998c-26 146 -34.333 353.667 -25 623c-3.33301 83.333 -6.33301 163.333 -9 240c-5.33301 70.667 -2.66602 142 8.00098 214c62 22.667 135.667 29.334 221 20.001c61.333 3.33301 87.333 -70.667 78 -222l24 -558
c-42 -407.333 59 -564.333 303 -471c99.333 52.667 168.5 117 207.5 193s30.5 195 -25.5 357c-86 193.333 -148.333 324 -187 392s72.666 128.667 333.999 182c57.333 -37.333 101 -107.666 131 -210.999l101 -297c128.667 -598.667 16.5 -922.167 -336.5 -970.5
s-591.833 -6.5 -716.5 125.5zM1016 1645c-22 0 -43 9.66992 -63 29.0029c-150.667 91.333 -233 134 -247 128s-106.667 -59.667 -278 -161c-55.333 -18.667 -94.166 -22.667 -116.499 -12s-36.333 26.5 -42 47.5s5.33301 73 33 156s85.834 164.5 174.501 244.5
s159.667 112.667 213 98s105 -37.834 155 -69.501s116.333 -93.834 199 -186.501s119.667 -155.334 111 -188.001s-27.834 -55.167 -57.501 -67.5s-56.834 -18.5 -81.501 -18.5z" />
    <glyph glyph-name="Udieresis" unicode="&#xdc;" horiz-adv-x="1509" 
d="M197 47c-67.333 102.667 -103.333 230.331 -108 382.998c-26 146 -34.333 353.667 -25 623c-3.33301 83.333 -6.33301 163.333 -9 240c-5.33301 70.667 -2.66602 142 8.00098 214c62 22.667 135.667 29.334 221 20.001c61.333 3.33301 87.333 -70.667 78 -222l24 -558
c-42 -407.333 59 -564.333 303 -471c99.333 52.667 168.5 117 207.5 193s30.5 195 -25.5 357c-86 193.333 -148.333 324 -187 392s72.666 128.667 333.999 182c57.333 -37.333 101 -107.666 131 -210.999l101 -297c128.667 -598.667 16.5 -922.167 -336.5 -970.5
s-591.833 -6.5 -716.5 125.5zM505 1897c80.667 -5.33301 125.666 -42.667 134.999 -112s0.166016 -121.5 -27.501 -156.5s-83.667 -51.5 -168 -49.5s-133.166 34.667 -146.499 98s-2.16602 117.333 33.501 162s93.5 64 173.5 58zM1092 1912
c40 -15.333 68.333 -36.002 85 -62.002s18.667 -67 6 -123s-56 -87.667 -130 -95s-130.5 7.33398 -169.5 44.001s-51.667 84.834 -38 144.501s48.167 93.667 103.5 102s103 4.83301 143 -10.5z" />
    <glyph glyph-name="Yacute" unicode="&#xdd;" horiz-adv-x="1301" 
d="M598 -82c-16 -45.333 -131.335 -54.002 -346.002 -26.002c-53.333 32.667 -28.666 146.667 74.001 342l152 360c10 18 -22.333 76 -97 174c-93.333 105.333 -177.333 227 -252 365s-71 233.167 11 285.5s149.667 62.5 203 30.5l312 -455
c22.667 -39.333 125 138.334 307 533.001c45.333 88.667 99.666 104.667 162.999 48c43.333 -20 81.333 -42.667 114 -68s39.834 -59.666 21.501 -102.999s-95.666 -204.333 -231.999 -483s-279.833 -613 -430.5 -1003zM567.998 1706
c-51.333 2.66699 -87.668 12.333 -109.001 29s-39.666 38.167 -54.999 64.5s-13.666 59.833 5.00098 100.5s56.667 89.167 114 145.5s104.5 99.333 141.5 129s76 49.5 117 59.5s71.333 4.33301 91 -17s34.667 -48 45 -80s-32.334 -112.333 -128.001 -241
s-169.5 -192 -221.5 -190z" />
    <glyph glyph-name="Thorn" unicode="&#xde;" horiz-adv-x="1222" 
d="M508 1097l-54 -523.002c74.667 -15.333 138.167 -14.666 190.5 2.00098s103.5 51.667 153.5 105s68.5 115.833 55.5 187.5s-50 125.834 -111 162.501s-139.167 58.667 -234.5 66zM428 213.998c2 -148 -13.001 -230.334 -45.001 -247.001s-69.333 -25 -112 -25
s-91.667 5.83301 -147 17.5s-69.833 108.334 -43.5 290.001s47.5 367.667 63.5 558s25.167 344.166 27.5 461.499s9 208.333 20 273s49.667 98.834 116 102.501s130 -2.83301 191 -19.5s93.167 -78 96.5 -184c133.333 -24.667 262.333 -82 387 -172
s193.5 -216.667 206.5 -380s-33.167 -309.333 -138.5 -438s-312.666 -207.667 -621.999 -237z" />
    <glyph glyph-name="germandbls" unicode="&#xdf;" horiz-adv-x="1181" 
d="M396 997c-12 -139.333 -18 -289.669 -18 -451.002c0 -40.667 1.16699 -101.667 3.5 -183s3.5 -142.666 3.5 -183.999c0 -102.667 -2.66699 -169.667 -8 -201c-14.667 -90 -40.667 -142.333 -78 -157c-44.667 -10.667 -83.834 -14.5 -117.501 -11.5s-64 8.66699 -91 17
s-41.5 45.5 -43.5 111.5c0.666992 594 21.334 1002.83 62.001 1226.5s97.834 366 171.501 427s200.5 82.5 380.5 64.5c136.667 -46.667 232 -113.667 286 -201c54 -89.333 83 -190 87 -302c-4 -143.333 -45.667 -256 -125 -338
c83.333 -89.333 143.833 -178.166 181.5 -266.499s49.5 -196.833 35.5 -325.5s-44 -227.5 -90 -296.5s-134.667 -106.833 -266 -113.5c-92.667 -32.667 -171 -24.667 -235 24c-54.667 136 -53 216.167 5 240.5s100.667 36.5 128 36.5c55.333 0 94.666 10.333 117.999 31
c26 22.667 39 62 39 118c0 127.333 -18.833 209 -56.5 245s-93.167 74.667 -166.5 116c-91.333 -1.33301 -126.333 47.334 -105 146.001c-3.33301 54 1.66699 104.333 15 151c141.333 60.667 212 129.5 212 206.5s-12.333 130 -37 159s-57.834 38.167 -99.501 27.5
s-81.167 -34.334 -118.5 -71.001s-61.666 -118.667 -72.999 -246z" />
    <glyph glyph-name="agrave" unicode="&#xe0;" horiz-adv-x="1048" 
d="M992 -129c-66 -45.333 -126.331 -18.668 -180.998 79.999c-78.667 -54 -146.5 -80.167 -203.5 -78.5s-124.833 14.334 -203.5 38.001s-159.667 72.167 -243 145.5c-76 88 -110.667 219.667 -104 395c14 166 76.5 306.333 187.5 421s243.5 172 397.5 172
c58 0 123 -15 195 -45c49.333 -22.667 85.833 -50.5 109.5 -83.5s37.167 -65.167 40.5 -96.5s8.66602 -74.333 15.999 -129s8.16602 -125.334 2.49902 -212.001s-3.5 -155.167 6.5 -205.5s20.5 -97.666 31.5 -141.999s29.833 -88.5 56.5 -132.5
c-2.66699 -30.667 -11.5 -53.5 -26.5 -68.5s-42.167 -34.5 -81.5 -58.5zM572.002 789.998c-98 -41.333 -161.17 -85.1641 -189.503 -131.497s-48.666 -122.833 -60.999 -229.5s15.834 -181.834 84.501 -225.501s167.334 -47.834 296.001 -12.501
c31.333 29.333 51 67.333 59 114c24.667 128 37.167 217.5 37.5 268.5s-2.16699 88.333 -7.5 112s-24.333 48.167 -57 73.5s-86.667 35.666 -162 30.999zM704.999 1246c-12.667 -19.333 -29.667 -37.334 -51 -54.001s-46 -29 -74 -37
c-26.667 -6.66699 -59 16.666 -97 69.999l-81 130c-36 64 -72.667 109.333 -110 136c-74.667 23.333 -96.667 53.666 -66 90.999c14.667 18.667 32 39.334 52 62.001s41.333 34.334 64 35.001c80.667 -11.333 160.667 -63.666 240 -156.999
c100 -156.667 141 -248.667 123 -276z" />
    <glyph glyph-name="aacute" unicode="&#xe1;" horiz-adv-x="1048" 
d="M992 -129c-66 -45.333 -126.331 -18.668 -180.998 79.999c-78.667 -54 -146.5 -80.167 -203.5 -78.5s-124.833 14.334 -203.5 38.001s-159.667 72.167 -243 145.5c-76 88 -110.667 219.667 -104 395c14 166 76.5 306.333 187.5 421s243.5 172 397.5 172
c58 0 123 -15 195 -45c49.333 -22.667 85.833 -50.5 109.5 -83.5s37.167 -65.167 40.5 -96.5s8.66602 -74.333 15.999 -129s8.16602 -125.334 2.49902 -212.001s-3.5 -155.167 6.5 -205.5s20.5 -97.666 31.5 -141.999s29.833 -88.5 56.5 -132.5
c-2.66699 -30.667 -11.5 -53.5 -26.5 -68.5s-42.167 -34.5 -81.5 -58.5zM572.002 789.998c-98 -41.333 -161.17 -85.1641 -189.503 -131.497s-48.666 -122.833 -60.999 -229.5s15.834 -181.834 84.501 -225.501s167.334 -47.834 296.001 -12.501
c31.333 29.333 51 67.333 59 114c24.667 128 37.167 217.5 37.5 268.5s-2.16699 88.333 -7.5 112s-24.333 48.167 -57 73.5s-86.667 35.666 -162 30.999zM484.999 1165c-51.333 2.66699 -87.668 12.333 -109.001 29s-39.666 38.167 -54.999 64.5
s-13.666 59.833 5.00098 100.5s56.667 89.167 114 145.5s104.5 99.333 141.5 129s76 49.5 117 59.5s71.333 4.33301 91 -17s34.667 -48 45 -80s-32.334 -112.333 -128.001 -241s-169.5 -192 -221.5 -190z" />
    <glyph glyph-name="acircumflex" unicode="&#xe2;" horiz-adv-x="1048" 
d="M992 -129c-66 -45.333 -126.331 -18.668 -180.998 79.999c-78.667 -54 -146.5 -80.167 -203.5 -78.5s-124.833 14.334 -203.5 38.001s-159.667 72.167 -243 145.5c-76 88 -110.667 219.667 -104 395c14 166 76.5 306.333 187.5 421s243.5 172 397.5 172
c58 0 123 -15 195 -45c49.333 -22.667 85.833 -50.5 109.5 -83.5s37.167 -65.167 40.5 -96.5s8.66602 -74.333 15.999 -129s8.16602 -125.334 2.49902 -212.001s-3.5 -155.167 6.5 -205.5s20.5 -97.666 31.5 -141.999s29.833 -88.5 56.5 -132.5
c-2.66699 -30.667 -11.5 -53.5 -26.5 -68.5s-42.167 -34.5 -81.5 -58.5zM572.002 789.998c-98 -41.333 -161.17 -85.1641 -189.503 -131.497s-48.666 -122.833 -60.999 -229.5s15.834 -181.834 84.501 -225.501s167.334 -47.834 296.001 -12.501
c31.333 29.333 51 67.333 59 114c24.667 128 37.167 217.5 37.5 268.5s-2.16699 88.333 -7.5 112s-24.333 48.167 -57 73.5s-86.667 35.666 -162 30.999zM757.999 1197c-22 0 -43 9.66992 -63 29.0029c-150.667 91.333 -233 134 -247 128s-106.667 -59.667 -278 -161
c-55.333 -18.667 -94.166 -22.667 -116.499 -12s-36.333 26.5 -42 47.5s5.33301 73 33 156s85.834 164.5 174.501 244.5s159.667 112.667 213 98s105 -37.834 155 -69.501s116.333 -93.834 199 -186.501s119.667 -155.334 111 -188.001s-27.834 -55.167 -57.501 -67.5
s-56.834 -18.5 -81.501 -18.5z" />
    <glyph glyph-name="atilde" unicode="&#xe3;" horiz-adv-x="1048" 
d="M992 -129c-66 -45.333 -126.331 -18.668 -180.998 79.999c-78.667 -54 -146.5 -80.167 -203.5 -78.5s-124.833 14.334 -203.5 38.001s-159.667 72.167 -243 145.5c-76 88 -110.667 219.667 -104 395c14 166 76.5 306.333 187.5 421s243.5 172 397.5 172
c58 0 123 -15 195 -45c49.333 -22.667 85.833 -50.5 109.5 -83.5s37.167 -65.167 40.5 -96.5s8.66602 -74.333 15.999 -129s8.16602 -125.334 2.49902 -212.001s-3.5 -155.167 6.5 -205.5s20.5 -97.666 31.5 -141.999s29.833 -88.5 56.5 -132.5
c-2.66699 -30.667 -11.5 -53.5 -26.5 -68.5s-42.167 -34.5 -81.5 -58.5zM572.002 789.998c-98 -41.333 -161.17 -85.1641 -189.503 -131.497s-48.666 -122.833 -60.999 -229.5s15.834 -181.834 84.501 -225.501s167.334 -47.834 296.001 -12.501
c31.333 29.333 51 67.333 59 114c24.667 128 37.167 217.5 37.5 268.5s-2.16699 88.333 -7.5 112s-24.333 48.167 -57 73.5s-86.667 35.666 -162 30.999zM855.999 1316c-26.667 -43.333 -49.667 -74.9971 -69 -94.9971c-37.333 -38 -86.5 -61.833 -147.5 -71.5
s-121.167 2.5 -180.5 36.5s-108.5 67.167 -147.5 99.5s-69.5 26.166 -91.5 -18.501s-56.333 -56.834 -103 -36.501s-78.167 41.333 -94.5 63s-15 49.5 4 83.5s49.667 66.167 92 96.5s89 46 140 47s124.667 -21 221 -66s160.5 -52.833 192.5 -23.5s63.833 38.166 95.5 26.499
s58.5 -28.167 80.5 -49.5s24.667 -52 8 -92z" />
    <glyph glyph-name="adieresis" unicode="&#xe4;" horiz-adv-x="1048" 
d="M992 -129c-66 -45.333 -126.331 -18.668 -180.998 79.999c-78.667 -54 -146.5 -80.167 -203.5 -78.5s-124.833 14.334 -203.5 38.001s-159.667 72.167 -243 145.5c-76 88 -110.667 219.667 -104 395c14 166 76.5 306.333 187.5 421s243.5 172 397.5 172
c58 0 123 -15 195 -45c49.333 -22.667 85.833 -50.5 109.5 -83.5s37.167 -65.167 40.5 -96.5s8.66602 -74.333 15.999 -129s8.16602 -125.334 2.49902 -212.001s-3.5 -155.167 6.5 -205.5s20.5 -97.666 31.5 -141.999s29.833 -88.5 56.5 -132.5
c-2.66699 -30.667 -11.5 -53.5 -26.5 -68.5s-42.167 -34.5 -81.5 -58.5zM572.002 789.998c-98 -41.333 -161.17 -85.1641 -189.503 -131.497s-48.666 -122.833 -60.999 -229.5s15.834 -181.834 84.501 -225.501s167.334 -47.834 296.001 -12.501
c31.333 29.333 51 67.333 59 114c24.667 128 37.167 217.5 37.5 268.5s-2.16699 88.333 -7.5 112s-24.333 48.167 -57 73.5s-86.667 35.666 -162 30.999zM278.999 1444c80.667 -5.33301 125.666 -42.667 134.999 -112s0.166016 -121.5 -27.501 -156.5
s-83.667 -51.5 -168 -49.5s-133.166 34.667 -146.499 98s-2.16602 117.333 33.501 162s93.5 64 173.5 58zM865.998 1459c40 -15.333 68.333 -36.002 85 -62.002s18.667 -67 6 -123s-56 -87.667 -130 -95s-130.5 7.33398 -169.5 44.001s-51.667 84.834 -38 144.501
s48.167 93.667 103.5 102s103 4.83301 143 -10.5z" />
    <glyph glyph-name="aring" unicode="&#xe5;" horiz-adv-x="1048" 
d="M992 -129c-66 -45.333 -126.331 -18.668 -180.998 79.999c-78.667 -54 -146.5 -80.167 -203.5 -78.5s-124.833 14.334 -203.5 38.001s-159.667 72.167 -243 145.5c-76 88 -110.667 219.667 -104 395c14 166 76.5 306.333 187.5 421s243.5 172 397.5 172
c58 0 123 -15 195 -45c49.333 -22.667 85.833 -50.5 109.5 -83.5s37.167 -65.167 40.5 -96.5s8.66602 -74.333 15.999 -129s8.16602 -125.334 2.49902 -212.001s-3.5 -155.167 6.5 -205.5s20.5 -97.666 31.5 -141.999s29.833 -88.5 56.5 -132.5
c-2.66699 -30.667 -11.5 -53.5 -26.5 -68.5s-42.167 -34.5 -81.5 -58.5zM572.002 789.998c-98 -41.333 -161.17 -85.1641 -189.503 -131.497s-48.666 -122.833 -60.999 -229.5s15.834 -181.834 84.501 -225.501s167.334 -47.834 296.001 -12.501
c31.333 29.333 51 67.333 59 114c24.667 128 37.167 217.5 37.5 268.5s-2.16699 88.333 -7.5 112s-24.333 48.167 -57 73.5s-86.667 35.666 -162 30.999zM407.999 1333c48.667 2 89.667 12.501 123 31.501s41 52.333 23 100s-40.5 80.667 -67.5 99s-69.667 24 -128 17
s-88.5 -33.5 -90.5 -79.5s8.66699 -85.833 32 -119.5s59.333 -49.834 108 -48.501zM56.999 1483c4.66699 74 40.665 138.334 107.998 193.001s157.333 85.667 270 93s195.5 -18 248.5 -76s75.333 -131.167 67 -219.5s-41.666 -162.833 -99.999 -223.5
s-142.833 -88 -253.5 -82s-196.167 41.667 -256.5 107s-88.166 134.666 -83.499 207.999z" />
    <glyph glyph-name="ae" unicode="&#xe6;" horiz-adv-x="1861" 
d="M1411 898c-48 24 -114.499 24.001 -199.499 0.000976562s-121.333 -95.167 -109 -213.5s47.833 -159.333 106.5 -123s116.834 68.166 174.501 95.499s90.667 54.5 99 81.5s10.666 54.333 6.99902 82s-29.834 53.5 -78.501 77.5zM210.001 98.001
c-89.333 95.333 -139.66 233.504 -150.993 414.504s48.167 317.333 178.5 409s243.666 141.5 339.999 149.5s177 -1.33301 242 -28s108.833 -67.334 131.5 -122.001c26 48 72 83.5 138 106.5s152.5 35.667 259.5 38s197.667 -26.667 272 -87
s113.166 -128.833 116.499 -205.5s-42.334 -157.834 -137.001 -243.501s-260 -156.834 -496 -213.501c85.333 -77.333 182.333 -112.5 291 -105.5s182.667 30.667 222 71s69.166 57 89.499 50s44.166 -22.167 71.499 -45.5s40.5 -63 39.5 -119s-47 -110.667 -138 -164
s-211.5 -80 -361.5 -80c-170.667 7.33301 -281.334 55.333 -332.001 144c3.33301 -13.333 6.66602 -36 9.99902 -68c2.66699 -27.333 -23 -41 -77 -41c-35.333 0 -78.333 -2.83301 -129 -8.5s-137 -6.83398 -259 -3.50098s-229 54 -321 152zM650.007 812.005
c-114.667 11.333 -203.331 -19.5 -265.998 -92.5s-92.834 -155.5 -90.501 -247.5s35.166 -168.667 98.499 -230c53.333 -62.667 116.333 -94 189 -94c39.333 0 75.5 7.5 108.5 22.5s60.667 27 83 36s39 69.5 50 181.5s6.5 204.5 -13.5 277.5s-43 115.667 -69 128
s-56 18.5 -90 18.5z" />
    <glyph glyph-name="ccedilla" unicode="&#xe7;" horiz-adv-x="1069" 
d="M783 -220c-16 -66.667 -36.332 -123.998 -60.999 -171.998s-69.667 -89.333 -135 -124c-81.333 3.33301 -155.333 12.666 -222 27.999c-101.333 52.667 -172.333 106.667 -213 162c6 108 60 176.333 162 205c68 -28.667 119.5 -44.834 154.5 -48.501s61.5 0.5 79.5 12.5
s19.167 23.667 3.5 35s-50.5 25 -104.5 41c-124.667 24 -219.334 78.167 -284.001 162.5s-102.5 195.333 -113.5 333s34.833 281.667 137.5 432s232.334 231.833 389.001 244.5c75.333 3.33301 164 -8.66699 266 -36c84 -46 139.667 -99 167 -159
c-12 -40.667 -28.667 -74 -50 -100s-47.666 -45.333 -78.999 -58c-38 -9.33301 -68.833 -5.83301 -92.5 10.5s-50.334 25 -80.001 26s-68 -8.66699 -115 -29s-94.5 -100.333 -142.5 -240s-60.333 -231 -37 -274s79 -78.5 167 -106.5c40 0 82.667 10.667 128 32l83 76l57 26
c37.333 6 68.166 -1.66699 92.499 -23s47.5 -61 69.5 -119s-44.333 -112 -199 -162c-22 -74 -31.333 -132.333 -28 -175z" />
    <glyph glyph-name="egrave" unicode="&#xe8;" horiz-adv-x="1122" 
d="M579 -70c-173.333 2.66699 -300 41.666 -380 116.999c-86 96.667 -139.333 221 -160 373c4.66699 171.333 52.334 321.333 143.001 450c84.667 121.333 211.334 186.333 380.001 195c135.333 9.33301 236 -13.667 302 -69c108.667 -50.667 173 -151 193 -301
c11.333 -69.333 -12.667 -129 -72 -179c-262.667 -175.333 -463 -234 -601 -176c-7.33301 -94 58.667 -152 198 -174c71.333 0 136.666 14 195.999 42l131.5 112.5c29.667 25.667 62.167 32.834 97.5 21.501c25.333 -22.667 44.833 -43.5 58.5 -62.5
s25.167 -41.167 34.5 -66.5c36.667 -42 -34.333 -112.333 -213 -211c-106.667 -45.333 -209.334 -69.333 -308.001 -72zM586 548.999c225.333 59.333 313.333 126.833 264 202.5s-130.5 95.834 -243.5 60.501s-199.167 -87.833 -258.5 -157.5s20 -104.834 238 -105.501z
M692 1252c-12.667 -19.333 -29.667 -37.334 -51 -54.001s-46 -29 -74 -37c-26.667 -6.66699 -59 16.666 -97 69.999l-81 130c-36 64 -72.667 109.333 -110 136c-74.667 23.333 -96.667 53.666 -66 90.999c14.667 18.667 32 39.334 52 62.001s41.333 34.334 64 35.001
c80.667 -11.333 160.667 -63.666 240 -156.999c100 -156.667 141 -248.667 123 -276z" />
    <glyph glyph-name="eacute" unicode="&#xe9;" horiz-adv-x="1122" 
d="M579 -70c-173.333 2.66699 -300 41.666 -380 116.999c-86 96.667 -139.333 221 -160 373c4.66699 171.333 52.334 321.333 143.001 450c84.667 121.333 211.334 186.333 380.001 195c135.333 9.33301 236 -13.667 302 -69c108.667 -50.667 173 -151 193 -301
c11.333 -69.333 -12.667 -129 -72 -179c-262.667 -175.333 -463 -234 -601 -176c-7.33301 -94 58.667 -152 198 -174c71.333 0 136.666 14 195.999 42l131.5 112.5c29.667 25.667 62.167 32.834 97.5 21.501c25.333 -22.667 44.833 -43.5 58.5 -62.5
s25.167 -41.167 34.5 -66.5c36.667 -42 -34.333 -112.333 -213 -211c-106.667 -45.333 -209.334 -69.333 -308.001 -72zM586 548.999c225.333 59.333 313.333 126.833 264 202.5s-130.5 95.834 -243.5 60.501s-199.167 -87.833 -258.5 -157.5s20 -104.834 238 -105.501z
M497 1165c-51.333 2.66699 -87.668 12.333 -109.001 29s-39.666 38.167 -54.999 64.5s-13.666 59.833 5.00098 100.5s56.667 89.167 114 145.5s104.5 99.333 141.5 129s76 49.5 117 59.5s71.333 4.33301 91 -17s34.667 -48 45 -80s-32.334 -112.333 -128.001 -241
s-169.5 -192 -221.5 -190z" />
    <glyph glyph-name="ecircumflex" unicode="&#xea;" horiz-adv-x="1122" 
d="M579 -70c-173.333 2.66699 -300 41.666 -380 116.999c-86 96.667 -139.333 221 -160 373c4.66699 171.333 52.334 321.333 143.001 450c84.667 121.333 211.334 186.333 380.001 195c135.333 9.33301 236 -13.667 302 -69c108.667 -50.667 173 -151 193 -301
c11.333 -69.333 -12.667 -129 -72 -179c-262.667 -175.333 -463 -234 -601 -176c-7.33301 -94 58.667 -152 198 -174c71.333 0 136.666 14 195.999 42l131.5 112.5c29.667 25.667 62.167 32.834 97.5 21.501c25.333 -22.667 44.833 -43.5 58.5 -62.5
s25.167 -41.167 34.5 -66.5c36.667 -42 -34.333 -112.333 -213 -211c-106.667 -45.333 -209.334 -69.333 -308.001 -72zM586 548.999c225.333 59.333 313.333 126.833 264 202.5s-130.5 95.834 -243.5 60.501s-199.167 -87.833 -258.5 -157.5s20 -104.834 238 -105.501z
M784 1189c-22 0 -43 9.66992 -63 29.0029c-150.667 91.333 -233 134 -247 128s-106.667 -59.667 -278 -161c-55.333 -18.667 -94.166 -22.667 -116.499 -12s-36.333 26.5 -42 47.5s5.33301 73 33 156s85.834 164.5 174.501 244.5s159.667 112.667 213 98
s105 -37.834 155 -69.501s116.333 -93.834 199 -186.501s119.667 -155.334 111 -188.001s-27.834 -55.167 -57.501 -67.5s-56.834 -18.5 -81.501 -18.5z" />
    <glyph glyph-name="edieresis" unicode="&#xeb;" horiz-adv-x="1122" 
d="M579 -70c-173.333 2.66699 -300 41.666 -380 116.999c-86 96.667 -139.333 221 -160 373c4.66699 171.333 52.334 321.333 143.001 450c84.667 121.333 211.334 186.333 380.001 195c135.333 9.33301 236 -13.667 302 -69c108.667 -50.667 173 -151 193 -301
c11.333 -69.333 -12.667 -129 -72 -179c-262.667 -175.333 -463 -234 -601 -176c-7.33301 -94 58.667 -152 198 -174c71.333 0 136.666 14 195.999 42l131.5 112.5c29.667 25.667 62.167 32.834 97.5 21.501c25.333 -22.667 44.833 -43.5 58.5 -62.5
s25.167 -41.167 34.5 -66.5c36.667 -42 -34.333 -112.333 -213 -211c-106.667 -45.333 -209.334 -69.333 -308.001 -72zM586 548.999c225.333 59.333 313.333 126.833 264 202.5s-130.5 95.834 -243.5 60.501s-199.167 -87.833 -258.5 -157.5s20 -104.834 238 -105.501z
M312 1541c80.667 -5.33301 125.666 -42.667 134.999 -112s0.166016 -121.5 -27.501 -156.5s-83.667 -51.5 -168 -49.5s-133.166 34.667 -146.499 98s-2.16602 117.333 33.501 162s93.5 64 173.5 58zM898.999 1556c40 -15.333 68.333 -36.002 85 -62.002s18.667 -67 6 -123
s-56 -87.667 -130 -95s-130.5 7.33398 -169.5 44.001s-51.667 84.834 -38 144.501s48.167 93.667 103.5 102s103 4.83301 143 -10.5z" />
    <glyph glyph-name="igrave" unicode="&#xec;" 
d="M343 92c-14.667 -73.333 -46.168 -111.5 -94.501 -114.5s-88 0 -119 9s-47.667 37.667 -50 86s-9.5 102.833 -21.5 163.5s-7 293.667 15 699c8.66699 88.667 36.667 136.834 84 144.501s85.333 5.16699 114 -7.5s47.334 -33.167 56.001 -61.5s13 -57.5 13 -87.5
c6.66699 -64.667 8.66699 -142.834 6 -234.501s-5 -163.667 -7 -216s-2.33301 -117.333 -1 -195s3 -139.5 5 -185.5zM410.999 1252c-12.667 -19.333 -29.667 -37.334 -51 -54.001s-46 -29 -74 -37c-26.667 -6.66699 -59 16.666 -97 69.999l-81 130
c-36 64 -72.667 109.333 -110 136c-74.667 23.333 -96.667 53.666 -66 90.999c14.667 18.667 32 39.334 52 62.001s41.333 34.334 64 35.001c80.667 -11.333 160.667 -63.666 240 -156.999c100 -156.667 141 -248.667 123 -276z" />
    <glyph glyph-name="iacute" unicode="&#xed;" 
d="M343 92c-14.667 -73.333 -46.168 -111.5 -94.501 -114.5s-88 0 -119 9s-47.667 37.667 -50 86s-9.5 102.833 -21.5 163.5s-7 293.667 15 699c8.66699 88.667 36.667 136.834 84 144.501s85.333 5.16699 114 -7.5s47.334 -33.167 56.001 -61.5s13 -57.5 13 -87.5
c6.66699 -64.667 8.66699 -142.834 6 -234.501s-5 -163.667 -7 -216s-2.33301 -117.333 -1 -195s3 -139.5 5 -185.5zM89.999 1165c-51.333 2.66699 -87.668 12.333 -109.001 29s-39.666 38.167 -54.999 64.5s-13.666 59.833 5.00098 100.5s56.667 89.167 114 145.5
s104.5 99.333 141.5 129s76 49.5 117 59.5s71.333 4.33301 91 -17s34.667 -48 45 -80s-32.334 -112.333 -128.001 -241s-169.5 -192 -221.5 -190z" />
    <glyph glyph-name="icircumflex" unicode="&#xee;" 
d="M343 92c-14.667 -73.333 -46.168 -111.5 -94.501 -114.5s-88 0 -119 9s-47.667 37.667 -50 86s-9.5 102.833 -21.5 163.5s-7 293.667 15 699c8.66699 88.667 36.667 136.834 84 144.501s85.333 5.16699 114 -7.5s47.334 -33.167 56.001 -61.5s13 -57.5 13 -87.5
c6.66699 -64.667 8.66699 -142.834 6 -234.501s-5 -163.667 -7 -216s-2.33301 -117.333 -1 -195s3 -139.5 5 -185.5zM452.999 1140c-22 0 -43 9.66992 -63 29.0029c-150.667 91.333 -233 134 -247 128s-106.667 -59.667 -278 -161
c-55.333 -18.667 -94.166 -22.667 -116.499 -12s-36.333 26.5 -42 47.5s5.33301 73 33 156s85.834 164.5 174.501 244.5s159.667 112.667 213 98s105 -37.834 155 -69.501s116.333 -93.834 199 -186.501s119.667 -155.334 111 -188.001s-27.834 -55.167 -57.501 -67.5
s-56.834 -18.5 -81.501 -18.5z" />
    <glyph glyph-name="idieresis" unicode="&#xef;" 
d="M343 92c-14.667 -73.333 -46.168 -111.5 -94.501 -114.5s-88 0 -119 9s-47.667 37.667 -50 86s-9.5 102.833 -21.5 163.5s-7 293.667 15 699c8.66699 88.667 36.667 136.834 84 144.501s85.333 5.16699 114 -7.5s47.334 -33.167 56.001 -61.5s13 -57.5 13 -87.5
c6.66699 -64.667 8.66699 -142.834 6 -234.501s-5 -163.667 -7 -216s-2.33301 -117.333 -1 -195s3 -139.5 5 -185.5zM-76.001 1444c80.667 -5.33301 125.666 -42.667 134.999 -112s0.166016 -121.5 -27.501 -156.5s-83.667 -51.5 -168 -49.5s-133.166 34.667 -146.499 98
s-2.16602 117.333 33.501 162s93.5 64 173.5 58zM510.998 1459c40 -15.333 68.333 -36.002 85 -62.002s18.667 -67 6 -123s-56 -87.667 -130 -95s-130.5 7.33398 -169.5 44.001s-51.667 84.834 -38 144.501s48.167 93.667 103.5 102s103 4.83301 143 -10.5z" />
    <glyph glyph-name="eth" unicode="&#xf0;" horiz-adv-x="984" 
d="M615 696c-49.333 32 -107.335 14.833 -174.002 -51.5s-117.167 -135 -151.5 -206s-27.166 -133.167 21.501 -186.5s110.334 -85.833 185.001 -97.5s127 16 157 83s47.333 136 52 207s-25.333 154.833 -90 251.5zM259.998 1295c-28 50.667 -44.502 91.167 -49.502 121.5
s6.66699 59 35 86s73.5 48.667 135.5 65s115.667 -25.167 161 -124.5c109.333 47.333 178.166 70.166 206.499 68.499s53.833 -19.5 76.5 -53.5s34 -65.333 34 -94s-11.333 -52 -34 -70l-127 -73c154 -256 234.333 -474.167 241 -654.5s-29.833 -329.166 -109.5 -446.499
s-195.167 -176 -346.5 -176s-262.166 43.667 -332.499 131s-108 193.5 -113 318.5s41 237 138 336s208.167 170.5 333.5 214.5c-12 52 -39.333 100.333 -82 145c-65.333 -53.333 -127.166 -45 -185.499 25s-52.166 130.333 18.501 181z" />
    <glyph glyph-name="ntilde" unicode="&#xf1;" horiz-adv-x="1072" 
d="M772 -89c-76.667 0 -110.334 16.665 -101.001 49.998l12 179c14.667 107.333 24.5 188.166 29.5 242.499s9.83301 92.333 14.5 114s-3.83301 48.834 -25.5 81.501s-58 56.334 -109 71.001s-94.667 -1.16602 -131 -47.499s-62.5 -95.166 -78.5 -146.499
s-27.667 -146.5 -35 -285.5s-16.5 -217.333 -27.5 -235s-38.167 -27.5 -81.5 -29.5c-41.333 -2.66699 -83.666 -4.33398 -126.999 -5.00098s-57.833 25.5 -43.5 78.5s23 174.5 26 364.5s5.83301 415.333 8.5 676c-4.66699 72.667 4.83301 110.167 28.5 112.5
s61.5 8.5 113.5 18.5c112 2.66699 165.333 -37 160 -119c62.667 25.333 153 38 271 38c106.667 0 192 -43.333 256 -130c36 -74.667 52.667 -168.667 50 -282l-3 -112l-9 -96c-4.66699 -62.667 -4 -133 2 -211s2.66699 -180.667 -10 -308c-52 -20 -115.333 -26.333 -190 -19
zM863 1335c-26.667 -43.333 -49.667 -74.9971 -69 -94.9971c-37.333 -38 -86.5 -61.833 -147.5 -71.5s-121.167 2.5 -180.5 36.5s-108.5 67.167 -147.5 99.5s-69.5 26.166 -91.5 -18.501s-56.333 -56.834 -103 -36.501s-78.167 41.333 -94.5 63s-15 49.5 4 83.5
s49.667 66.167 92 96.5s89 46 140 47s124.667 -21 221 -66s160.5 -52.833 192.5 -23.5s63.833 38.166 95.5 26.499s58.5 -28.167 80.5 -49.5s24.667 -52 8 -92z" />
    <glyph glyph-name="ograve" unicode="&#xf2;" horiz-adv-x="1077" 
d="M552 -99c-132 6.66699 -255.667 49.999 -371 129.999c-87.333 94.667 -133.333 227.667 -138 399c0.666992 159.333 38.667 295.333 114 408c104.667 160.667 246 228.334 424 203.001c133.333 0 241.333 -56.333 324 -169c58.667 -103.333 87 -224.333 85 -363
c2.66699 -157.333 -28 -288.333 -92 -393c-66.667 -123.333 -182 -195 -346 -215zM312 400.999c-10 -73.333 7.99805 -136 53.998 -188c44 -32.667 92.333 -45.667 145 -39c66.667 6.66699 128.667 36.334 186 89.001c52 38 84 119.667 96 245
c-29.333 138.667 -94.166 207 -194.499 205s-172.166 -34.833 -215.499 -98.5s-67 -134.834 -71 -213.501zM764.998 1252c-12.667 -19.333 -29.667 -37.334 -51 -54.001s-46 -29 -74 -37c-26.667 -6.66699 -59 16.666 -97 69.999l-81 130c-36 64 -72.667 109.333 -110 136
c-74.667 23.333 -96.667 53.666 -66 90.999c14.667 18.667 32 39.334 52 62.001s41.333 34.334 64 35.001c80.667 -11.333 160.667 -63.666 240 -156.999c100 -156.667 141 -248.667 123 -276z" />
    <glyph glyph-name="oacute" unicode="&#xf3;" horiz-adv-x="1077" 
d="M552 -99c-132 6.66699 -255.667 49.999 -371 129.999c-87.333 94.667 -133.333 227.667 -138 399c0.666992 159.333 38.667 295.333 114 408c104.667 160.667 246 228.334 424 203.001c133.333 0 241.333 -56.333 324 -169c58.667 -103.333 87 -224.333 85 -363
c2.66699 -157.333 -28 -288.333 -92 -393c-66.667 -123.333 -182 -195 -346 -215zM312 400.999c-10 -73.333 7.99805 -136 53.998 -188c44 -32.667 92.333 -45.667 145 -39c66.667 6.66699 128.667 36.334 186 89.001c52 38 84 119.667 96 245
c-29.333 138.667 -94.166 207 -194.499 205s-172.166 -34.833 -215.499 -98.5s-67 -134.834 -71 -213.501zM483.998 1165c-51.333 2.66699 -87.668 12.333 -109.001 29s-39.666 38.167 -54.999 64.5s-13.666 59.833 5.00098 100.5s56.667 89.167 114 145.5
s104.5 99.333 141.5 129s76 49.5 117 59.5s71.333 4.33301 91 -17s34.667 -48 45 -80s-32.334 -112.333 -128.001 -241s-169.5 -192 -221.5 -190z" />
    <glyph glyph-name="ocircumflex" unicode="&#xf4;" horiz-adv-x="1077" 
d="M552 -99c-132 6.66699 -255.667 49.999 -371 129.999c-87.333 94.667 -133.333 227.667 -138 399c0.666992 159.333 38.667 295.333 114 408c104.667 160.667 246 228.334 424 203.001c133.333 0 241.333 -56.333 324 -169c58.667 -103.333 87 -224.333 85 -363
c2.66699 -157.333 -28 -288.333 -92 -393c-66.667 -123.333 -182 -195 -346 -215zM312 400.999c-10 -73.333 7.99805 -136 53.998 -188c44 -32.667 92.333 -45.667 145 -39c66.667 6.66699 128.667 36.334 186 89.001c52 38 84 119.667 96 245
c-29.333 138.667 -94.166 207 -194.499 205s-172.166 -34.833 -215.499 -98.5s-67 -134.834 -71 -213.501zM766.998 1189c-22 0 -43 9.66992 -63 29.0029c-150.667 91.333 -233 134 -247 128s-106.667 -59.667 -278 -161c-55.333 -18.667 -94.166 -22.667 -116.499 -12
s-36.333 26.5 -42 47.5s5.33301 73 33 156s85.834 164.5 174.501 244.5s159.667 112.667 213 98s105 -37.834 155 -69.501s116.333 -93.834 199 -186.501s119.667 -155.334 111 -188.001s-27.834 -55.167 -57.501 -67.5s-56.834 -18.5 -81.501 -18.5z" />
    <glyph glyph-name="otilde" unicode="&#xf5;" horiz-adv-x="1077" 
d="M552 -99c-132 6.66699 -255.667 49.999 -371 129.999c-87.333 94.667 -133.333 227.667 -138 399c0.666992 159.333 38.667 295.333 114 408c104.667 160.667 246 228.334 424 203.001c133.333 0 241.333 -56.333 324 -169c58.667 -103.333 87 -224.333 85 -363
c2.66699 -157.333 -28 -288.333 -92 -393c-66.667 -123.333 -182 -195 -346 -215zM312 400.999c-10 -73.333 7.99805 -136 53.998 -188c44 -32.667 92.333 -45.667 145 -39c66.667 6.66699 128.667 36.334 186 89.001c52 38 84 119.667 96 245
c-29.333 138.667 -94.166 207 -194.499 205s-172.166 -34.833 -215.499 -98.5s-67 -134.834 -71 -213.501zM881.998 1335c-26.667 -43.333 -49.667 -74.9971 -69 -94.9971c-37.333 -38 -86.5 -61.833 -147.5 -71.5s-121.167 2.5 -180.5 36.5s-108.5 67.167 -147.5 99.5
s-69.5 26.166 -91.5 -18.501s-56.333 -56.834 -103 -36.501s-78.167 41.333 -94.5 63s-15 49.5 4 83.5s49.667 66.167 92 96.5s89 46 140 47s124.667 -21 221 -66s160.5 -52.833 192.5 -23.5s63.833 38.166 95.5 26.499s58.5 -28.167 80.5 -49.5s24.667 -52 8 -92z" />
    <glyph glyph-name="odieresis" unicode="&#xf6;" horiz-adv-x="1077" 
d="M552 -99c-132 6.66699 -255.667 49.999 -371 129.999c-87.333 94.667 -133.333 227.667 -138 399c0.666992 159.333 38.667 295.333 114 408c104.667 160.667 246 228.334 424 203.001c133.333 0 241.333 -56.333 324 -169c58.667 -103.333 87 -224.333 85 -363
c2.66699 -157.333 -28 -288.333 -92 -393c-66.667 -123.333 -182 -195 -346 -215zM312 400.999c-10 -73.333 7.99805 -136 53.998 -188c44 -32.667 92.333 -45.667 145 -39c66.667 6.66699 128.667 36.334 186 89.001c52 38 84 119.667 96 245
c-29.333 138.667 -94.166 207 -194.499 205s-172.166 -34.833 -215.499 -98.5s-67 -134.834 -71 -213.501zM309.998 1444c80.667 -5.33301 125.666 -42.667 134.999 -112s0.166016 -121.5 -27.501 -156.5s-83.667 -51.5 -168 -49.5s-133.166 34.667 -146.499 98
s-2.16602 117.333 33.501 162s93.5 64 173.5 58zM896.997 1459c40 -15.333 68.333 -36.002 85 -62.002s18.667 -67 6 -123s-56 -87.667 -130 -95s-130.5 7.33398 -169.5 44.001s-51.667 84.834 -38 144.501s48.167 93.667 103.5 102s103 4.83301 143 -10.5z" />
    <glyph glyph-name="divide" unicode="&#xf7;" horiz-adv-x="933" 
d="M914 661c4 -40.667 1.66699 -74.166 -7 -100.499s-50.5 -43.5 -125.5 -51.5s-147.333 -8.83301 -217 -2.5s-177 -2.83398 -322 -27.501s-221.5 23.333 -229.5 144c2 68 19.167 105.333 51.5 112s70.833 9.5 115.5 8.5s107.5 2.16699 188.5 9.5s158 14 231 20
s144.167 7 213.5 3s103 -42.333 101 -115zM416 1166c36 12.667 76.9971 12.001 122.997 -1.99902s69 -44.667 69 -92s-5.66699 -82 -17 -104s-32.666 -42.833 -63.999 -62.5s-61.666 -27.334 -90.999 -23.001s-56.666 21.666 -81.999 51.999s-30.333 73.333 -15 129
s41 89.834 77 102.501zM347.997 256.002c-6 28 0.666016 61.001 19.999 99.001s46.5 54.333 81.5 49s68.667 -17.833 101 -37.5s46.5 -47.334 42.5 -83.001s-15.833 -65.667 -35.5 -90s-49.167 -36.5 -88.5 -36.5s-67.666 9.5 -84.999 28.5s-29.333 42.5 -36 70.5z" />
    <glyph glyph-name="oslash" unicode="&#xf8;" horiz-adv-x="1060" 
d="M759 635l-348.999 -376.001c48.667 -63.333 119.167 -72.166 211.5 -26.499s147.166 112 164.499 199s8.33301 154.833 -27 203.5zM297.001 413.999c118 146.667 234.666 277.333 349.999 392c-29.333 20 -78.666 25.833 -147.999 17.5s-125 -50.833 -167 -127.5
s-53.667 -170.667 -35 -282zM169 -35.002c-49.333 9.33301 -78.166 23.6689 -86.499 43.002l-28 64.5c-10.333 23.667 10.5 63.5 62.5 119.5c-26.667 53.333 -41.667 134.666 -45 243.999c-4 150.667 31 292.5 105 425.5s207 191.5 399 175.5c104 0 172.667 -26 206 -78
c42.667 32.667 82 31.834 118 -2.49902s53.167 -60.833 51.5 -79.5s-12.167 -43.334 -31.5 -74.001c68.667 -121.333 95.167 -245.333 79.5 -372s-66 -242.334 -151 -347.001s-193.833 -157.5 -326.5 -158.5s-220.334 36.167 -263.001 111.5
c-29.333 -40.667 -59.333 -64.667 -90 -72z" />
    <glyph glyph-name="ugrave" unicode="&#xf9;" horiz-adv-x="1065" 
d="M954 18c0 -50 -15.002 -78.834 -45.002 -86.501s-59 -11.5 -87 -11.5c-70.667 -14 -108 -1.33301 -112 38c-74 -5.33301 -149.667 -16.333 -227 -33c-70.667 -2.66699 -153.5 9.33301 -248.5 36s-146.667 116.5 -155 269.5s-12.5 298.5 -12.5 436.5
c0 91.333 -2 167.666 -6 228.999c-10 77.333 30.333 111 121 101c47.333 2.66699 86 2.66699 116 0s47.333 -20.667 52 -54c-14 -102 -17.667 -197.167 -11 -285.5s10.334 -154.666 11.001 -198.999s12.5 -83 35.5 -116s62.5 -55.5 118.5 -67.5
c58.667 -2 107.334 24 146.001 78l14 89c-20 175.333 -39.333 315 -58 419c-23.333 70.667 20 108.334 130 113.001c95.333 16.667 146 3.66699 152 -39l40.5 -288.5c21 -149.667 29.5 -359.167 25.5 -628.5zM722.998 1260c-12.667 -19.333 -29.667 -37.334 -51 -54.001
s-46 -29 -74 -37c-26.667 -6.66699 -59 16.666 -97 69.999l-81 130c-36 64 -72.667 109.333 -110 136c-74.667 23.333 -96.667 53.666 -66 90.999c14.667 18.667 32 39.334 52 62.001s41.333 34.334 64 35.001c80.667 -11.333 160.667 -63.666 240 -156.999
c100 -156.667 141 -248.667 123 -276z" />
    <glyph glyph-name="uacute" unicode="&#xfa;" horiz-adv-x="1065" 
d="M954 18c0 -50 -15.002 -78.834 -45.002 -86.501s-59 -11.5 -87 -11.5c-70.667 -14 -108 -1.33301 -112 38c-74 -5.33301 -149.667 -16.333 -227 -33c-70.667 -2.66699 -153.5 9.33301 -248.5 36s-146.667 116.5 -155 269.5s-12.5 298.5 -12.5 436.5
c0 91.333 -2 167.666 -6 228.999c-10 77.333 30.333 111 121 101c47.333 2.66699 86 2.66699 116 0s47.333 -20.667 52 -54c-14 -102 -17.667 -197.167 -11 -285.5s10.334 -154.666 11.001 -198.999s12.5 -83 35.5 -116s62.5 -55.5 118.5 -67.5
c58.667 -2 107.334 24 146.001 78l14 89c-20 175.333 -39.333 315 -58 419c-23.333 70.667 20 108.334 130 113.001c95.333 16.667 146 3.66699 152 -39l40.5 -288.5c21 -149.667 29.5 -359.167 25.5 -628.5zM471.998 1165c-51.333 2.66699 -87.668 12.333 -109.001 29
s-39.666 38.167 -54.999 64.5s-13.666 59.833 5.00098 100.5s56.667 89.167 114 145.5s104.5 99.333 141.5 129s76 49.5 117 59.5s71.333 4.33301 91 -17s34.667 -48 45 -80s-32.334 -112.333 -128.001 -241s-169.5 -192 -221.5 -190z" />
    <glyph glyph-name="ucircumflex" unicode="&#xfb;" horiz-adv-x="1065" 
d="M954 18c0 -50 -15.002 -78.834 -45.002 -86.501s-59 -11.5 -87 -11.5c-70.667 -14 -108 -1.33301 -112 38c-74 -5.33301 -149.667 -16.333 -227 -33c-70.667 -2.66699 -153.5 9.33301 -248.5 36s-146.667 116.5 -155 269.5s-12.5 298.5 -12.5 436.5
c0 91.333 -2 167.666 -6 228.999c-10 77.333 30.333 111 121 101c47.333 2.66699 86 2.66699 116 0s47.333 -20.667 52 -54c-14 -102 -17.667 -197.167 -11 -285.5s10.334 -154.666 11.001 -198.999s12.5 -83 35.5 -116s62.5 -55.5 118.5 -67.5
c58.667 -2 107.334 24 146.001 78l14 89c-20 175.333 -39.333 315 -58 419c-23.333 70.667 20 108.334 130 113.001c95.333 16.667 146 3.66699 152 -39l40.5 -288.5c21 -149.667 29.5 -359.167 25.5 -628.5zM718.998 1189c-22 0 -43 9.66992 -63 29.0029
c-150.667 91.333 -233 134 -247 128s-106.667 -59.667 -278 -161c-55.333 -18.667 -94.166 -22.667 -116.499 -12s-36.333 26.5 -42 47.5s5.33301 73 33 156s85.834 164.5 174.501 244.5s159.667 112.667 213 98s105 -37.834 155 -69.501s116.333 -93.834 199 -186.501
s119.667 -155.334 111 -188.001s-27.834 -55.167 -57.501 -67.5s-56.834 -18.5 -81.501 -18.5z" />
    <glyph glyph-name="udieresis" unicode="&#xfc;" horiz-adv-x="1065" 
d="M954 18c0 -50 -15.002 -78.834 -45.002 -86.501s-59 -11.5 -87 -11.5c-70.667 -14 -108 -1.33301 -112 38c-74 -5.33301 -149.667 -16.333 -227 -33c-70.667 -2.66699 -153.5 9.33301 -248.5 36s-146.667 116.5 -155 269.5s-12.5 298.5 -12.5 436.5
c0 91.333 -2 167.666 -6 228.999c-10 77.333 30.333 111 121 101c47.333 2.66699 86 2.66699 116 0s47.333 -20.667 52 -54c-14 -102 -17.667 -197.167 -11 -285.5s10.334 -154.666 11.001 -198.999s12.5 -83 35.5 -116s62.5 -55.5 118.5 -67.5
c58.667 -2 107.334 24 146.001 78l14 89c-20 175.333 -39.333 315 -58 419c-23.333 70.667 20 108.334 130 113.001c95.333 16.667 146 3.66699 152 -39l40.5 -288.5c21 -149.667 29.5 -359.167 25.5 -628.5zM265.998 1536c80.667 -5.33301 125.666 -42.667 134.999 -112
s0.166016 -121.5 -27.501 -156.5s-83.667 -51.5 -168 -49.5s-133.166 34.667 -146.499 98s-2.16602 117.333 33.501 162s93.5 64 173.5 58zM852.997 1551c40 -15.333 68.333 -36.002 85 -62.002s18.667 -67 6 -123s-56 -87.667 -130 -95s-130.5 7.33398 -169.5 44.001
s-51.667 84.834 -38 144.501s48.167 93.667 103.5 102s103 4.83301 143 -10.5z" />
    <glyph glyph-name="yacute" unicode="&#xfd;" horiz-adv-x="1066" 
d="M710 -424c-78 -32.667 -142.001 -39.999 -192.001 -21.999c-52.667 6.66699 -91.5 15.167 -116.5 25.5s-35.833 69.166 -32.5 176.499c14.667 112.667 72 268 172 466l-221 229l-216 306c-55.333 94.667 -72.833 165.667 -52.5 213s46.833 89.833 79.5 127.5
s85.667 32.834 159 -14.499c60.667 -36.667 118.5 -92.5 173.5 -167.5s135.5 -175.167 241.5 -300.5l141 344c24.667 57.333 62.667 97.666 114 120.999c84.667 -2.66699 143.334 -20.5 176.001 -53.5s50.667 -79.833 54 -140.5c-50.667 -122 -126.167 -333.5 -226.5 -634.5
s-184.833 -526.167 -253.5 -675.5zM328.999 1165c-51.333 2.66699 -87.668 12.333 -109.001 29s-39.666 38.167 -54.999 64.5s-13.666 59.833 5.00098 100.5s56.667 89.167 114 145.5s104.5 99.333 141.5 129s76 49.5 117 59.5s71.333 4.33301 91 -17s34.667 -48 45 -80
s-32.334 -112.333 -128.001 -241s-169.5 -192 -221.5 -190z" />
    <glyph glyph-name="thorn" unicode="&#xfe;" horiz-adv-x="1286" 
d="M452 -94c-5.33301 -287.333 -17.168 -443.502 -35.501 -468.502s-64.5 -38.667 -138.5 -41s-122.333 14.5 -145 50.5s-40.5 227.667 -53.5 575s-20.833 686.333 -23.5 1017s24.833 501 82.5 511s109.834 11.833 156.501 5.5s85.167 -44.666 115.5 -114.999
s51.5 -196.166 63.5 -377.499c241.333 139.333 435.833 123.333 583.5 -48s206.334 -344.333 176.001 -519s-72.333 -315.5 -126 -422.5s-137.834 -170.167 -252.501 -189.5s-249 -12 -403 22zM434.998 710.998c8.66699 -151.333 21.666 -291 38.999 -419
c64 -36.667 131.833 -57.167 203.5 -61.5s136.5 18.167 194.5 67.5s77.333 138.833 58 268.5s-67.666 207.5 -144.999 233.5s-141.5 30.5 -192.5 13.5s-103.5 -51.167 -157.5 -102.5z" />
    <glyph glyph-name="ydieresis" unicode="&#xff;" horiz-adv-x="883" 
d="M710 -424c-78 -32.667 -142.001 -39.999 -192.001 -21.999c-52.667 6.66699 -91.5 15.167 -116.5 25.5s-35.833 69.166 -32.5 176.499c14.667 112.667 72 268 172 466l-221 229l-216 306c-55.333 94.667 -72.833 165.667 -52.5 213s46.833 89.833 79.5 127.5
s85.667 32.834 159 -14.499c60.667 -36.667 118.5 -92.5 173.5 -167.5s135.5 -175.167 241.5 -300.5l141 344c24.667 57.333 62.667 97.666 114 120.999c84.667 -2.66699 143.334 -20.5 176.001 -53.5s50.667 -79.833 54 -140.5c-50.667 -122 -126.167 -333.5 -226.5 -634.5
s-184.833 -526.167 -253.5 -675.5zM177.999 1444c80.667 -5.33301 125.666 -42.667 134.999 -112s0.166016 -121.5 -27.501 -156.5s-83.667 -51.5 -168 -49.5s-133.166 34.667 -146.499 98s-2.16602 117.333 33.501 162s93.5 64 173.5 58zM764.998 1459
c40 -15.333 68.333 -36.002 85 -62.002s18.667 -67 6 -123s-56 -87.667 -130 -95s-130.5 7.33398 -169.5 44.001s-51.667 84.834 -38 144.501s48.167 93.667 103.5 102s103 4.83301 143 -10.5z" />
    <glyph glyph-name="Amacron" unicode="&#x100;" horiz-adv-x="1498" 
d="M977 284c-86 5.33301 -192.67 4.99805 -320.003 -1.00195c-11.333 -68.667 -35.666 -140.667 -72.999 -216s-98.166 -121.166 -182.499 -137.499s-164 -11.333 -239 15s-116.167 82 -123.5 167s41.167 259.5 145.5 523.5s212 484.333 323 661s283.833 246.667 518.5 210
c130 -20 219.833 -107.167 269.5 -261.5s100.834 -381.666 153.501 -681.999s67.167 -472.333 43.5 -516s-62 -74.167 -115 -91.5s-130.5 -24.833 -232.5 -22.5s-158 119.5 -168 351.5zM675.997 737.998c-4 -62 66.001 -86.334 210.001 -73.001
c149.333 -5.33301 201 79 155 253c-3.33301 106.667 -45.333 173 -126 199c-90.667 12.667 -170.334 -113.666 -239.001 -378.999zM1123 1715c2.66699 -54 -15.832 -80.833 -55.499 -80.5s-138.667 1.66602 -297 3.99902s-253.833 3.5 -286.5 3.5
c-64.667 0.666992 -92.334 27 -83.001 79c-2.66699 50 15 75.333 53 76c50.667 15.333 112.667 23 186 23s174 -2.16699 302 -6.5s188.333 -37.166 181 -98.499z" />
    <glyph glyph-name="amacron" unicode="&#x101;" horiz-adv-x="1048" 
d="M977 -129c-66 -45.333 -126.331 -18.668 -180.998 79.999c-78.667 -54 -146.5 -80.167 -203.5 -78.5s-124.833 14.334 -203.5 38.001s-159.667 72.167 -243 145.5c-76 88 -110.667 219.667 -104 395c14 166 76.5 306.333 187.5 421s243.5 172 397.5 172
c58 0 123 -15 195 -45c49.333 -22.667 85.833 -50.5 109.5 -83.5s37.167 -65.167 40.5 -96.5s8.66602 -74.333 15.999 -129s8.16602 -125.334 2.49902 -212.001s-3.5 -155.167 6.5 -205.5s20.5 -97.666 31.5 -141.999s29.833 -88.5 56.5 -132.5
c-2.66699 -30.667 -11.5 -53.5 -26.5 -68.5s-42.167 -34.5 -81.5 -58.5zM557.002 789.998c-98 -41.333 -161.17 -85.1641 -189.503 -131.497s-48.666 -122.833 -60.999 -229.5s15.834 -181.834 84.501 -225.501s167.334 -47.834 296.001 -12.501
c31.333 29.333 51 67.333 59 114c24.667 128 37.167 217.5 37.5 268.5s-2.16699 88.333 -7.5 112s-24.333 48.167 -57 73.5s-86.667 35.666 -162 30.999zM763.999 1265c2.66699 -54 -15.832 -80.833 -55.499 -80.5s-138.667 1.66602 -297 3.99902s-253.833 3.5 -286.5 3.5
c-64.667 0.666992 -92.334 27 -83.001 79c-2.66699 50 15 75.333 53 76c50.667 15.333 112.667 23 186 23s174 -2.16699 302 -6.5s188.333 -37.166 181 -98.499z" />
    <glyph glyph-name="Abreve" unicode="&#x102;" horiz-adv-x="1498" 
d="M977 284c-86 5.33301 -192.67 4.99805 -320.003 -1.00195c-11.333 -68.667 -35.666 -140.667 -72.999 -216s-98.166 -121.166 -182.499 -137.499s-164 -11.333 -239 15s-116.167 82 -123.5 167s41.167 259.5 145.5 523.5s212 484.333 323 661s283.833 246.667 518.5 210
c130 -20 219.833 -107.167 269.5 -261.5s100.834 -381.666 153.501 -681.999s67.167 -472.333 43.5 -516s-62 -74.167 -115 -91.5s-130.5 -24.833 -232.5 -22.5s-158 119.5 -168 351.5zM675.997 737.998c-4 -62 66.001 -86.334 210.001 -73.001
c149.333 -5.33301 201 79 155 253c-3.33301 106.667 -45.333 173 -126 199c-90.667 12.667 -170.334 -113.666 -239.001 -378.999zM1124 1923c28.667 -24.667 55.1621 -50.6641 79.4951 -77.9971s-16 -78.166 -121 -152.499s-219 -109 -342 -104s-215.167 45.333 -276.5 121
s-99.666 156.5 -114.999 242.5c-9.33301 43.333 15.834 76.666 75.501 99.999s107 6.16602 142 -51.501s69.833 -94.167 104.5 -109.5s92.834 -22.333 174.501 -21s142.834 18.666 183.501 51.999s72.334 33.666 95.001 0.999023z" />
    <glyph glyph-name="abreve" unicode="&#x103;" horiz-adv-x="1048" 
d="M977 -129c-66 -45.333 -126.331 -18.668 -180.998 79.999c-78.667 -54 -146.5 -80.167 -203.5 -78.5s-124.833 14.334 -203.5 38.001s-159.667 72.167 -243 145.5c-76 88 -110.667 219.667 -104 395c14 166 76.5 306.333 187.5 421s243.5 172 397.5 172
c58 0 123 -15 195 -45c49.333 -22.667 85.833 -50.5 109.5 -83.5s37.167 -65.167 40.5 -96.5s8.66602 -74.333 15.999 -129s8.16602 -125.334 2.49902 -212.001s-3.5 -155.167 6.5 -205.5s20.5 -97.666 31.5 -141.999s29.833 -88.5 56.5 -132.5
c-2.66699 -30.667 -11.5 -53.5 -26.5 -68.5s-42.167 -34.5 -81.5 -58.5zM557.002 789.998c-98 -41.333 -161.17 -85.1641 -189.503 -131.497s-48.666 -122.833 -60.999 -229.5s15.834 -181.834 84.501 -225.501s167.334 -47.834 296.001 -12.501
c31.333 29.333 51 67.333 59 114c24.667 128 37.167 217.5 37.5 268.5s-2.16699 88.333 -7.5 112s-24.333 48.167 -57 73.5s-86.667 35.666 -162 30.999zM754.999 1473c28.667 -24.667 55.1621 -50.6641 79.4951 -77.9971s-16 -78.166 -121 -152.499s-219 -109 -342 -104
s-215.167 45.333 -276.5 121s-99.666 156.5 -114.999 242.5c-9.33301 43.333 15.834 76.666 75.501 99.999s107 6.16602 142 -51.501s69.833 -94.167 104.5 -109.5s92.834 -22.333 174.501 -21s142.834 18.666 183.501 51.999s72.334 33.666 95.001 0.999023z" />
    <glyph glyph-name="Aogonek" unicode="&#x104;" horiz-adv-x="1478" 
d="M1380 -321c-50.667 -30.667 -125.001 -45.9971 -223.001 -45.9971s-165.5 37.333 -202.5 112s-59.167 137.667 -66.5 189s-10.666 108.166 -9.99902 170.499s2 130.833 4 205.5c-140.667 6 -271 12.667 -391 20c-26 -56.667 -44.5 -127.834 -55.5 -213.501
s-87.833 -137.834 -230.5 -156.501c-57.333 11.333 -103.166 24.833 -137.499 40.5s-50.5 40.5 -48.5 74.5s40.667 186.667 116 458s186.333 508 333 710s276 287.833 388 257.5s178 -92 198 -185s50.667 -216.5 92 -370.5l113.5 -428c34.333 -131.333 61 -242.5 80 -333.5
s3 -149.333 -48 -175s-81.5 -42 -91.5 -49s-17 -18 -21 -33s7.66699 -36.167 35 -63.5s73.666 -41.333 138.999 -42s74.333 -48 27 -142zM902.999 727.003c-29.333 82 -54.334 169.001 -75.001 261.001c-43.333 -28.667 -114 -112.334 -212 -251.001
c80.667 -28.667 176.334 -32 287.001 -10z" />
    <glyph glyph-name="aogonek" unicode="&#x105;" horiz-adv-x="1224" 
d="M743 -86c-104.667 -22 -220.998 -22.833 -348.998 -2.5s-221.5 73.833 -280.5 160.5s-87.167 215.834 -84.5 387.501s55.167 317 157.5 436s220.333 182.167 354 189.5s249.834 -14.5 348.501 -65.5s148.5 -116.333 149.5 -196s0.333008 -181 -2 -304
s6.16699 -248.667 25.5 -377s8.16602 -203 -33.501 -224s-47.834 -39.333 -18.501 -55s66.666 -20 111.999 -13s60 -23.667 44 -92s-55 -102.5 -117 -102.5s-120.5 25.667 -175.5 77s-98.5 111.666 -130.5 180.999zM325.002 503c-11.333 -84 24.667 -157.668 108 -221.001
c100.667 -55.333 179.667 -78.5 237 -69.5s88.333 63.333 93 163s7 180.667 7 243s-35.5 103.333 -106.5 123s-145.167 7.33398 -222.5 -36.999s-116 -111.5 -116 -201.5z" />
    <glyph glyph-name="Cacute" unicode="&#x106;" horiz-adv-x="1234" 
d="M1241 118c-184 -128.667 -354.333 -194.167 -511 -196.5s-291 43.334 -403 137.001s-190 236.5 -234 428.5s-9.5 410.833 103.5 656.5s267 407 462 484s319.833 104.5 374.5 82.5c70.667 -30.667 120.334 -90.667 149.001 -180c20 -67.333 22 -138.333 6 -213
c-10.667 -30 -26 -56.167 -46 -78.5s-95.667 -57 -227 -104s-234.333 -140.5 -309 -280.5s-107.834 -252.333 -99.501 -337s58.5 -133.334 150.5 -146.001s170 0.333008 234 39s117.667 72.5 161 101.5s96.5 25 159.5 -12s98.833 -81.5 107.5 -133.5
s-17.333 -134.667 -78 -248zM636 1615c-51.333 2.66699 -87.668 12.334 -109.001 29.001s-39.666 38.167 -54.999 64.5s-13.666 59.833 5.00098 100.5s56.667 89.167 114 145.5s104.5 99.333 141.5 128.999c37 29.667 76 49.5 117 59.5s71.333 4.33301 91 -17
s34.667 -48 45 -80s-32.334 -112.333 -128.001 -241s-169.5 -192 -221.5 -190z" />
    <glyph glyph-name="cacute" unicode="&#x107;" horiz-adv-x="1052" 
d="M593 -81c-129.333 -9.33301 -243.333 26.3311 -342 106.998c-114.667 79.333 -182.667 199.333 -204 360c-9.33301 86 -3 176.667 19 272c60 202 150 339.333 270 412s273 68 459 -14c107.333 -46.667 178.333 -107.667 213 -183
c-6.66699 -30 -18.334 -59.5 -35.001 -88.5s-49 -49.5 -97 -61.5c-40.667 16.667 -82.167 37.834 -124.5 63.501s-98.5 46.834 -168.5 63.501s-138.333 -35.666 -205 -156.999c-44 -94.667 -66 -180.334 -66 -257.001s13.333 -145 40 -205
c72.667 -70.667 149.334 -103.667 230.001 -99c42.667 7.33301 85.334 24 128.001 50l95 51c22.667 20 49 33.667 79 41l60 -68.5c18 -19.667 38.167 -38 60.5 -55s-16.834 -68.167 -117.501 -153.5c-92 -52 -190 -78 -294 -78zM416 1165
c-51.333 2.66699 -87.668 12.333 -109.001 29s-39.666 38.167 -54.999 64.5s-13.666 59.833 5.00098 100.5s56.667 89.167 114 145.5s104.5 99.333 141.5 129s76 49.5 117 59.5s71.333 4.33301 91 -17s34.667 -48 45 -80s-32.334 -112.333 -128.001 -241
s-169.5 -192 -221.5 -190z" />
    <glyph glyph-name="Ccircumflex" unicode="&#x108;" horiz-adv-x="1234" 
d="M1241 118c-184 -128.667 -354.333 -194.167 -511 -196.5s-291 43.334 -403 137.001s-190 236.5 -234 428.5s-9.5 410.833 103.5 656.5s267 407 462 484s319.833 104.5 374.5 82.5c70.667 -30.667 120.334 -90.667 149.001 -180c20 -67.333 22 -138.333 6 -213
c-10.667 -30 -26 -56.167 -46 -78.5s-95.667 -57 -227 -104s-234.333 -140.5 -309 -280.5s-107.834 -252.333 -99.501 -337s58.5 -133.334 150.5 -146.001s170 0.333008 234 39s117.667 72.5 161 101.5s96.5 25 159.5 -12s98.833 -81.5 107.5 -133.5
s-17.333 -134.667 -78 -248zM978 1639c-22 0 -43 9.66895 -63 29.002c-150.667 91.333 -233 134 -247 128s-106.667 -59.667 -278 -161c-55.333 -18.667 -94.166 -22.667 -116.499 -12s-36.333 26.5 -42 47.5s5.33301 73 33 156s85.834 164.5 174.501 244.5
s159.667 112.667 213 98s105 -37.834 155 -69.5c50 -31.667 116.333 -93.834 199 -186.501s119.667 -155.334 111 -188.001s-27.834 -55.167 -57.501 -67.5s-56.834 -18.5 -81.501 -18.5z" />
    <glyph glyph-name="ccircumflex" unicode="&#x109;" horiz-adv-x="1052" 
d="M593 -81c-129.333 -9.33301 -243.333 26.3311 -342 106.998c-114.667 79.333 -182.667 199.333 -204 360c-9.33301 86 -3 176.667 19 272c60 202 150 339.333 270 412s273 68 459 -14c107.333 -46.667 178.333 -107.667 213 -183
c-6.66699 -30 -18.334 -59.5 -35.001 -88.5s-49 -49.5 -97 -61.5c-40.667 16.667 -82.167 37.834 -124.5 63.501s-98.5 46.834 -168.5 63.501s-138.333 -35.666 -205 -156.999c-44 -94.667 -66 -180.334 -66 -257.001s13.333 -145 40 -205
c72.667 -70.667 149.334 -103.667 230.001 -99c42.667 7.33301 85.334 24 128.001 50l95 51c22.667 20 49 33.667 79 41l60 -68.5c18 -19.667 38.167 -38 60.5 -55s-16.834 -68.167 -117.501 -153.5c-92 -52 -190 -78 -294 -78zM788 1090c-22 0 -43 9.66992 -63 29.0029
c-150.667 91.333 -233 134 -247 128s-106.667 -59.667 -278 -161c-55.333 -18.667 -94.166 -22.667 -116.499 -12s-36.333 26.5 -42 47.5s5.33301 73 33 156s85.834 164.5 174.501 244.5s159.667 112.667 213 98s105 -37.834 155 -69.501s116.333 -93.834 199 -186.501
s119.667 -155.334 111 -188.001s-27.834 -55.167 -57.501 -67.5s-56.834 -18.5 -81.501 -18.5z" />
    <glyph glyph-name="Cdot" unicode="&#x10a;" horiz-adv-x="1234" 
d="M1241 118c-184 -128.667 -354.333 -194.167 -511 -196.5s-291 43.334 -403 137.001s-190 236.5 -234 428.5s-9.5 410.833 103.5 656.5s267 407 462 484s319.833 104.5 374.5 82.5c70.667 -30.667 120.334 -90.667 149.001 -180c20 -67.333 22 -138.333 6 -213
c-10.667 -30 -26 -56.167 -46 -78.5s-95.667 -57 -227 -104s-234.333 -140.5 -309 -280.5s-107.834 -252.333 -99.501 -337s58.5 -133.334 150.5 -146.001s170 0.333008 234 39s117.667 72.5 161 101.5s96.5 25 159.5 -12s98.833 -81.5 107.5 -133.5
s-17.333 -134.667 -78 -248zM723 1728c-2 -34.667 -12.833 -59.5 -32.5 -74.5s-44.834 -24.5 -75.501 -28.5s-58.834 -2.66699 -84.501 4s-45.5 29.334 -59.5 68.001s-9.16699 76.167 14.5 112.5s59.834 57.166 108.501 62.499s82.834 -8.5 102.501 -41.5
s28.5 -67.167 26.5 -102.5z" />
    <glyph glyph-name="cdot" unicode="&#x10b;" horiz-adv-x="1052" 
d="M593 -81c-129.333 -9.33301 -243.333 26.3311 -342 106.998c-114.667 79.333 -182.667 199.333 -204 360c-9.33301 86 -3 176.667 19 272c60 202 150 339.333 270 412s273 68 459 -14c107.333 -46.667 178.333 -107.667 213 -183
c-6.66699 -30 -18.334 -59.5 -35.001 -88.5s-49 -49.5 -97 -61.5c-40.667 16.667 -82.167 37.834 -124.5 63.501s-98.5 46.834 -168.5 63.501s-138.333 -35.666 -205 -156.999c-44 -94.667 -66 -180.334 -66 -257.001s13.333 -145 40 -205
c72.667 -70.667 149.334 -103.667 230.001 -99c42.667 7.33301 85.334 24 128.001 50l95 51c22.667 20 49 33.667 79 41l60 -68.5c18 -19.667 38.167 -38 60.5 -55s-16.834 -68.167 -117.501 -153.5c-92 -52 -190 -78 -294 -78zM473 1278
c-2 -34.667 -12.833 -59.5 -32.5 -74.5s-44.834 -24.5 -75.501 -28.5s-58.834 -2.66699 -84.501 4s-45.5 29.334 -59.5 68.001s-9.16699 76.167 14.5 112.5s59.834 57.166 108.501 62.499s82.834 -8.5 102.501 -41.5s28.5 -67.167 26.5 -102.5z" />
    <glyph glyph-name="Ccaron" unicode="&#x10c;" horiz-adv-x="1234" 
d="M1241 118c-184 -128.667 -354.333 -194.167 -511 -196.5s-291 43.334 -403 137.001s-190 236.5 -234 428.5s-9.5 410.833 103.5 656.5s267 407 462 484s319.833 104.5 374.5 82.5c70.667 -30.667 120.334 -90.667 149.001 -180c20 -67.333 22 -138.333 6 -213
c-10.667 -30 -26 -56.167 -46 -78.5s-95.667 -57 -227 -104s-234.333 -140.5 -309 -280.5s-107.834 -252.333 -99.501 -337s58.5 -133.334 150.5 -146.001s170 0.333008 234 39s117.667 72.5 161 101.5s96.5 25 159.5 -12s98.833 -81.5 107.5 -133.5
s-17.333 -134.667 -78 -248zM575 1919c74.667 56.667 133.332 93.667 175.999 111s71.5 21.166 86.5 11.499s30.5 -23.167 46.5 -40.5s25.833 -31.5 29.5 -42.5s3.66699 -21.5 0 -31.5s-29.167 -48.333 -76.5 -115s-101.333 -116 -162 -148s-104.667 -46.5 -132 -43.5
s-64.666 21.833 -111.999 56.5s-90.833 91.834 -130.5 171.501s-50.167 129.167 -31.5 148.5s44.834 36.833 78.501 52.5s61.667 12.834 84 -8.5c22.333 -21.333 70.166 -62 143.499 -122z" />
    <glyph glyph-name="ccaron" unicode="&#x10d;" horiz-adv-x="1234" 
d="M593 -81c-129.333 -9.33301 -243.333 26.3311 -342 106.998c-114.667 79.333 -182.667 199.333 -204 360c-9.33301 86 -3 176.667 19 272c60 202 150 339.333 270 412s273 68 459 -14c107.333 -46.667 178.333 -107.667 213 -183
c-6.66699 -30 -18.334 -59.5 -35.001 -88.5s-49 -49.5 -97 -61.5c-40.667 16.667 -82.167 37.834 -124.5 63.501s-98.5 46.834 -168.5 63.501s-138.333 -35.666 -205 -156.999c-44 -94.667 -66 -180.334 -66 -257.001s13.333 -145 40 -205
c72.667 -70.667 149.334 -103.667 230.001 -99c42.667 7.33301 85.334 24 128.001 50l95 51c22.667 20 49 33.667 79 41l60 -68.5c18 -19.667 38.167 -38 60.5 -55s-16.834 -68.167 -117.501 -153.5c-92 -52 -190 -78 -294 -78zM365 1469
c74.667 56.667 133.332 93.666 175.999 110.999s71.5 21.166 86.5 11.499s30.5 -23.167 46.5 -40.5s25.833 -31.5 29.5 -42.5s3.66699 -21.5 0 -31.5s-29.167 -48.333 -76.5 -115s-101.333 -116 -162 -148s-104.667 -46.5 -132 -43.5s-64.666 21.833 -111.999 56.5
s-90.833 91.834 -130.5 171.501s-50.167 129.167 -31.5 148.5s44.834 36.833 78.501 52.5s61.667 12.834 84 -8.49902s70.166 -62 143.499 -122z" />
    <glyph glyph-name="Dcaron" unicode="&#x10e;" horiz-adv-x="1478" 
d="M1175 -17c-101.333 -69.333 -249.828 -104.332 -445.495 -104.999s-351.834 16.333 -468.501 51s-181.167 120.167 -193.5 256.5s-7.5 359.666 14.5 669.999s46.333 505 73 584s108.667 123.5 246 133.5s299.666 -19 486.999 -87s328.166 -176.667 422.499 -326
s144.166 -308 149.499 -476s-15.334 -309.667 -62.001 -425s-121 -207.333 -223 -276zM510.005 988.001c-53.333 -398.667 -45.998 -609.831 22.002 -633.498s155.667 -35.834 263 -36.501s190.5 25.333 249.5 78s80.667 144.334 65 275.001s-63.334 239.667 -143.001 327
s-174.834 137.166 -285.501 149.499s-167.667 -40.834 -171 -159.501zM425.007 1919c74.667 56.667 133.332 93.667 175.999 111s71.5 21.166 86.5 11.499s30.5 -23.167 46.5 -40.5s25.833 -31.5 29.5 -42.5s3.66699 -21.5 0 -31.5s-29.167 -48.333 -76.5 -115
s-101.333 -116 -162 -148s-104.667 -46.5 -132 -43.5s-64.666 21.833 -111.999 56.5s-90.833 91.834 -130.5 171.501s-50.167 129.167 -31.5 148.5s44.834 36.833 78.501 52.5s61.667 12.834 84 -8.5c22.333 -21.333 70.166 -62 143.499 -122z" />
    <glyph glyph-name="dcaron" unicode="&#x10f;" horiz-adv-x="1698" 
d="M1034 86c1.33301 -9.33301 1.99902 -17.001 1.99902 -23.001c0 -26.667 -9.33301 -48.667 -28 -66s-40.334 -26 -65.001 -26c-41.333 0 -77.166 -3.16699 -107.499 -9.5s-70.5 -15.166 -120.5 -26.499s-108 -11.666 -174 -0.999023
c-141.333 -7.33301 -259 38.667 -353 138c-104 97.333 -157.667 218 -161 362c-10 167.333 35.5 319.166 136.5 455.499s218.833 202.833 353.5 199.5s237 -16 307 -38c20 205.333 24.333 377 13 515c32.667 59.333 78.334 79 137.001 59c81.333 -7.33301 115 -50 101 -128
c0 -92.667 -3.5 -243.5 -10.5 -452.5s-14.667 -393.5 -23 -553.5s-10.833 -295 -7.5 -405zM545.999 162.999c107.333 -2.66699 179.667 18.334 217 63.001c30.667 29.333 49 62 55 98l2 137l1 116l2 118c-25.333 54 -59 85.167 -101 93.5s-94.5 9 -157.5 2
s-123.5 -31.667 -181.5 -74s-94.667 -118.333 -110 -228s4.16699 -187.834 58.5 -234.501s125.833 -77 214.5 -91zM1240 1465c8.66699 -92 -6.16992 -176.667 -44.5029 -254s-82.166 -115 -131.499 -113s-81.333 17.667 -96 47s-18.167 57.833 -10.5 85.5
s24.334 49.667 50.001 66s40.334 30.333 44.001 42s-9.33301 25 -39 40s-49.5 43.833 -59.5 86.5s-0.166992 83 29.5 121s78 50.5 145 37.5s104.5 -65.833 112.5 -158.5z" />
    <glyph glyph-name="Dslash" unicode="&#x110;" horiz-adv-x="1478" 
d="M190 554c-83.333 -26.667 -129.502 22.666 -138.502 147.999s35.167 181 132.5 167l-3 235c-6 148.667 8.5 242.334 43.5 281.001s85.833 66.5 152.5 83.5s205.334 3 416.001 -42s364.834 -129.167 462.501 -252.5s158.5 -319 182.5 -587c0 -114 -26.667 -223 -80 -327
c-54 -106 -127.333 -190.333 -220 -253c-104 -70.667 -217.5 -106 -340.5 -106s-218.167 8.66699 -285.5 26s-135.5 32 -204.5 44s-108.667 51.333 -119 118s-9.83301 221.667 1.5 465zM549.998 1084l-7.00293 -222.002c90 -15.333 144.333 -23.666 163 -24.999
s28.834 -32.666 30.501 -93.999s-4.16602 -113.5 -17.499 -156.5s-55 -59.5 -125 -49.5l-105 -4l-4 -219c108.667 -48 210 -73.833 304 -77.5s169.667 14.666 227 54.999s101.5 95.166 132.5 164.499s40.333 144.333 28 225s-46.666 154.834 -102.999 222.501
s-123.833 115.834 -202.5 144.501s-185.667 40.667 -321 36z" />
    <glyph glyph-name="dcroat" unicode="&#x111;" horiz-adv-x="1310" 
d="M1274 1264c-7.33301 -97.333 -59.668 -142 -157.001 -134c2.66699 -293.333 6.5 -513.166 11.5 -659.499s7.16699 -265.833 6.5 -358.5s-10 -147.834 -28 -165.501s-60.167 -32.5 -126.5 -44.5s-112.5 5.33301 -138.5 52c-30.667 -31.333 -112 -55.333 -244 -72
s-260 30.333 -384 141s-187 251.667 -189 423s43.333 324 136 458s211.334 205.167 356.001 213.5s256 -22.5 334 -92.5l31 136l-167 15c-78.667 43.333 -114.5 90.833 -107.5 142.5s29 80.167 66 85.5s96.833 1 179.5 -13c6 104.667 43.333 162 112 172
c101.333 -3.33301 155.333 -25.333 162 -66c0 -46.667 -1.66699 -89 -5 -127l58 -5c62.667 0.666992 94 -33 94 -101zM751.998 248c77.333 142 102.33 272.168 74.9971 390.501s-102.166 170.666 -224.499 156.999s-203.166 -70.667 -242.499 -171s-29.333 -198.5 30 -294.5
s130.833 -144 214.5 -144s132.834 20.667 147.501 62z" />
    <glyph glyph-name="Emacron" unicode="&#x112;" horiz-adv-x="1279" 
d="M459 1195c0 -70.667 -3.66992 -156.335 -11.0029 -257.002c196.667 28.667 309 28.167 337 -1.5s44.333 -77 49 -142s1.33398 -124.333 -9.99902 -178s-118.333 -88.5 -321 -104.5c-2 -76 2 -137.667 12 -185c154 19.333 266 30.5 336 33.5s122.5 -38.5 157.5 -124.5
s36.5 -164 4.5 -234s-144.167 -117.667 -336.5 -143s-334.166 -35.166 -425.499 -29.499s-147.333 101.5 -168 287.5s-31 405.167 -31 657.5s11.833 464.833 35.5 637.5s93 262.834 208 270.501s201.833 11.334 260.5 11.001s138.667 -6.83301 240 -19.5
c110 -0.666992 172.833 -38.5 188.5 -113.5s23.834 -136.5 24.501 -184.5s-20.833 -89.167 -64.5 -123.5s-99 -51.833 -166 -52.5s-173.5 -2.33398 -319.5 -5.00098zM932.997 1795c2.66699 -54 -15.832 -80.833 -55.499 -80.5s-138.667 1.66602 -297 3.99902
s-253.833 3.5 -286.5 3.5c-64.667 0.666992 -92.334 27 -83.001 79c-2.66699 50 15 75.333 53 76c50.667 15.333 112.667 23 186 23s174 -2.16699 302 -6.5s188.333 -37.166 181 -98.499z" />
    <glyph glyph-name="emacron" unicode="&#x113;" horiz-adv-x="1122" 
d="M579 -70c-173.333 2.66699 -300 41.666 -380 116.999c-86 96.667 -139.333 221 -160 373c4.66699 171.333 52.334 321.333 143.001 450c84.667 121.333 211.334 186.333 380.001 195c135.333 9.33301 236 -13.667 302 -69c108.667 -50.667 173 -151 193 -301
c11.333 -69.333 -12.667 -129 -72 -179c-262.667 -175.333 -463 -234 -601 -176c-7.33301 -94 58.667 -152 198 -174c71.333 0 136.666 14 195.999 42l131.5 112.5c29.667 25.667 62.167 32.834 97.5 21.501c25.333 -22.667 44.833 -43.5 58.5 -62.5
s25.167 -41.167 34.5 -66.5c36.667 -42 -34.333 -112.333 -213 -211c-106.667 -45.333 -209.334 -69.333 -308.001 -72zM586 548.999c225.333 59.333 313.333 126.833 264 202.5s-130.5 95.834 -243.5 60.501s-199.167 -87.833 -258.5 -157.5s20 -104.834 238 -105.501z
M764 1265c2.66699 -54 -15.832 -80.833 -55.499 -80.5s-138.667 1.66602 -297 3.99902s-253.833 3.5 -286.5 3.5c-64.667 0.666992 -92.334 27 -83.001 79c-2.66699 50 15 75.333 53 76c50.667 15.333 112.667 23 186 23s174 -2.16699 302 -6.5s188.333 -37.166 181 -98.499
z" />
    <glyph glyph-name="Ebreve" unicode="&#x114;" horiz-adv-x="1279" 
d="M459 1195c0 -70.667 -3.66992 -156.335 -11.0029 -257.002c196.667 28.667 309 28.167 337 -1.5s44.333 -77 49 -142s1.33398 -124.333 -9.99902 -178s-118.333 -88.5 -321 -104.5c-2 -76 2 -137.667 12 -185c154 19.333 266 30.5 336 33.5s122.5 -38.5 157.5 -124.5
s36.5 -164 4.5 -234s-144.167 -117.667 -336.5 -143s-334.166 -35.166 -425.499 -29.499s-147.333 101.5 -168 287.5s-31 405.167 -31 657.5s11.833 464.833 35.5 637.5s93 262.834 208 270.501s201.833 11.334 260.5 11.001s138.667 -6.83301 240 -19.5
c110 -0.666992 172.833 -38.5 188.5 -113.5s23.834 -136.5 24.501 -184.5s-20.833 -89.167 -64.5 -123.5s-99 -51.833 -166 -52.5s-173.5 -2.33398 -319.5 -5.00098zM963.997 1973c28.667 -24.667 55.1621 -50.6641 79.4951 -77.9971s-16 -78.166 -121 -152.499
s-219 -109 -342 -104s-215.167 45.333 -276.5 121s-99.666 156.5 -114.999 242.5c-9.33301 43.333 15.834 76.666 75.501 99.999s107 6.16602 142 -51.501s69.833 -94.167 104.5 -109.5s92.834 -22.333 174.501 -21s142.834 18.666 183.501 51.999
s72.334 33.666 95.001 0.999023z" />
    <glyph glyph-name="ebreve" unicode="&#x115;" horiz-adv-x="1122" 
d="M579 -70c-173.333 2.66699 -300 41.666 -380 116.999c-86 96.667 -139.333 221 -160 373c4.66699 171.333 52.334 321.333 143.001 450c84.667 121.333 211.334 186.333 380.001 195c135.333 9.33301 236 -13.667 302 -69c108.667 -50.667 173 -151 193 -301
c11.333 -69.333 -12.667 -129 -72 -179c-262.667 -175.333 -463 -234 -601 -176c-7.33301 -94 58.667 -152 198 -174c71.333 0 136.666 14 195.999 42l131.5 112.5c29.667 25.667 62.167 32.834 97.5 21.501c25.333 -22.667 44.833 -43.5 58.5 -62.5
s25.167 -41.167 34.5 -66.5c36.667 -42 -34.333 -112.333 -213 -211c-106.667 -45.333 -209.334 -69.333 -308.001 -72zM586 548.999c225.333 59.333 313.333 126.833 264 202.5s-130.5 95.834 -243.5 60.501s-199.167 -87.833 -258.5 -157.5s20 -104.834 238 -105.501z
M775 1473c28.667 -24.667 55.1621 -50.6641 79.4951 -77.9971s-16 -78.166 -121 -152.499s-219 -109 -342 -104s-215.167 45.333 -276.5 121s-99.666 156.5 -114.999 242.5c-9.33301 43.333 15.834 76.666 75.501 99.999s107 6.16602 142 -51.501
s69.833 -94.167 104.5 -109.5s92.834 -22.333 174.501 -21s142.834 18.666 183.501 51.999s72.334 33.666 95.001 0.999023z" />
    <glyph glyph-name="Edot" unicode="&#x116;" horiz-adv-x="1279" 
d="M459 1195c0 -70.667 -3.66992 -156.335 -11.0029 -257.002c196.667 28.667 309 28.167 337 -1.5s44.333 -77 49 -142s1.33398 -124.333 -9.99902 -178s-118.333 -88.5 -321 -104.5c-2 -76 2 -137.667 12 -185c154 19.333 266 30.5 336 33.5s122.5 -38.5 157.5 -124.5
s36.5 -164 4.5 -234s-144.167 -117.667 -336.5 -143s-334.166 -35.166 -425.499 -29.499s-147.333 101.5 -168 287.5s-31 405.167 -31 657.5s11.833 464.833 35.5 637.5s93 262.834 208 270.501s201.833 11.334 260.5 11.001s138.667 -6.83301 240 -19.5
c110 -0.666992 172.833 -38.5 188.5 -113.5s23.834 -136.5 24.501 -184.5s-20.833 -89.167 -64.5 -123.5s-99 -51.833 -166 -52.5s-173.5 -2.33398 -319.5 -5.00098zM652.997 1778c-2 -34.667 -12.833 -59.5 -32.5 -74.5s-44.834 -24.5 -75.501 -28.5
s-58.834 -2.66699 -84.501 4s-45.5 29.334 -59.5 68.001s-9.16699 76.167 14.5 112.5s59.834 57.166 108.501 62.499s82.834 -8.5 102.501 -41.5s28.5 -67.167 26.5 -102.5z" />
    <glyph glyph-name="edot" unicode="&#x117;" horiz-adv-x="1122" 
d="M579 -70c-173.333 2.66699 -300 41.666 -380 116.999c-86 96.667 -139.333 221 -160 373c4.66699 171.333 52.334 321.333 143.001 450c84.667 121.333 211.334 186.333 380.001 195c135.333 9.33301 236 -13.667 302 -69c108.667 -50.667 173 -151 193 -301
c11.333 -69.333 -12.667 -129 -72 -179c-262.667 -175.333 -463 -234 -601 -176c-7.33301 -94 58.667 -152 198 -174c71.333 0 136.666 14 195.999 42l131.5 112.5c29.667 25.667 62.167 32.834 97.5 21.501c25.333 -22.667 44.833 -43.5 58.5 -62.5
s25.167 -41.167 34.5 -66.5c36.667 -42 -34.333 -112.333 -213 -211c-106.667 -45.333 -209.334 -69.333 -308.001 -72zM586 548.999c225.333 59.333 313.333 126.833 264 202.5s-130.5 95.834 -243.5 60.501s-199.167 -87.833 -258.5 -157.5s20 -104.834 238 -105.501z
M423 1278c-2 -34.667 -12.833 -59.5 -32.5 -74.5s-44.834 -24.5 -75.501 -28.5s-58.834 -2.66699 -84.501 4s-45.5 29.334 -59.5 68.001s-9.16699 76.167 14.5 112.5s59.834 57.166 108.501 62.499s82.834 -8.5 102.501 -41.5s28.5 -67.167 26.5 -102.5z" />
    <glyph glyph-name="Eogonek" unicode="&#x118;" horiz-adv-x="1190" 
d="M452 1250c-15.333 -107.333 -22.834 -179.835 -22.501 -217.502s89.833 -67.167 268.5 -88.5c102 19.333 152.167 -34 150.5 -160s-33.167 -191.667 -94.5 -197c-111.333 -20 -227.666 -25.667 -348.999 -17c-22.667 -112 -21.334 -228.333 3.99902 -349
c100 6.66699 187.333 11.167 262 13.5s158.5 5.66602 251.5 9.99902s137.5 -70.167 133.5 -223.5c0 -56 -28.333 -89.667 -85 -101c-58.667 -11.333 -98 -20.666 -118 -27.999s-11.333 -34.666 26 -81.999c100.667 12 171.334 20 212.001 24
c37.333 -37.333 60 -84.666 68 -141.999c0 -62.667 -51.333 -107 -154 -133c-58.667 -11.333 -117.334 -15 -176.001 -11c-61.333 25.333 -117.666 50 -168.999 74c-70.667 74.667 -104.667 153 -102 235c-207.333 -20 -345.833 -15.333 -415.5 14
s-99.167 188.166 -88.5 476.499s17.167 514.333 19.5 678s5.5 269.334 9.5 317.001s6 97.5 6 149.5s55.333 95.667 166 131c176 9.33301 328.667 14 458 14c197.333 26.667 294.166 -32.333 290.499 -177s-76.167 -212 -217.5 -202s-252.666 7.33301 -333.999 -8z" />
    <glyph glyph-name="eogonek" unicode="&#x119;" horiz-adv-x="1158" 
d="M1044 -265c12 -68.667 -19.4971 -112.329 -94.4971 -130.996s-148 -25 -219 -19s-131.167 40.5 -180.5 103.5s-74 113.167 -74 150.5s-28.833 62.333 -86.5 75s-130.334 61.167 -218.001 145.5s-136.167 210.833 -145.5 379.5c21.333 209.333 81 368.666 179 477.999
s211.333 158 340 146s228 -36.667 298 -74c86 -46.667 135.667 -111 149 -193s-22.834 -165 -108.501 -249s-238.167 -136 -457.5 -156c59.333 -123.333 119.666 -190.166 180.999 -200.499s119 7.66699 173 54s96 88.166 126 125.499s67.833 39.666 113.5 6.99902
s74.667 -65.334 87 -98.001s15.5 -69.5 9.5 -110.5s-45.167 -86.167 -117.5 -135.5s-131 -79.5 -176 -90.5s-62.833 -37.333 -53.5 -79s47.333 -47 114 -16s110.167 25.167 130.5 -17.5s30.5 -74.334 30.5 -95.001zM616.003 865.005
c-132.667 0 -221.334 -63.3311 -266.001 -189.998s10.833 -146.334 166.5 -59.001s232.334 150.666 230.001 189.999s-45.833 59 -130.5 59z" />
    <glyph glyph-name="Ecaron" unicode="&#x11a;" horiz-adv-x="1279" 
d="M459 1195c0 -70.667 -3.66992 -156.335 -11.0029 -257.002c196.667 28.667 309 28.167 337 -1.5s44.333 -77 49 -142s1.33398 -124.333 -9.99902 -178s-118.333 -88.5 -321 -104.5c-2 -76 2 -137.667 12 -185c154 19.333 266 30.5 336 33.5s122.5 -38.5 157.5 -124.5
s36.5 -164 4.5 -234s-144.167 -117.667 -336.5 -143s-334.166 -35.166 -425.499 -29.499s-147.333 101.5 -168 287.5s-31 405.167 -31 657.5s11.833 464.833 35.5 637.5s93 262.834 208 270.501s201.833 11.334 260.5 11.001s138.667 -6.83301 240 -19.5
c110 -0.666992 172.833 -38.5 188.5 -113.5s23.834 -136.5 24.501 -184.5s-20.833 -89.167 -64.5 -123.5s-99 -51.833 -166 -52.5s-173.5 -2.33398 -319.5 -5.00098zM504.997 1949c74.667 56.667 133.332 93.666 175.999 110.999s71.5 21.166 86.5 11.5
c15 -9.66699 30.5 -23.167 46.5 -40.5s25.833 -31.5 29.5 -42.5s3.66699 -21.5 0 -31.5s-29.167 -48.333 -76.5 -115s-101.333 -116 -162 -148s-104.667 -46.5 -132 -43.5s-64.666 21.833 -111.999 56.5s-90.833 91.834 -130.5 171.501s-50.167 129.167 -31.5 148.5
s44.834 36.833 78.501 52.499c33.667 15.667 61.667 12.834 84 -8.49902s70.166 -62 143.499 -122z" />
    <glyph glyph-name="ecaron" unicode="&#x11b;" horiz-adv-x="1122" 
d="M579 -70c-173.333 2.66699 -300 41.666 -380 116.999c-86 96.667 -139.333 221 -160 373c4.66699 171.333 52.334 321.333 143.001 450c84.667 121.333 211.334 186.333 380.001 195c135.333 9.33301 236 -13.667 302 -69c108.667 -50.667 173 -151 193 -301
c11.333 -69.333 -12.667 -129 -72 -179c-262.667 -175.333 -463 -234 -601 -176c-7.33301 -94 58.667 -152 198 -174c71.333 0 136.666 14 195.999 42l131.5 112.5c29.667 25.667 62.167 32.834 97.5 21.501c25.333 -22.667 44.833 -43.5 58.5 -62.5
s25.167 -41.167 34.5 -66.5c36.667 -42 -34.333 -112.333 -213 -211c-106.667 -45.333 -209.334 -69.333 -308.001 -72zM586 548.999c225.333 59.333 313.333 126.833 264 202.5s-130.5 95.834 -243.5 60.501s-199.167 -87.833 -258.5 -157.5s20 -104.834 238 -105.501z
M365 1469c74.667 56.667 133.332 93.666 175.999 110.999s71.5 21.166 86.5 11.499s30.5 -23.167 46.5 -40.5s25.833 -31.5 29.5 -42.5s3.66699 -21.5 0 -31.5s-29.167 -48.333 -76.5 -115s-101.333 -116 -162 -148s-104.667 -46.5 -132 -43.5s-64.666 21.833 -111.999 56.5
s-90.833 91.834 -130.5 171.501s-50.167 129.167 -31.5 148.5s44.834 36.833 78.501 52.5s61.667 12.834 84 -8.49902s70.166 -62 143.499 -122z" />
    <glyph glyph-name="Gcircumflex" unicode="&#x11c;" horiz-adv-x="1392" 
d="M1463 585c-8.66699 -208.667 -72.166 -385.832 -190.499 -531.499s-301 -215 -548 -208s-416.333 63.667 -508 170s-144.667 251 -159 434s17.167 379.667 94.5 590s195.666 366.833 354.999 469.5s307.666 152 444.999 148s248.333 -41.5 333 -112.5
s122.5 -137.833 113.5 -200.5s-21.667 -105.834 -38 -129.501s-40.833 -56.834 -73.5 -99.501s-93.167 -55.167 -181.5 -37.5s-175.833 20 -262.5 7s-164.334 -74 -233.001 -183s-110.167 -223.667 -124.5 -344s35.5 -212.5 149.5 -276.5s202.667 -23.667 266 121
c-128.667 -6.66699 -205.167 12.333 -229.5 57s-37.666 103.334 -39.999 176.001s31.334 125.834 101.001 159.501s195.167 47.667 376.5 42s286.333 -22.834 315 -51.501s43 -57.667 43 -87c0 -43.333 -1.33301 -81 -4 -113zM1018 1639c-22 0 -43 9.66895 -63 29.002
c-150.667 91.333 -233 134 -247 128s-106.667 -59.667 -278 -161c-55.333 -18.667 -94.166 -22.667 -116.499 -12s-36.333 26.5 -42 47.5s5.33301 73 33 156s85.834 164.5 174.501 244.5s159.667 112.667 213 98s105 -37.834 155 -69.5
c50 -31.667 116.333 -93.834 199 -186.501s119.667 -155.334 111 -188.001s-27.834 -55.167 -57.501 -67.5s-56.834 -18.5 -81.501 -18.5z" />
    <glyph glyph-name="gcircumflex" unicode="&#x11d;" horiz-adv-x="1087" 
d="M1040 80c-14 -136.667 -32.6699 -249.001 -56.0029 -337.001c-30 -131.333 -71 -198.333 -123 -201c-131.333 -55.333 -249.166 -77 -353.499 -65s-208.833 35.667 -313.5 71s-144.667 84.333 -120 147c-16.667 67.333 36.333 134 159 200
c83.333 -36 143 -63.167 179 -81.5s89.333 -28.833 160 -31.5c90.667 -9.33301 144.334 7.33398 161.001 50.001s24.334 102 23.001 178c-54 -56.667 -140.5 -79.167 -259.5 -67.5s-217.167 59.5 -294.5 143.5s-121 195 -131 333c-3.33301 180 43.334 331.667 140.001 455
c74 123.333 198 188.333 372 195c114.667 -6.66699 190.5 -15.5 227.5 -26.5s93.167 -29.167 168.5 -54.5c94.667 -32 133.667 -91.667 117 -179c-2.66699 -218.667 -21.334 -461.667 -56.001 -729zM567.997 813.999c-54 -13.333 -100.667 -45.332 -140 -95.999
c-65.333 -78.667 -96.333 -177 -93 -295c-3.33301 -70 13.334 -124.333 50.001 -163s91.667 -61.334 165 -68.001c199.333 16.667 302.333 135.667 309 357c-4 94 -38.333 164.167 -103 210.5s-127.334 64.5 -188.001 54.5zM807.997 1189c-22 0 -43 9.66992 -63 29.0029
c-150.667 91.333 -233 134 -247 128s-106.667 -59.667 -278 -161c-55.333 -18.667 -94.166 -22.667 -116.499 -12s-36.333 26.5 -42 47.5s5.33301 73 33 156s85.834 164.5 174.501 244.5s159.667 112.667 213 98s105 -37.834 155 -69.501s116.333 -93.834 199 -186.501
s119.667 -155.334 111 -188.001s-27.834 -55.167 -57.501 -67.5s-56.834 -18.5 -81.501 -18.5z" />
    <glyph glyph-name="Gbreve" unicode="&#x11e;" horiz-adv-x="1392" 
d="M1463 585c-8.66699 -208.667 -72.166 -385.832 -190.499 -531.499s-301 -215 -548 -208s-416.333 63.667 -508 170s-144.667 251 -159 434s17.167 379.667 94.5 590s195.666 366.833 354.999 469.5s307.666 152 444.999 148s248.333 -41.5 333 -112.5
s122.5 -137.833 113.5 -200.5s-21.667 -105.834 -38 -129.501s-40.833 -56.834 -73.5 -99.501s-93.167 -55.167 -181.5 -37.5s-175.833 20 -262.5 7s-164.334 -74 -233.001 -183s-110.167 -223.667 -124.5 -344s35.5 -212.5 149.5 -276.5s202.667 -23.667 266 121
c-128.667 -6.66699 -205.167 12.333 -229.5 57s-37.666 103.334 -39.999 176.001s31.334 125.834 101.001 159.501s195.167 47.667 376.5 42s286.333 -22.834 315 -51.501s43 -57.667 43 -87c0 -43.333 -1.33301 -81 -4 -113zM1014 1923
c28.667 -24.667 55.1621 -50.665 79.4951 -77.998s-16 -78.166 -121 -152.499s-219 -109 -342 -104s-215.167 45.333 -276.5 121s-99.666 156.5 -114.999 242.5c-9.33301 43.333 15.834 76.666 75.501 99.999s107 6.16602 142 -51.5c35 -57.667 69.833 -94.167 104.5 -109.5
s92.834 -22.333 174.501 -21s142.834 18.666 183.501 51.999s72.334 33.666 95.001 0.999023z" />
    <glyph glyph-name="gbreve" unicode="&#x11f;" horiz-adv-x="1087" 
d="M1040 80c-14 -136.667 -32.6699 -249.001 -56.0029 -337.001c-30 -131.333 -71 -198.333 -123 -201c-131.333 -55.333 -249.166 -77 -353.499 -65s-208.833 35.667 -313.5 71s-144.667 84.333 -120 147c-16.667 67.333 36.333 134 159 200
c83.333 -36 143 -63.167 179 -81.5s89.333 -28.833 160 -31.5c90.667 -9.33301 144.334 7.33398 161.001 50.001s24.334 102 23.001 178c-54 -56.667 -140.5 -79.167 -259.5 -67.5s-217.167 59.5 -294.5 143.5s-121 195 -131 333c-3.33301 180 43.334 331.667 140.001 455
c74 123.333 198 188.333 372 195c114.667 -6.66699 190.5 -15.5 227.5 -26.5s93.167 -29.167 168.5 -54.5c94.667 -32 133.667 -91.667 117 -179c-2.66699 -218.667 -21.334 -461.667 -56.001 -729zM567.997 813.999c-54 -13.333 -100.667 -45.332 -140 -95.999
c-65.333 -78.667 -96.333 -177 -93 -295c-3.33301 -70 13.334 -124.333 50.001 -163s91.667 -61.334 165 -68.001c199.333 16.667 302.333 135.667 309 357c-4 94 -38.333 164.167 -103 210.5s-127.334 64.5 -188.001 54.5zM823.997 1473
c28.667 -24.667 55.1621 -50.6641 79.4951 -77.9971s-16 -78.166 -121 -152.499s-219 -109 -342 -104s-215.167 45.333 -276.5 121s-99.666 156.5 -114.999 242.5c-9.33301 43.333 15.834 76.666 75.501 99.999s107 6.16602 142 -51.501s69.833 -94.167 104.5 -109.5
s92.834 -22.333 174.501 -21s142.834 18.666 183.501 51.999s72.334 33.666 95.001 0.999023z" />
    <glyph glyph-name="Gdot" unicode="&#x120;" horiz-adv-x="1392" 
d="M1463 585c-8.66699 -208.667 -72.166 -385.832 -190.499 -531.499s-301 -215 -548 -208s-416.333 63.667 -508 170s-144.667 251 -159 434s17.167 379.667 94.5 590s195.666 366.833 354.999 469.5s307.666 152 444.999 148s248.333 -41.5 333 -112.5
s122.5 -137.833 113.5 -200.5s-21.667 -105.834 -38 -129.501s-40.833 -56.834 -73.5 -99.501s-93.167 -55.167 -181.5 -37.5s-175.833 20 -262.5 7s-164.334 -74 -233.001 -183s-110.167 -223.667 -124.5 -344s35.5 -212.5 149.5 -276.5s202.667 -23.667 266 121
c-128.667 -6.66699 -205.167 12.333 -229.5 57s-37.666 103.334 -39.999 176.001s31.334 125.834 101.001 159.501s195.167 47.667 376.5 42s286.333 -22.834 315 -51.501s43 -57.667 43 -87c0 -43.333 -1.33301 -81 -4 -113zM713.001 1728
c-2 -34.667 -12.833 -59.5 -32.5 -74.5s-44.834 -24.5 -75.501 -28.5s-58.834 -2.66699 -84.501 4s-45.5 29.334 -59.5 68.001s-9.16699 76.167 14.5 112.5s59.834 57.166 108.501 62.499s82.834 -8.5 102.501 -41.5s28.5 -67.167 26.5 -102.5z" />
    <glyph glyph-name="gdot" unicode="&#x121;" horiz-adv-x="1087" 
d="M1040 80c-14 -136.667 -32.6699 -249.001 -56.0029 -337.001c-30 -131.333 -71 -198.333 -123 -201c-131.333 -55.333 -249.166 -77 -353.499 -65s-208.833 35.667 -313.5 71s-144.667 84.333 -120 147c-16.667 67.333 36.333 134 159 200
c83.333 -36 143 -63.167 179 -81.5s89.333 -28.833 160 -31.5c90.667 -9.33301 144.334 7.33398 161.001 50.001s24.334 102 23.001 178c-54 -56.667 -140.5 -79.167 -259.5 -67.5s-217.167 59.5 -294.5 143.5s-121 195 -131 333c-3.33301 180 43.334 331.667 140.001 455
c74 123.333 198 188.333 372 195c114.667 -6.66699 190.5 -15.5 227.5 -26.5s93.167 -29.167 168.5 -54.5c94.667 -32 133.667 -91.667 117 -179c-2.66699 -218.667 -21.334 -461.667 -56.001 -729zM567.997 813.999c-54 -13.333 -100.667 -45.332 -140 -95.999
c-65.333 -78.667 -96.333 -177 -93 -295c-3.33301 -70 13.334 -124.333 50.001 -163s91.667 -61.334 165 -68.001c199.333 16.667 302.333 135.667 309 357c-4 94 -38.333 164.167 -103 210.5s-127.334 64.5 -188.001 54.5zM552.997 1278
c-2 -34.667 -12.833 -59.5 -32.5 -74.5s-44.834 -24.5 -75.501 -28.5s-58.834 -2.66699 -84.501 4s-45.5 29.334 -59.5 68.001s-9.16699 76.167 14.5 112.5s59.834 57.166 108.501 62.499s82.834 -8.5 102.501 -41.5s28.5 -67.167 26.5 -102.5z" />
    <glyph glyph-name="Gcedilla" unicode="&#x122;" horiz-adv-x="1360" 
d="M812 -69c19.333 -259.333 -44.334 -400.499 -191.001 -423.499s-248.667 -16.833 -306 18.5s-81.833 79.333 -73.5 132s30.333 93.667 66 123s67.5 33.833 95.5 13.5s51.5 -15.5 70.5 14.5s14.5 52.5 -13.5 67.5l-216 121c-116 65.667 -180.333 203.834 -193 414.501
s9 389.167 65 535.5s139.5 280.5 250.5 402.5s225 193.5 342 214.5s236.5 4.66699 358.5 -49s182 -101.334 180 -143.001s-13.167 -95 -33.5 -160s-58.5 -96.5 -114.5 -94.5s-120.167 8 -192.5 18s-141.833 5.5 -208.5 -13.5s-136.5 -93.667 -209.5 -224
s-113.667 -247.333 -122 -351s39.334 -191.834 143.001 -264.501s249.5 -18 437.5 164c-110.667 16 -217.167 15 -319.5 -3s-141.5 35.667 -117.5 161c-25.333 138.667 53.5 211 236.5 217s327.333 11.167 433 15.5s145 -77 118 -244s-95.833 -312.667 -206.5 -437
s-203.667 -199.5 -279 -225.5z" />
    <glyph glyph-name="gcedilla" unicode="&#x123;" horiz-adv-x="1087" 
d="M1040 80c-14 -136.667 -32.6699 -249.001 -56.0029 -337.001c-30 -131.333 -71 -198.333 -123 -201c-131.333 -55.333 -249.166 -77 -353.499 -65s-208.833 35.667 -313.5 71s-144.667 84.333 -120 147c-16.667 67.333 36.333 134 159 200
c83.333 -36 143 -63.167 179 -81.5s89.333 -28.833 160 -31.5c90.667 -9.33301 144.334 7.33398 161.001 50.001s24.334 102 23.001 178c-54 -56.667 -140.5 -79.167 -259.5 -67.5s-217.167 59.5 -294.5 143.5s-121 195 -131 333c-3.33301 180 43.334 331.667 140.001 455
c74 123.333 198 188.333 372 195c114.667 -6.66699 190.5 -15.5 227.5 -26.5s93.167 -29.167 168.5 -54.5c94.667 -32 133.667 -91.667 117 -179c-2.66699 -218.667 -21.334 -461.667 -56.001 -729zM567.997 813.999c-54 -13.333 -100.667 -45.332 -140 -95.999
c-65.333 -78.667 -96.333 -177 -93 -295c-3.33301 -70 13.334 -124.333 50.001 -163s91.667 -61.334 165 -68.001c199.333 16.667 302.333 135.667 309 357c-4 94 -38.333 164.167 -103 210.5s-127.334 64.5 -188.001 54.5zM438.997 1360
c8 -29.333 10.998 -53.3369 8.99805 -72.0039s-11.333 -40.167 -28 -64.5s-42.167 -38.166 -76.5 -41.499s-76.666 0.333984 -126.999 11.001s-73.666 55.834 -69.999 135.501s26 163.667 67 252s91.667 133.833 152 136.5s95.166 -24.333 104.499 -81s-2 -87.5 -34 -92.5
s-54.5 -16 -67.5 -33s-20.167 -30.833 -21.5 -41.5s11.834 -24.167 39.501 -40.5s45.167 -39.166 52.5 -68.499z" />
    <glyph glyph-name="Hcircumflex" unicode="&#x124;" horiz-adv-x="1573" 
d="M1422 1409l-41.0029 -113.006c-3.33301 -26.667 -9.33301 -57.167 -18 -91.5s-18.167 -75.666 -28.5 -123.999s-16.166 -114.666 -17.499 -198.999s-0.333008 -193.833 3 -328.5c0 -84.667 13.833 -164 41.5 -238s50.167 -157.333 67.5 -250
c3.33301 -54.667 -10.167 -86.167 -40.5 -94.5s-59.166 -19.166 -86.499 -32.499c-70.667 -17.333 -148.667 -15.666 -234 5.00098c-6.66699 30.667 -12 60 -16 88s-6 94.167 -6 198.5s-8.83301 192.333 -26.5 264s-225.167 82.834 -622.5 33.501
c-34 -60 -57 -145.167 -69 -255.5s-18 -195.833 -18 -256.5c24 -71.333 22.5 -110.666 -4.5 -117.999s-55.833 -7.33301 -86.5 0c-30.667 -4 -58.5 -5.83301 -83.5 -5.5s-52.833 5.83301 -83.5 16.5c13.333 98 21.5 216.167 24.5 354.5s8 246.333 15 324
s7.33301 147.5 1 209.5s-7.66602 142.833 -3.99902 242.5s8 182.667 13 249l12.5 168.5c-20.667 65.333 -8.16699 98 37.5 98h109.5c27.333 0 61.333 -1.66699 102 -5s55.667 -36 45 -98c-34 -50 -54.5 -128.167 -61.5 -234.5s-10.5 -186.166 -10.5 -239.499l37 -74l286 -21
c246 -19.333 368 -20 366 -2c48 109.333 70.333 227.666 67 354.999c-13.333 74.667 -13.333 143 0 205c83.333 3.33301 162 5 236 5c68.667 31.333 103 33 103 5c0 -10 -3 -23.667 -9 -41zM1018 1638.99c-22 0 -43 9.66895 -63 29.002c-150.667 91.333 -233 134 -247 128
s-106.667 -59.667 -278 -161c-55.333 -18.667 -94.166 -22.667 -116.499 -12s-36.333 26.5 -42 47.5s5.33301 73 33 156s85.834 164.5 174.501 244.5s159.667 112.667 213 98s105 -37.834 155 -69.5c50 -31.667 116.333 -93.834 199 -186.501s119.667 -155.334 111 -188.001
s-27.834 -55.167 -57.501 -67.5s-56.834 -18.5 -81.501 -18.5z" />
    <glyph glyph-name="hcircumflex" unicode="&#x125;" horiz-adv-x="1183" 
d="M805 242c2 58.667 1.16504 114.171 -2.50195 166.504s-3.5 130.5 0.5 234.5c-28 52.667 -65 84.167 -111 94.5s-104 3.16602 -174 -21.501c-75.333 -60 -109.666 -151.833 -102.999 -275.5s-16.333 -257.167 -69 -400.5c-18.667 -41.333 -47.667 -62 -87 -62
c-27.333 -10.667 -69.666 -12.667 -126.999 -6s-81 44 -71 112c19.333 414 36.833 729.333 52.5 946s22 339.167 19 367.5s-7.16699 72.666 -12.5 132.999s1 92.5 19 96.5s61.667 16.333 131 37c100.667 18 152 -20 154 -114c3.33301 -71.333 8.83301 -140 16.5 -206
s12.167 -172 13.5 -318c-11.333 -51.333 16.834 -59.666 84.501 -24.999s143.5 53.667 227.5 57c131.333 -10.667 212.333 -53.667 243 -129c29.333 -50.667 44.333 -132.334 45 -245.001l3 -212c19.333 -112.667 30.333 -221.334 33 -326.001
c-0.666992 -66.667 -56.334 -100.334 -167.001 -101.001s-150 65 -118 197zM907.998 1639c-22 0 -43 9.66895 -63 29.002c-150.667 91.333 -233 134 -247 128s-106.667 -59.667 -278 -161c-55.333 -18.667 -94.166 -22.667 -116.499 -12s-36.333 26.5 -42 47.5
s5.33301 73 33 156s85.834 164.5 174.501 244.5s159.667 112.667 213 98s105 -37.834 155 -69.5c50 -31.667 116.333 -93.834 199 -186.501s119.667 -155.334 111 -188.001s-27.834 -55.167 -57.501 -67.5s-56.834 -18.5 -81.501 -18.5z" />
    <glyph glyph-name="Hbar" unicode="&#x126;" horiz-adv-x="1784" 
d="M1743 1211c3.33301 -128 -59.3311 -182.001 -187.998 -162.001c-0.666992 -30.667 1.83301 -112 7.5 -244s6.83398 -229.833 3.50098 -293.5s-8.16602 -142.834 -14.499 -237.501s-35.5 -157.334 -87.5 -188.001s-96.833 -30.667 -134.5 0s-54.167 95 -49.5 193
s2 186.333 -8 265c-252 12.667 -512.667 7 -782 -17c17.333 -63.333 21.666 -149.333 12.999 -258s-13.834 -185.834 -15.501 -231.501s-14.334 -79.667 -38.001 -102s-53.334 -36.166 -89.001 -41.499s-73 -0.166016 -112 15.501s-56.667 46.334 -53 92.001l17.5 225.5
c8 104.667 10.333 205.834 7 303.501s-1.33301 271.167 6 520.5c-124.667 -28 -183.667 20 -177 144c0.666992 120 69 156 205 108c12.667 46 18.167 96 16.5 150s13.5 84.333 45.5 91s79.5 10 142.5 10s96 -12.667 99 -38s4.5 -55.833 4.5 -91.5
s2.83301 -65.334 8.5 -89.001s87.167 -37.5 244.5 -41.5c133.333 -3.33301 239.333 -5 318 -5c24.667 0 89.667 2 195 6c4.66699 53.333 6.66699 103.5 6 150.5s47 80.833 143 101.5c25.333 0 48 -9.16699 68 -27.5s30 -41.5 30 -69.5c0 -10 -3 -23.667 -9 -41
c-9.33301 -26 -14.333 -61.667 -15 -107l21 1c-2 -0.666992 17 -1 57 -1c82.667 20.667 120.667 -9.66602 114 -90.999zM1312 1085c-204.667 -24 -460 -42.3311 -766 -54.998c-6.66699 -102.667 -4.66699 -182.334 6 -239.001c133.333 -21.333 270 -16.333 410 15
s258.333 46 355 44c2 73.333 0.333008 151.666 -5 234.999z" />
    <glyph glyph-name="hbar" unicode="&#x127;" horiz-adv-x="1251" 
d="M934 247c-11.333 176 -26.4951 283.502 -45.4951 322.502s-57.667 66.333 -116 82s-116 6.66699 -173 -27s-90.667 -124.334 -101 -272.001s-19.5 -253.5 -27.5 -317.5c-26.667 -62 -63.334 -94 -110.001 -96s-85.667 1.16699 -117 9.5s-50.333 24.5 -57 48.5
s-9.83398 54.667 -9.50098 92s3.66602 127.5 9.99902 270.5s21.166 399.5 44.499 769.5l-57 5c-93.333 -10.667 -138.333 35.666 -135 138.999c4 52.667 21.5 82.834 52.5 90.501s68.833 14.834 113.5 21.501c7.33301 94.667 18.666 152.334 33.999 173.001
s61.833 32.334 139.5 35.001s107.834 -62 90.501 -194c258 44.667 394 27 408 -53c14 -97.333 7.33301 -154.333 -20 -171s-149.333 -30.334 -366 -41.001c-5.33301 -86 -11 -167 -17 -243c95.333 132 205.666 188.5 330.999 169.5s220.333 -62.5 285 -130.5
s102.667 -189.5 114 -364.5s16.5 -306.333 15.5 -394s-20.333 -139.834 -58 -156.501s-77.5 -29.334 -119.5 -38.001s-67.667 8.66602 -77 51.999s-20 116 -32 218z" />
    <glyph glyph-name="Itilde" unicode="&#x128;" horiz-adv-x="1119" 
d="M405 1280c-15.333 -194 -23 -379.33 -23 -555.997c0 -46.667 1.33301 -104.334 4 -173.001s4 -126.334 4 -173.001c0 -62.667 5.33301 -138 16 -226s-4 -138.333 -44 -151c-44 0 -109.833 -6.16699 -197.5 -18.5s-88.5 55.167 -2.5 202.5
c6.66699 73.333 10 144.666 10 213.999c-3.33301 106.667 -8 188.334 -14 245.001s-9 128.5 -9 215.5s-14.667 190.167 -44 309.5c-60 197.333 -14.333 305.666 137 324.999c170.667 64 225 -7.33301 163 -214zM805 1785c-26.667 -43.333 -49.667 -74.9971 -69 -94.9971
c-37.333 -38 -86.5 -61.833 -147.5 -71.5s-121.167 2.5 -180.5 36.5s-108.5 67.167 -147.5 99.5s-69.5 26.166 -91.5 -18.501s-56.333 -56.834 -103 -36.501s-78.167 41.333 -94.5 63s-15 49.5 4 83.5s49.667 66.167 92 96.5s89 46 140 47s124.667 -21 221 -66
s160.5 -52.833 192.5 -23.5s63.833 38.166 95.5 26.499s58.5 -28.167 80.5 -49.5s24.667 -52 8 -92z" />
    <glyph glyph-name="itilde" unicode="&#x129;" 
d="M343 92c-14.667 -73.333 -46.168 -111.5 -94.501 -114.5s-88 0 -119 9s-47.667 37.667 -50 86s-9.5 102.833 -21.5 163.5s-7 293.667 15 699c8.66699 88.667 36.667 136.834 84 144.501s85.333 5.16699 114 -7.5s47.334 -33.167 56.001 -61.5s13 -57.5 13 -87.5
c6.66699 -64.667 8.66699 -142.834 6 -234.501s-5 -163.667 -7 -216s-2.33301 -117.333 -1 -195s3 -139.5 5 -185.5zM524.999 1335c-26.667 -43.333 -49.667 -74.9971 -69 -94.9971c-37.333 -38 -86.5 -61.833 -147.5 -71.5s-121.167 2.5 -180.5 36.5
s-108.5 67.167 -147.5 99.5s-69.5 26.166 -91.5 -18.501s-56.333 -56.834 -103 -36.501s-78.167 41.333 -94.5 63s-15 49.5 4 83.5s49.667 66.167 92 96.5s89 46 140 47s124.667 -21 221 -66s160.5 -52.833 192.5 -23.5s63.833 38.166 95.5 26.499s58.5 -28.167 80.5 -49.5
s24.667 -52 8 -92z" />
    <glyph glyph-name="Imacron" unicode="&#x12a;" horiz-adv-x="1119" 
d="M405 1280c-15.333 -194 -23 -379.33 -23 -555.997c0 -46.667 1.33301 -104.334 4 -173.001s4 -126.334 4 -173.001c0 -62.667 5.33301 -138 16 -226s-4 -138.333 -44 -151c-44 0 -109.833 -6.16699 -197.5 -18.5s-88.5 55.167 -2.5 202.5
c6.66699 73.333 10 144.666 10 213.999c-3.33301 106.667 -8 188.334 -14 245.001s-9 128.5 -9 215.5s-14.667 190.167 -44 309.5c-60 197.333 -14.333 305.666 137 324.999c170.667 64 225 -7.33301 163 -214zM724 1715c2.66699 -54 -15.832 -80.833 -55.499 -80.5
s-138.667 1.66602 -297 3.99902s-253.833 3.5 -286.5 3.5c-64.667 0.666992 -92.334 27 -83.001 79c-2.66699 50 15 75.333 53 76c50.667 15.333 112.667 23 186 23s174 -2.16699 302 -6.5s188.333 -37.166 181 -98.499z" />
    </font>
</defs>
</svg>
